<svg width="46" height="46" viewBox="0 0 46 46" fill="none" xmlns="http://www.w3.org/2000/svg">
<circle cx="23" cy="23" r="22.5" stroke="#D94540" stroke-opacity="0.3"/>
<circle cx="23" cy="23" r="20" fill="#D94540"/>
<path d="M19.2067 30.27C18.3247 30.27 17.5447 30.078 16.8667 29.694C16.1887 29.304 15.6547 28.77 15.2647 28.092C14.8807 27.414 14.6887 26.634 14.6887 25.752V21.288C14.6887 20.406 14.8807 19.626 15.2647 18.948C15.6547 18.27 16.1887 17.739 16.8667 17.355C17.5447 16.965 18.3247 16.77 19.2067 16.77C20.0887 16.77 20.8687 16.965 21.5467 17.355C22.2247 17.739 22.7557 18.27 23.1397 18.948C23.5297 19.626 23.7247 20.406 23.7247 21.288V25.752C23.7247 26.634 23.5297 27.414 23.1397 28.092C22.7557 28.77 22.2247 29.304 21.5467 29.694C20.8687 30.078 20.0887 30.27 19.2067 30.27ZM19.2067 28.47C19.6867 28.47 20.1217 28.356 20.5117 28.128C20.9077 27.894 21.2227 27.582 21.4567 27.192C21.6907 26.796 21.8077 26.355 21.8077 25.869V21.153C21.8077 20.673 21.6907 20.238 21.4567 19.848C21.2227 19.452 20.9077 19.14 20.5117 18.912C20.1217 18.678 19.6867 18.561 19.2067 18.561C18.7267 18.561 18.2887 18.678 17.8927 18.912C17.5027 19.14 17.1907 19.452 16.9567 19.848C16.7227 20.238 16.6057 20.673 16.6057 21.153V25.869C16.6057 26.355 16.7227 26.796 16.9567 27.192C17.1907 27.582 17.5027 27.894 17.8927 28.128C18.2887 28.356 18.7267 28.47 19.2067 28.47ZM28.4965 30V19.11L26.0575 20.595V18.498L28.4965 17.04H30.4135V30H28.4965Z" fill="white"/>
</svg>
