<svg width="46" height="46" viewBox="0 0 46 46" fill="none" xmlns="http://www.w3.org/2000/svg">
<circle cx="23" cy="23" r="22.5" stroke="#D94540" stroke-opacity="0.3"/>
<circle cx="23" cy="23" r="20" fill="#D94540"/>
<path d="M17.2214 30.27C16.3394 30.27 15.5594 30.078 14.8814 29.694C14.2034 29.304 13.6694 28.77 13.2794 28.092C12.8954 27.414 12.7034 26.634 12.7034 25.752V21.288C12.7034 20.406 12.8954 19.626 13.2794 18.948C13.6694 18.27 14.2034 17.739 14.8814 17.355C15.5594 16.965 16.3394 16.77 17.2214 16.77C18.1034 16.77 18.8834 16.965 19.5614 17.355C20.2394 17.739 20.7704 18.27 21.1544 18.948C21.5444 19.626 21.7394 20.406 21.7394 21.288V25.752C21.7394 26.634 21.5444 27.414 21.1544 28.092C20.7704 28.77 20.2394 29.304 19.5614 29.694C18.8834 30.078 18.1034 30.27 17.2214 30.27ZM17.2214 28.47C17.7014 28.47 18.1364 28.356 18.5264 28.128C18.9224 27.894 19.2374 27.582 19.4714 27.192C19.7054 26.796 19.8224 26.355 19.8224 25.869V21.153C19.8224 20.673 19.7054 20.238 19.4714 19.848C19.2374 19.452 18.9224 19.14 18.5264 18.912C18.1364 18.678 17.7014 18.561 17.2214 18.561C16.7414 18.561 16.3034 18.678 15.9074 18.912C15.5174 19.14 15.2054 19.452 14.9714 19.848C14.7374 20.238 14.6204 20.673 14.6204 21.153V25.869C14.6204 26.355 14.7374 26.796 14.9714 27.192C15.2054 27.582 15.5174 27.894 15.9074 28.128C16.3034 28.356 16.7414 28.47 17.2214 28.47ZM23.8922 29.991L23.9012 28.317L29.5442 23.259C30.0002 22.857 30.3092 22.473 30.4712 22.107C30.6392 21.741 30.7232 21.375 30.7232 21.009C30.7232 20.547 30.6212 20.133 30.4172 19.767C30.2132 19.395 29.9312 19.101 29.5712 18.885C29.2112 18.669 28.7972 18.561 28.3292 18.561C27.8492 18.561 27.4202 18.675 27.0422 18.903C26.6702 19.125 26.3792 19.422 26.1692 19.794C25.9592 20.166 25.8572 20.568 25.8632 21H23.9372C23.9372 20.16 24.1262 19.425 24.5042 18.795C24.8882 18.159 25.4132 17.664 26.0792 17.31C26.7452 16.95 27.5072 16.77 28.3652 16.77C29.1812 16.77 29.9132 16.956 30.5612 17.328C31.2092 17.694 31.7192 18.198 32.0912 18.84C32.4692 19.482 32.6582 20.214 32.6582 21.036C32.6582 21.63 32.5802 22.134 32.4242 22.548C32.2682 22.962 32.0342 23.346 31.7222 23.7C31.4102 24.054 31.0202 24.438 30.5522 24.852L26.1962 28.74L25.9892 28.2H32.6582V29.991H23.8922Z" fill="white"/>
</svg>
