<svg width="46" height="46" viewBox="0 0 46 46" fill="none" xmlns="http://www.w3.org/2000/svg">
<circle cx="23" cy="23" r="22.5" stroke="#D94540" stroke-opacity="0.3"/>
<circle cx="23" cy="23" r="20" fill="#D94540"/>
<path d="M17.8532 30.27C16.9712 30.27 16.1912 30.078 15.5132 29.694C14.8352 29.304 14.3012 28.77 13.9112 28.092C13.5272 27.414 13.3352 26.634 13.3352 25.752V21.288C13.3352 20.406 13.5272 19.626 13.9112 18.948C14.3012 18.27 14.8352 17.739 15.5132 17.355C16.1912 16.965 16.9712 16.77 17.8532 16.77C18.7352 16.77 19.5152 16.965 20.1932 17.355C20.8712 17.739 21.4022 18.27 21.7862 18.948C22.1762 19.626 22.3712 20.406 22.3712 21.288V25.752C22.3712 26.634 22.1762 27.414 21.7862 28.092C21.4022 28.77 20.8712 29.304 20.1932 29.694C19.5152 30.078 18.7352 30.27 17.8532 30.27ZM17.8532 28.47C18.3332 28.47 18.7682 28.356 19.1582 28.128C19.5542 27.894 19.8692 27.582 20.1032 27.192C20.3372 26.796 20.4542 26.355 20.4542 25.869V21.153C20.4542 20.673 20.3372 20.238 20.1032 19.848C19.8692 19.452 19.5542 19.14 19.1582 18.912C18.7682 18.678 18.3332 18.561 17.8532 18.561C17.3732 18.561 16.9352 18.678 16.5392 18.912C16.1492 19.14 15.8372 19.452 15.6032 19.848C15.3692 20.238 15.2522 20.673 15.2522 21.153V25.869C15.2522 26.355 15.3692 26.796 15.6032 27.192C15.8372 27.582 16.1492 27.894 16.5392 28.128C16.9352 28.356 17.3732 28.47 17.8532 28.47ZM28.511 30.243C27.869 30.243 27.266 30.123 26.702 29.883C26.138 29.637 25.649 29.289 25.235 28.839C24.827 28.389 24.53 27.858 24.344 27.246L26.162 26.742C26.336 27.3 26.639 27.729 27.071 28.029C27.503 28.323 27.983 28.467 28.511 28.461C28.985 28.455 29.402 28.344 29.762 28.128C30.122 27.912 30.404 27.621 30.608 27.255C30.812 26.883 30.914 26.457 30.914 25.977C30.914 25.257 30.689 24.663 30.239 24.195C29.795 23.727 29.213 23.493 28.493 23.493C28.289 23.493 28.079 23.523 27.863 23.583C27.653 23.643 27.455 23.721 27.269 23.817L26.387 22.332L30.959 18.291L31.157 18.831H24.857V17.04H32.651V18.831L28.853 22.485L28.835 21.873C29.651 21.873 30.359 22.056 30.959 22.422C31.559 22.782 32.021 23.274 32.345 23.898C32.675 24.516 32.84 25.209 32.84 25.977C32.84 26.805 32.645 27.54 32.255 28.182C31.871 28.824 31.352 29.328 30.698 29.694C30.05 30.06 29.321 30.243 28.511 30.243Z" fill="white"/>
</svg>
