<svg width="46" height="46" viewBox="0 0 46 46" fill="none" xmlns="http://www.w3.org/2000/svg">
<circle cx="23" cy="23" r="22.5" stroke="#D94540" stroke-opacity="0.3"/>
<circle cx="23" cy="23" r="20" fill="#D94540"/>
<path d="M17.0807 30.27C16.1987 30.27 15.4187 30.078 14.7407 29.694C14.0627 29.304 13.5287 28.77 13.1387 28.092C12.7547 27.414 12.5627 26.634 12.5627 25.752V21.288C12.5627 20.406 12.7547 19.626 13.1387 18.948C13.5287 18.27 14.0627 17.739 14.7407 17.355C15.4187 16.965 16.1987 16.77 17.0807 16.77C17.9627 16.77 18.7427 16.965 19.4207 17.355C20.0987 17.739 20.6297 18.27 21.0137 18.948C21.4037 19.626 21.5987 20.406 21.5987 21.288V25.752C21.5987 26.634 21.4037 27.414 21.0137 28.092C20.6297 28.77 20.0987 29.304 19.4207 29.694C18.7427 30.078 17.9627 30.27 17.0807 30.27ZM17.0807 28.47C17.5607 28.47 17.9957 28.356 18.3857 28.128C18.7817 27.894 19.0967 27.582 19.3307 27.192C19.5647 26.796 19.6817 26.355 19.6817 25.869V21.153C19.6817 20.673 19.5647 20.238 19.3307 19.848C19.0967 19.452 18.7817 19.14 18.3857 18.912C17.9957 18.678 17.5607 18.561 17.0807 18.561C16.6007 18.561 16.1627 18.678 15.7667 18.912C15.3767 19.14 15.0647 19.452 14.8307 19.848C14.5967 20.238 14.4797 20.673 14.4797 21.153V25.869C14.4797 26.355 14.5967 26.796 14.8307 27.192C15.0647 27.582 15.3767 27.894 15.7667 28.128C16.1627 28.356 16.6007 28.47 17.0807 28.47ZM29.6016 30V27.741H23.7516V25.959L27.9636 17.04H30.1146L25.9026 25.959H29.6016V22.449H31.5096V25.959H32.7966V27.741H31.5096V30H29.6016Z" fill="white"/>
</svg>
