<svg width="46" height="46" viewBox="0 0 46 46" fill="none" xmlns="http://www.w3.org/2000/svg">
<circle cx="23" cy="23" r="22.5" stroke="#D94540" stroke-opacity="0.3"/>
<circle cx="23" cy="23" r="20" fill="#D94540"/>
<path d="M17.2565 30.27C16.3745 30.27 15.5945 30.078 14.9165 29.694C14.2385 29.304 13.7045 28.77 13.3145 28.092C12.9305 27.414 12.7385 26.634 12.7385 25.752V21.288C12.7385 20.406 12.9305 19.626 13.3145 18.948C13.7045 18.27 14.2385 17.739 14.9165 17.355C15.5945 16.965 16.3745 16.77 17.2565 16.77C18.1385 16.77 18.9185 16.965 19.5965 17.355C20.2745 17.739 20.8055 18.27 21.1895 18.948C21.5795 19.626 21.7745 20.406 21.7745 21.288V25.752C21.7745 26.634 21.5795 27.414 21.1895 28.092C20.8055 28.77 20.2745 29.304 19.5965 29.694C18.9185 30.078 18.1385 30.27 17.2565 30.27ZM17.2565 28.47C17.7365 28.47 18.1715 28.356 18.5615 28.128C18.9575 27.894 19.2725 27.582 19.5065 27.192C19.7405 26.796 19.8575 26.355 19.8575 25.869V21.153C19.8575 20.673 19.7405 20.238 19.5065 19.848C19.2725 19.452 18.9575 19.14 18.5615 18.912C18.1715 18.678 17.7365 18.561 17.2565 18.561C16.7765 18.561 16.3385 18.678 15.9425 18.912C15.5525 19.14 15.2405 19.452 15.0065 19.848C14.7725 20.238 14.6555 20.673 14.6555 21.153V25.869C14.6555 26.355 14.7725 26.796 15.0065 27.192C15.2405 27.582 15.5525 27.894 15.9425 28.128C16.3385 28.356 16.7765 28.47 17.2565 28.47ZM28.1303 30.27C27.4643 30.27 26.8433 30.135 26.2673 29.865C25.6973 29.589 25.2083 29.211 24.8003 28.731C24.3923 28.245 24.1013 27.687 23.9273 27.057L25.7363 26.571C25.8383 26.955 26.0123 27.288 26.2583 27.57C26.5103 27.852 26.8043 28.071 27.1403 28.227C27.4763 28.377 27.8243 28.452 28.1843 28.452C28.6583 28.452 29.0873 28.338 29.4713 28.11C29.8613 27.882 30.1673 27.576 30.3893 27.192C30.6173 26.808 30.7313 26.385 30.7313 25.923C30.7313 25.449 30.6143 25.02 30.3803 24.636C30.1523 24.252 29.8433 23.949 29.4533 23.727C29.0693 23.499 28.6463 23.385 28.1843 23.385C27.6563 23.385 27.2093 23.49 26.8433 23.7C26.4773 23.91 26.1923 24.153 25.9883 24.429L24.3503 23.853L24.7463 17.04H31.7393V18.813H25.7093L26.4743 18.102L26.1593 23.205L25.7903 22.728C26.1323 22.386 26.5403 22.125 27.0143 21.945C27.4883 21.765 27.9593 21.675 28.4273 21.675C29.2313 21.675 29.9483 21.861 30.5783 22.233C31.2143 22.605 31.7153 23.112 32.0813 23.754C32.4473 24.39 32.6303 25.113 32.6303 25.923C32.6303 26.727 32.4233 27.459 32.0093 28.119C31.5953 28.773 31.0463 29.295 30.3623 29.685C29.6783 30.075 28.9343 30.27 28.1303 30.27Z" fill="white"/>
</svg>
