<svg width="46" height="46" viewBox="0 0 46 46" fill="none" xmlns="http://www.w3.org/2000/svg">
<circle cx="23" cy="23" r="22.5" stroke="#D94540" stroke-opacity="0.3"/>
<circle cx="23" cy="23" r="20" fill="#D94540"/>
<path d="M16.9137 30.27C16.0317 30.27 15.2517 30.078 14.5737 29.694C13.8957 29.304 13.3617 28.77 12.9717 28.092C12.5877 27.414 12.3957 26.634 12.3957 25.752V21.288C12.3957 20.406 12.5877 19.626 12.9717 18.948C13.3617 18.27 13.8957 17.739 14.5737 17.355C15.2517 16.965 16.0317 16.77 16.9137 16.77C17.7957 16.77 18.5757 16.965 19.2537 17.355C19.9317 17.739 20.4627 18.27 20.8467 18.948C21.2367 19.626 21.4317 20.406 21.4317 21.288V25.752C21.4317 26.634 21.2367 27.414 20.8467 28.092C20.4627 28.77 19.9317 29.304 19.2537 29.694C18.5757 30.078 17.7957 30.27 16.9137 30.27ZM16.9137 28.47C17.3937 28.47 17.8287 28.356 18.2187 28.128C18.6147 27.894 18.9297 27.582 19.1637 27.192C19.3977 26.796 19.5147 26.355 19.5147 25.869V21.153C19.5147 20.673 19.3977 20.238 19.1637 19.848C18.9297 19.452 18.6147 19.14 18.2187 18.912C17.8287 18.678 17.3937 18.561 16.9137 18.561C16.4337 18.561 15.9957 18.678 15.5997 18.912C15.2097 19.14 14.8977 19.452 14.6637 19.848C14.4297 20.238 14.3127 20.673 14.3127 21.153V25.869C14.3127 26.355 14.4297 26.796 14.6637 27.192C14.8977 27.582 15.2097 27.894 15.5997 28.128C15.9957 28.356 16.4337 28.47 16.9137 28.47ZM28.3996 30.27C27.5596 30.27 26.8036 30.072 26.1316 29.676C25.4596 29.274 24.9256 28.725 24.5296 28.029C24.1396 27.333 23.9446 26.541 23.9446 25.653V21.522C23.9446 20.58 24.1396 19.752 24.5296 19.038C24.9256 18.324 25.4716 17.769 26.1676 17.373C26.8696 16.977 27.6766 16.779 28.5886 16.779C29.2726 16.779 29.9146 16.908 30.5146 17.166C31.1146 17.424 31.6336 17.808 32.0716 18.318L30.6946 19.605C30.4486 19.287 30.1396 19.035 29.7676 18.849C29.4016 18.657 29.0086 18.561 28.5886 18.561C28.0486 18.561 27.5746 18.69 27.1666 18.948C26.7586 19.2 26.4376 19.533 26.2036 19.947C25.9756 20.361 25.8616 20.805 25.8616 21.279V23.655L25.4926 23.241C25.8646 22.755 26.3266 22.371 26.8786 22.089C27.4306 21.807 28.0216 21.666 28.6516 21.666C29.4556 21.666 30.1726 21.855 30.8026 22.233C31.4386 22.605 31.9366 23.112 32.2966 23.754C32.6626 24.396 32.8456 25.119 32.8456 25.923C32.8456 26.733 32.6416 27.468 32.2336 28.128C31.8316 28.782 31.2916 29.304 30.6136 29.694C29.9416 30.078 29.2036 30.27 28.3996 30.27ZM28.3996 28.461C28.8676 28.461 29.2936 28.347 29.6776 28.119C30.0616 27.891 30.3676 27.585 30.5956 27.201C30.8236 26.817 30.9376 26.391 30.9376 25.923C30.9376 25.455 30.8236 25.029 30.5956 24.645C30.3736 24.261 30.0706 23.955 29.6866 23.727C29.3026 23.499 28.8766 23.385 28.4086 23.385C27.9406 23.385 27.5116 23.499 27.1216 23.727C26.7376 23.955 26.4316 24.261 26.2036 24.645C25.9756 25.029 25.8616 25.455 25.8616 25.923C25.8616 26.385 25.9756 26.808 26.2036 27.192C26.4316 27.576 26.7376 27.885 27.1216 28.119C27.5056 28.347 27.9316 28.461 28.3996 28.461Z" fill="white"/>
</svg>
