<svg width="20" height="24" viewBox="0 0 20 24" fill="none" xmlns="http://www.w3.org/2000/svg">
<path fill-rule="evenodd" clip-rule="evenodd" d="M7.64539 0.109439C7.23904 0.254258 7.0184 0.402646 6.7041 0.742436C6.31019 1.16825 6.20032 1.48557 6.16814 2.28962L6.14 2.99399H3.07H0V3.74532V4.49666H0.785256H1.57051L2.23224 13.1839C2.66314 18.8412 2.92769 21.9913 2.99064 22.2156C3.18039 22.8912 3.73647 23.5242 4.41186 23.8335L4.77564 24H10H15.2244L15.5881 23.8335C16.2638 23.524 16.8201 22.8906 17.009 22.2156C17.0713 21.9926 17.3387 18.8089 17.7674 13.1839L18.4295 4.49672L19.2147 4.49666H20V3.74532V2.99399H16.93H13.86L13.8341 2.28962C13.8118 1.68217 13.7843 1.53678 13.634 1.23299C13.4289 0.818446 12.946 0.354248 12.5166 0.159027C12.2235 0.0257902 12.1284 0.0197169 10.0962 0.00512853C8.15115 -0.00883373 7.95378 -0.000443829 7.64539 0.109439ZM12.0615 1.72274C12.2533 1.91019 12.268 1.95659 12.295 2.45842L12.3238 2.99399H10H7.67622L7.70487 2.46123C7.73064 1.98163 7.75148 1.91019 7.91404 1.74446C8.01333 1.64322 8.15551 1.54786 8.23 1.53259C8.30442 1.51731 9.15096 1.5088 10.111 1.51368L11.8567 1.52263L12.0615 1.72274ZM16.8166 4.76275C16.802 4.90914 16.5019 8.79973 16.1498 13.4086C15.431 22.8175 15.5157 22.1732 14.9671 22.4102C14.6957 22.5275 14.5181 22.5311 9.87968 22.5146C5.1075 22.4975 5.07218 22.4964 4.8925 22.3655C4.49244 22.0743 4.54673 22.5407 3.85135 13.4187C3.49692 8.76986 3.19487 4.86062 3.18013 4.73145L3.15321 4.49666H9.99821H16.8432L16.8166 4.76275ZM6.15385 13.5126V19.5233H6.92308H7.69231V13.5126V7.50199H6.92308H6.15385V13.5126ZM9.23077 13.5126V19.5233H10H10.7692V13.5126V7.50199H10H9.23077V13.5126ZM12.3077 13.5126V19.5233H13.0769H13.8462V13.5126V7.50199H13.0769H12.3077V13.5126Z" fill="black"/>
</svg>
