<svg width="25" height="25" viewBox="0 0 25 25" fill="none" xmlns="http://www.w3.org/2000/svg">
<path d="M7.2915 18.75C6.14567 18.75 5.21859 19.6875 5.21859 20.8333C5.21859 21.9792 6.14567 22.9167 7.2915 22.9167C8.43734 22.9167 9.37484 21.9792 9.37484 20.8333C9.37484 19.6875 8.43734 18.75 7.2915 18.75ZM1.0415 3.12499C1.0415 3.6979 1.51025 4.16665 2.08317 4.16665H3.12484L6.87484 12.0729L5.46859 14.6146C4.70817 16.0104 5.70817 17.7083 7.2915 17.7083H18.7498C19.3228 17.7083 19.7915 17.2396 19.7915 16.6667C19.7915 16.0937 19.3228 15.625 18.7498 15.625H7.2915L8.43734 13.5417H16.1978C16.979 13.5417 17.6665 13.1146 18.0207 12.4687L21.7498 5.70832C21.8376 5.55043 21.8827 5.37235 21.8805 5.19171C21.8783 5.01107 21.829 4.83412 21.7375 4.67838C21.6459 4.52264 21.5153 4.39351 21.3585 4.30375C21.2017 4.214 21.0242 4.16674 20.8436 4.16665H5.42692L4.729 2.67707C4.64559 2.49903 4.51303 2.34854 4.34693 2.24334C4.18083 2.13815 3.98811 2.08262 3.7915 2.08332H2.08317C1.51025 2.08332 1.0415 2.55207 1.0415 3.12499ZM17.7082 18.75C16.5623 18.75 15.6353 19.6875 15.6353 20.8333C15.6353 21.9792 16.5623 22.9167 17.7082 22.9167C18.854 22.9167 19.7915 21.9792 19.7915 20.8333C19.7915 19.6875 18.854 18.75 17.7082 18.75Z" fill="black"/>
</svg>
