<svg width="55" height="55" viewBox="0 0 55 55" fill="none" xmlns="http://www.w3.org/2000/svg">
<path d="M17.5364 13.2611V0.737305L3.13281 15.1418H15.6556C17.0092 15.1418 17.5364 14.6147 17.5364 13.2611Z" fill="#D94540"/>
<path d="M52.137 19.3611L48.813 16.037C48.234 15.4579 47.2964 15.4589 46.7174 16.037L44.5625 18.1919L49.9831 23.6117L52.1371 21.4558C52.7152 20.8768 52.7161 19.9392 52.137 19.3611Z" fill="#D94540"/>
<path d="M20.6891 49.1225C20.2296 49.2392 19.7432 49.1059 19.4078 48.7705C19.0724 48.4351 18.9382 47.9478 19.0549 47.4882L22.1724 35.2164L39.195 18.1919L40.5597 16.8282L43.5772 13.8097L44.0338 13.3539C44.1933 13.1945 44.3738 13.0667 44.549 12.9306V2.43665C44.549 1.09323 43.4549 0 42.1106 0H20.3213V14.9372C20.3213 16.5854 18.9807 17.927 17.3335 17.927H2.42871V52.5615C2.42871 53.9058 3.5228 55 4.86719 55H42.1107C43.4549 55 44.5491 53.9059 44.5491 52.5615V34.4104L32.96 46.0014L20.6891 49.1225Z" fill="#D94540"/>
<path d="M25.5935 37.1621L23.7471 44.4292L31.0133 42.5809L48.9958 24.5965L43.577 19.1768L25.5935 37.1621ZM28.9918 38.3932L27.7606 37.162L43.4288 21.4936L44.661 22.7259L28.9918 38.3932Z" fill="#D94540"/>
</svg>
