<svg width="55" height="55" viewBox="0 0 55 55" fill="none" xmlns="http://www.w3.org/2000/svg">
<path d="M17.5369 13.2613V0.737549L3.1333 15.1421H15.6561C17.0097 15.1421 17.5369 14.615 17.5369 13.2613Z" fill="#D94540"/>
<path d="M52.137 19.3611L48.813 16.037C48.234 15.4579 47.2964 15.4589 46.7174 16.037L44.5625 18.1919L49.9831 23.6117L52.1371 21.4558C52.7152 20.8768 52.7161 19.9392 52.137 19.3611Z" fill="#D94540"/>
<path d="M20.6896 49.1225C20.2301 49.2392 19.7437 49.1059 19.4083 48.7705C19.0729 48.4351 18.9387 47.9478 19.0554 47.4882L22.1729 35.2164L39.1955 18.1919L40.5602 16.8282L43.5777 13.8097L44.0343 13.3539C44.1937 13.1945 44.3743 13.0667 44.5495 12.9306V2.43665C44.5495 1.09323 43.4554 0 42.1111 0H20.3218V14.9372C20.3218 16.5854 18.9812 17.927 17.334 17.927H2.4292V52.5615C2.4292 53.9058 3.52329 55 4.86768 55H42.1112C43.4554 55 44.5496 53.9059 44.5496 52.5615V34.4104L32.9605 46.0014L20.6896 49.1225Z" fill="#D94540"/>
<path d="M25.5945 37.1621L23.748 44.4292L31.0143 42.5809L48.9968 24.5965L43.578 19.1768L25.5945 37.1621ZM28.9928 38.3932L27.7615 37.162L43.4298 21.4936L44.662 22.7259L28.9928 38.3932Z" fill="#D94540"/>
</svg>
