<svg width="65" height="65" viewBox="0 0 65 65" fill="none" xmlns="http://www.w3.org/2000/svg">
<path d="M63.9844 40.8789H62.7148V35.293C62.7148 33.4141 61.3133 31.9922 59.4141 31.9922H53.3203C53.1934 31.9922 53.041 31.9236 52.9547 31.8398L43.4586 22.5951C43.032 22.1686 42.5141 21.8563 41.8945 21.8359H35.0391V45.1953H45.1953C45.4289 45.1953 45.66 44.9008 45.7031 44.6875C46.343 41.016 49.4686 38.2307 53.3305 38.2307C57.1949 38.2307 60.3941 41.0262 61.034 44.6977C61.0772 44.9338 61.4656 45.1953 61.6992 45.1953H62.207C63.4232 45.1953 64.4922 44.101 64.4922 42.9051V41.3258C64.4922 41.0922 64.2408 40.8789 63.9844 40.8789ZM48.4961 31.9922H38.0859C37.8295 31.9922 37.5781 31.7408 37.5781 31.4844V24.8828C37.5781 24.6264 37.8295 24.375 38.0859 24.375H41.3867C41.5137 24.375 41.7727 24.5146 41.8793 24.601L48.75 31.2305C49.0064 31.5504 48.9023 31.9922 48.4961 31.9922ZM0.507812 12.6953V43.0219C0.507812 44.1594 1.40156 45.1953 2.53906 45.1953H8.125C8.35859 45.1953 8.58965 44.9008 8.63281 44.6875C9.27266 41.016 12.5252 38.482 16.3871 38.482C20.249 38.482 23.4508 41.0262 24.0906 44.6977C24.1338 44.9338 24.3953 45.1953 24.6289 45.1953H33.0078V12.6953H0.507812ZM16.6689 33.9854C11.9184 33.9854 8.06152 30.1285 8.06152 25.3779C8.06152 20.602 11.893 16.7197 16.6689 16.7197C21.4449 16.7197 25.3018 20.5766 25.3018 25.3525C25.3018 30.1285 21.4195 33.9854 16.6689 33.9854ZM53.3305 40.2391C50.0881 40.2391 47.4627 42.8619 47.4627 46.1068C47.4627 49.3492 50.0881 51.9746 53.3305 51.9746C56.5754 51.9746 59.2008 49.3492 59.2008 46.1068C59.2008 42.8619 56.5754 40.2391 53.3305 40.2391ZM53.3305 48.3539C52.099 48.3539 51.0834 47.3383 51.0834 46.1068C51.0834 44.8754 52.099 43.8598 53.3305 43.8598C54.5645 43.8598 55.5801 44.8754 55.5801 46.1068C55.5801 47.3383 54.5645 48.3539 53.3305 48.3539ZM16.3871 40.4879C13.1422 40.4879 10.5193 43.1133 10.5193 46.3557C10.5193 49.6006 13.1422 52.226 16.3871 52.226C19.6295 52.226 22.2549 49.6006 22.2549 46.3557C22.2549 43.1133 19.6295 40.4879 16.3871 40.4879ZM16.3871 48.6053C15.1557 48.6053 14.14 47.5896 14.14 46.3557C14.14 45.1242 15.1557 44.1086 16.3871 44.1086C17.6186 44.1086 18.6342 45.1242 18.6342 46.3557C18.6342 47.5896 17.6186 48.6053 16.3871 48.6053Z" fill="#D94540"/>
<path d="M11.5001 22.6876C11.3675 22.6876 11.2403 22.737 11.1465 22.8249C11.0528 22.9128 11.0001 23.032 11.0001 23.1563V26.9063C10.9901 27.5401 12.0101 27.5401 12.0001 26.9063V25.5001H12.5001C13.1761 25.5094 13.1761 24.5532 12.5001 24.5626H12.0001V23.6251H12.5001C13.1761 23.6344 13.1761 22.6782 12.5001 22.6876H11.5001ZM14.5001 22.6876C14.3675 22.6876 14.2403 22.737 14.1465 22.8249C14.0528 22.9128 14.0001 23.032 14.0001 23.1563V26.9063C13.9901 27.5401 15.0101 27.5401 15.0001 26.9063V25.5001H15.0701L16.0661 27.1388C16.3851 27.7201 17.3071 27.226 16.9341 26.6738L16.1301 25.3501C16.2821 25.2751 16.4221 25.1813 16.5401 25.0698C16.8071 24.8204 17.0001 24.4848 17.0001 24.0938C17.0001 23.7029 16.8071 23.3673 16.5411 23.1179C16.2751 22.8685 15.9171 22.6876 15.5001 22.6876H14.5001ZM18.5001 22.6876C18.3675 22.6876 18.2403 22.737 18.1465 22.8249C18.0528 22.9128 18.0001 23.032 18.0001 23.1563V26.9063C18.0001 27.0306 18.0528 27.1499 18.1465 27.2378C18.2403 27.3257 18.3675 27.3751 18.5001 27.3751H19.5001C20.1761 27.3844 20.1761 26.4282 19.5001 26.4376H19.0001V25.5001H19.5001C20.1761 25.5094 20.1761 24.5532 19.5001 24.5626H19.0001V23.6251H19.5001C20.1761 23.6344 20.1761 22.6782 19.5001 22.6876H18.5001ZM21.5001 22.6876C21.3675 22.6876 21.2403 22.737 21.1465 22.8249C21.0528 22.9128 21.0001 23.032 21.0001 23.1563V26.9063C21.0001 27.0306 21.0528 27.1499 21.1465 27.2378C21.2403 27.3257 21.3675 27.3751 21.5001 27.3751H22.5001C23.1761 27.3844 23.1761 26.4282 22.5001 26.4376H22.0001V25.5001H22.5001C23.1761 25.5094 23.1761 24.5532 22.5001 24.5626H22.0001V23.6251H22.5001C23.1761 23.6344 23.1761 22.6782 22.5001 22.6876H21.5001ZM15.0001 23.6251H15.5001C15.7931 23.6251 16.0001 23.8266 16.0001 24.0938C16.0001 24.361 15.8001 24.5626 15.5001 24.5626H15.0001V23.6251Z" fill="#D94540"/>
</svg>
