<svg width="28" height="28" viewBox="0 0 28 28" fill="none" xmlns="http://www.w3.org/2000/svg">
<path d="M23.4333 4.63105C22.2383 3.43605 20.5508 3.24805 18.5583 3.24805H9.41782C7.44932 3.24805 5.76182 3.43555 4.56632 4.63105C3.37082 5.82655 3.19482 7.50205 3.19482 9.45905V18.506C3.19482 20.51 3.37032 22.174 4.56582 23.369C5.76132 24.564 7.44882 24.752 9.45232 24.752H18.5578C20.5503 24.752 22.2378 24.5645 23.4328 23.369C24.6283 22.174 24.8038 20.51 24.8038 18.506V9.49405C24.8038 7.49005 24.6288 5.81405 23.4333 4.63105ZM22.9173 9.16605V18.8225C22.9173 20.041 22.7648 21.283 22.0623 21.998C21.3473 22.701 20.0813 22.865 18.8743 22.865H9.12432C7.91733 22.865 6.65182 22.701 5.94882 21.998C5.23382 21.283 5.08132 20.041 5.08132 18.822V9.20155C5.08132 7.97155 5.23382 6.70555 5.93682 6.00255C6.65182 5.28755 7.92882 5.13555 9.15932 5.13555H18.8743C20.0813 5.13555 21.3468 5.29955 22.0618 6.00255C22.7648 6.71755 22.9173 7.95905 22.9173 9.16605ZM13.9998 20.252C14.4688 20.252 14.8438 19.8885 14.8438 19.42V14.838H19.4258C19.8943 14.838 20.2693 14.4395 20.2693 14.006C20.2693 13.549 19.8943 13.162 19.4258 13.162H14.8438V8.56855C14.8438 8.09955 14.4688 7.73655 13.9998 7.73655C13.8901 7.73493 13.7812 7.75534 13.6795 7.79658C13.5779 7.83782 13.4855 7.89905 13.4079 7.97663C13.3303 8.05421 13.2691 8.14658 13.2279 8.24825C13.1866 8.34992 13.1662 8.45884 13.1678 8.56855V13.162H8.58582C8.11683 13.162 7.74182 13.549 7.74182 14.006C7.74182 14.4395 8.11683 14.838 8.58582 14.838H13.1678V19.42C13.1678 19.8885 13.5313 20.252 13.9998 20.252Z" fill="white"/>
</svg>
