<svg width="60" height="60" viewBox="0 0 60 60" fill="none" xmlns="http://www.w3.org/2000/svg">
<g clip-path="url(#clip0_163_2631)">
<path d="M60 30C60 13.4315 46.5685 0 30 0C13.4315 0 0 13.4315 0 30C0 46.5685 13.4315 60 30 60C46.5685 60 60 46.5685 60 30Z" fill="#EB5757"/>
<path d="M36.9528 42H32.757V21.2486H30.888C27.462 21.2486 25.6673 22.9618 25.6673 25.5189C25.6673 28.4201 26.9051 29.7642 29.4658 31.4772L31.5761 32.8994L25.5113 41.9965H21L26.4582 33.8748C23.3195 31.6332 21.5532 29.445 21.5532 25.7529C21.5532 21.1387 24.7701 18 30.8596 18H36.9244V41.9929H36.9528V42Z" fill="white"/>
</g>
<defs>
<clipPath id="clip0_163_2631">
<rect width="60" height="60" fill="white"/>
</clipPath>
</defs>
</svg>
