<svg width="60" height="60" viewBox="0 0 60 60" fill="none" xmlns="http://www.w3.org/2000/svg">
<path d="M35 7.66016C39.28 7.66016 42.76 11.1402 42.76 15.4202C42.76 19.7002 39.28 23.1802 35 23.1802C30.72 23.1802 27.24 19.7002 27.24 15.4202C27.24 11.1402 30.72 7.66016 35 7.66016ZM36.18 52.5602L58.06 52.5802C56.48 45.0602 51.68 30.5002 48.98 26.3802C47 23.3602 43.92 22.0802 40.64 23.0602C38.74 23.6202 37.46 24.7402 36.36 26.4802C35.58 27.7402 33.8 31.8002 33.8 31.8002H24.4C23.88 31.8002 23.38 31.9002 22.94 32.1002L24.08 29.7402C24.36 29.1402 24.12 28.4202 23.52 28.1402C22.92 27.8602 22.2 28.1002 21.92 28.7002L17.96 36.8602L16.52 35.3002C16.22 34.9802 15.82 34.8002 15.38 34.8002C15.38 34.8002 3.36 34.8002 3.32 34.8002C2.58 34.8002 2 35.4002 2 36.1202C2 36.6002 2.26 36.9202 2.42 37.1202C3.98 38.8802 7.66 42.8602 9.98 45.3802C8.5 45.8402 7.38 47.1602 7.38 48.8002C7.38 51.0402 9.12 52.5802 11.18 52.5802H33.96L41.26 37.3202C41.5 36.8202 42.1 36.6002 42.6 36.8402C43.1 37.0802 43.32 37.6802 43.08 38.1802L36.18 52.5602ZM13.1 45.2002L5.76 37.2002H14.78C14.92 37.2002 15.06 37.2602 15.14 37.3602L16.82 39.2002L15.48 41.9602C15.2 42.5602 15.44 43.2802 16.04 43.5602C16.64 43.8402 17.36 43.6002 17.64 43.0002L18.56 41.1202L22.34 45.2202H13.1V45.2002ZM27.4 45.2002H25.6L19.7 38.7602L20.76 36.5802C21.24 38.1002 22.72 39.2002 24.4 39.2002H30.2L27.4 45.2002Z" fill="#D94540"/>
</svg>
