<svg width="60" height="60" viewBox="0 0 60 60" fill="none" xmlns="http://www.w3.org/2000/svg">
<path d="M35 7.65991C39.28 7.65991 42.76 11.1399 42.76 15.4199C42.76 19.6999 39.28 23.1799 35 23.1799C30.72 23.1799 27.24 19.6999 27.24 15.4199C27.24 11.1399 30.72 7.65991 35 7.65991ZM36.18 52.5599L58.06 52.5799C56.48 45.0599 51.68 30.4999 48.98 26.3799C47 23.3599 43.92 22.0799 40.64 23.0599C38.74 23.6199 37.46 24.7399 36.36 26.4799C35.58 27.7399 33.8 31.7999 33.8 31.7999H24.4C23.88 31.7999 23.38 31.8999 22.94 32.0999L24.08 29.7399C24.36 29.1399 24.12 28.4199 23.52 28.1399C22.92 27.8599 22.2 28.0999 21.92 28.6999L17.96 36.8599L16.52 35.2999C16.22 34.9799 15.82 34.7999 15.38 34.7999C15.38 34.7999 3.36 34.7999 3.32 34.7999C2.58 34.7999 2 35.3999 2 36.1199C2 36.5999 2.26 36.9199 2.42 37.1199C3.98 38.8799 7.66 42.8599 9.98 45.3799C8.5 45.8399 7.38 47.1599 7.38 48.7999C7.38 51.0399 9.12 52.5799 11.18 52.5799H33.96L41.26 37.3199C41.5 36.8199 42.1 36.5999 42.6 36.8399C43.1 37.0799 43.32 37.6799 43.08 38.1799L36.18 52.5599ZM13.1 45.1999L5.76 37.1999H14.78C14.92 37.1999 15.06 37.2599 15.14 37.3599L16.82 39.1999L15.48 41.9599C15.2 42.5599 15.44 43.2799 16.04 43.5599C16.64 43.8399 17.36 43.5999 17.64 42.9999L18.56 41.1199L22.34 45.2199H13.1V45.1999ZM27.4 45.1999H25.6L19.7 38.7599L20.76 36.5799C21.24 38.0999 22.72 39.1999 24.4 39.1999H30.2L27.4 45.1999Z" fill="#D94540"/>
</svg>
