<svg width="24" height="24" viewBox="0 0 24 24" fill="none" xmlns="http://www.w3.org/2000/svg">
<path fill-rule="evenodd" clip-rule="evenodd" d="M1.87501 11.9998C1.87501 12.2981 1.99354 12.5843 2.20452 12.7953C2.4155 13.0062 2.70164 13.1248 3.00001 13.1248H18.285L14.205 17.2048C14.0945 17.3078 14.0058 17.432 13.9443 17.57C13.8829 17.708 13.8498 17.8569 13.8471 18.008C13.8445 18.159 13.8722 18.3091 13.9288 18.4492C13.9854 18.5892 14.0696 18.7165 14.1765 18.8233C14.2833 18.9302 14.4105 19.0144 14.5506 19.071C14.6907 19.1275 14.8407 19.1553 14.9918 19.1527C15.1429 19.15 15.2918 19.1169 15.4298 19.0554C15.5678 18.994 15.692 18.9053 15.795 18.7948L21.795 12.7948C22.0057 12.5838 22.124 12.2979 22.124 11.9998C22.124 11.7016 22.0057 11.4157 21.795 11.2048L15.795 5.20477C15.5818 5.00605 15.2997 4.89786 15.0082 4.90301C14.7168 4.90815 14.4387 5.02622 14.2326 5.23234C14.0265 5.43846 13.9084 5.71653 13.9033 6.00799C13.8981 6.29944 14.0063 6.58151 14.205 6.79477L18.285 10.8748H3.00001C2.70164 10.8748 2.4155 10.9933 2.20452 11.2043C1.99354 11.4153 1.87501 11.7014 1.87501 11.9998Z" fill="#D94540"/>
</svg>
