<svg width="24" height="24" viewBox="0 0 24 24" fill="none" xmlns="http://www.w3.org/2000/svg">
<path fill-rule="evenodd" clip-rule="evenodd" d="M22.125 11.9998C22.125 12.2981 22.0065 12.5843 21.7955 12.7953C21.5845 13.0062 21.2984 13.1248 21 13.1248H5.71499L9.79499 17.2048C9.90552 17.3078 9.99417 17.432 10.0557 17.57C10.1171 17.708 10.1502 17.8569 10.1529 18.008C10.1555 18.159 10.1278 18.3091 10.0712 18.4492C10.0146 18.5892 9.93037 18.7165 9.82354 18.8233C9.71672 18.9302 9.58947 19.0144 9.44938 19.071C9.3093 19.1275 9.15926 19.1553 9.0082 19.1527C8.85715 19.15 8.70818 19.1169 8.57018 19.0554C8.43218 18.994 8.30798 18.9053 8.20499 18.7948L2.20499 12.7948C1.99431 12.5838 1.87598 12.2979 1.87598 11.9998C1.87598 11.7016 1.99431 11.4157 2.20499 11.2048L8.20499 5.20477C8.41825 5.00605 8.70032 4.89786 8.99177 4.90301C9.28322 4.90815 9.5613 5.02622 9.76742 5.23234C9.97354 5.43846 10.0916 5.71653 10.0967 6.00799C10.1019 6.29944 9.99371 6.58151 9.79499 6.79477L5.71499 10.8748H21C21.2984 10.8748 21.5845 10.9933 21.7955 11.2043C22.0065 11.4153 22.125 11.7014 22.125 11.9998Z" fill="#D94540" fill-opacity="0.6"/>
</svg>
