<svg width="10" height="12" viewBox="0 0 10 12" fill="none" xmlns="http://www.w3.org/2000/svg">
<path fill-rule="evenodd" clip-rule="evenodd" d="M4.95095 0C6.26402 0 7.52332 0.521615 8.4518 1.4501C9.38028 2.37858 9.9019 3.63787 9.9019 4.95094C9.9019 6.64196 8.97992 8.02602 8.00844 9.01896C7.52306 9.50968 6.99345 9.95459 6.42633 10.348L6.19199 10.5075L6.08197 10.5807L5.87458 10.7127L5.68974 10.8255L5.4609 10.9586C5.30557 11.0473 5.1298 11.0939 4.95095 11.0939C4.7721 11.0939 4.59633 11.0473 4.441 10.9586L4.21216 10.8255L3.9261 10.6495L3.82048 10.5807L3.59494 10.4305C2.98313 10.0166 2.41326 9.54381 1.89346 9.01896C0.921977 8.02547 0 6.64196 0 4.95094C0 3.63787 0.521616 2.37858 1.4501 1.4501C2.37858 0.521615 3.63788 0 4.95095 0ZM4.95095 1.10021C3.92967 1.10021 2.95022 1.50591 2.22807 2.22806C1.50591 2.95021 1.10021 3.92966 1.10021 4.95094C1.10021 6.22828 1.79994 7.34939 2.67956 8.24936C3.05778 8.63223 3.46658 8.98363 3.9019 9.30006L4.15385 9.47939C4.23526 9.53624 4.31356 9.58905 4.38874 9.63782L4.60328 9.77535L4.79197 9.89032L4.95095 9.98329L5.20125 9.83531L5.40314 9.70879C5.51059 9.64057 5.62556 9.56411 5.74805 9.47939L6 9.30006C6.43532 8.98363 6.84412 8.63223 7.22233 8.24936C8.10195 7.34994 8.80169 6.22828 8.80169 4.95094C8.80169 3.92966 8.39599 2.95021 7.67383 2.22806C6.95168 1.50591 5.97223 1.10021 4.95095 1.10021ZM4.95095 2.75052C5.53454 2.75052 6.09422 2.98235 6.50688 3.39501C6.91954 3.80767 7.15137 4.36735 7.15137 4.95094C7.15137 5.53452 6.91954 6.09421 6.50688 6.50687C6.09422 6.91952 5.53454 7.15135 4.95095 7.15135C4.36736 7.15135 3.80767 6.91952 3.39502 6.50687C2.98236 6.09421 2.75053 5.53452 2.75053 4.95094C2.75053 4.36735 2.98236 3.80767 3.39502 3.39501C3.80767 2.98235 4.36736 2.75052 4.95095 2.75052ZM4.95095 3.85073C4.65915 3.85073 4.37931 3.96664 4.17298 4.17297C3.96665 4.3793 3.85074 4.65914 3.85074 4.95094C3.85074 5.24273 3.96665 5.52257 4.17298 5.7289C4.37931 5.93523 4.65915 6.05114 4.95095 6.05114C5.24274 6.05114 5.52259 5.93523 5.72892 5.7289C5.93525 5.52257 6.05116 5.24273 6.05116 4.95094C6.05116 4.65914 5.93525 4.3793 5.72892 4.17297C5.52259 3.96664 5.24274 3.85073 4.95095 3.85073Z" fill="#343333"/>
</svg>
