<svg width="35" height="35" viewBox="0 0 35 35" fill="none" xmlns="http://www.w3.org/2000/svg">
<rect width="35" height="35" rx="10" fill="#0077FF"/>
<path d="M18.0841 24.8896C10.6435 24.8896 6.39949 19.6344 6.22266 10.8896H9.94977C10.0722 17.3081 12.8199 20.0268 14.9963 20.5873V10.8896H18.5058V16.4252C20.655 16.1869 22.9131 13.6644 23.6748 10.8896H27.1843C26.8972 12.3287 26.3251 13.6913 25.5035 14.8921C24.682 16.093 23.6288 17.1063 22.4098 17.8686C23.7705 18.5652 24.9723 19.5511 25.936 20.7614C26.8997 21.9716 27.6033 23.3787 28.0004 24.8896H24.1373C23.7808 23.5773 23.0563 22.4025 22.0545 21.5125C21.0527 20.6225 19.8183 20.0569 18.5058 19.8866V24.8896H18.0841Z" fill="white"/>
</svg>
