<svg width="11" height="11" viewBox="0 0 11 11" fill="none" xmlns="http://www.w3.org/2000/svg">
<path d="M10.02 9.72L10.3903 10.056L10.3905 10.0558L10.02 9.72ZM9.2 10.31L9.01038 9.84734L9.00769 9.84846L9.2 10.31ZM4.875 9.145L4.58008 9.54876L4.5807 9.54921L4.875 9.145ZM3.235 7.745L2.87973 8.09686L2.88316 8.10026L3.235 7.745ZM1.84 6.11L1.43409 6.40197L1.43579 6.4043L1.84 6.11ZM0.86 4.405L0.39918 4.59903L0.399798 4.60048L0.86 4.405ZM0.68 1.805L1.14425 1.9907L1.14528 1.98806L0.68 1.805ZM1.255 0.97L1.59819 1.33378L1.60576 1.32633L1.255 0.97ZM2.7 0.59L2.48361 1.04081L2.49047 1.04398L2.7 0.59ZM3.035 0.87L2.62388 1.15462L2.62721 1.15932L3.035 0.87ZM4.195 2.505L3.7872 2.79433L3.78923 2.79715L4.195 2.505ZM4.395 2.855L3.93216 3.04434L3.93543 3.05196L4.395 2.855ZM4.36 3.515L3.9329 3.25503L3.9287 3.26193L3.92472 3.26897L4.36 3.515ZM4.08 3.87L3.72638 3.51638L3.71967 3.52335L4.08 3.87ZM3.7 4.265L4.05362 4.61862L4.06033 4.61165L3.7 4.265ZM3.635 4.58L3.14993 4.70127L3.15684 4.7289L3.16684 4.75556L3.635 4.58ZM3.675 4.68L3.20066 4.83811L3.21474 4.88035L3.23605 4.91943L3.675 4.68ZM4.14 5.32L3.75828 5.64299L3.76192 5.64719L4.14 5.32ZM4.865 6.11L4.50803 6.46023L4.51477 6.46684L4.865 6.11ZM5.66 6.845L5.33638 7.22615L5.33703 7.22669L5.66 6.845ZM6.305 7.305L6.07106 7.74689L6.09458 7.75935L6.1193 7.76924L6.305 7.305ZM6.395 7.345L6.19804 7.80457L6.20864 7.80911L6.21944 7.81316L6.395 7.345ZM6.725 7.28L6.37379 6.9241L6.37145 6.92645L6.725 7.28ZM7.105 6.905L7.45621 7.26089L7.45855 7.25855L7.105 6.905ZM7.465 6.625L7.69628 7.06829L7.7109 7.06067L7.72497 7.0521L7.465 6.625ZM8.475 6.78L8.76451 6.37222L8.75616 6.36654L8.475 6.78ZM10.13 7.955L9.84053 8.36273L9.84539 8.3661L10.13 7.955ZM10.405 8.275L10.8692 8.0893L10.8661 8.08141L10.8627 8.07363L10.405 8.275ZM8.25 4C8.25 4.27614 8.47386 4.5 8.75 4.5C9.02614 4.5 9.25 4.27614 9.25 4H8.75H8.25ZM8.165 2.865L7.79841 3.20502L7.79947 3.20616L8.165 2.865ZM7 1.75C6.72386 1.75 6.5 1.97386 6.5 2.25C6.5 2.52614 6.72386 2.75 7 2.75V2.25V1.75ZM10 4C10 4.27614 10.2239 4.5 10.5 4.5C10.7761 4.5 11 4.27614 11 4H10.5H10ZM7 0C6.72386 0 6.5 0.223858 6.5 0.5C6.5 0.776142 6.72386 1 7 1V0.5V0ZM10.485 8.665H9.985C9.985 8.77001 9.96185 8.8822 9.90788 8.9965L10.36 9.21L10.8121 9.4235C10.9282 9.1778 10.985 8.91999 10.985 8.665H10.485ZM10.36 9.21L9.90788 8.9965C9.84271 9.13449 9.75958 9.26278 9.64951 9.38424L10.02 9.72L10.3905 10.0558C10.5704 9.85722 10.7073 9.64551 10.8121 9.4235L10.36 9.21ZM10.02 9.72L9.64972 9.38401C9.44876 9.60548 9.23867 9.75379 9.01039 9.84735L9.2 10.31L9.38961 10.7727C9.77133 10.6162 10.1012 10.3745 10.3903 10.056L10.02 9.72ZM9.2 10.31L9.00769 9.84846C8.77093 9.94711 8.51153 10 8.225 10V10.5V11C8.63847 11 9.02907 10.9229 9.39231 10.7715L9.2 10.31ZM8.225 10.5V10C7.79407 10 7.31579 9.89862 6.79099 9.67501L6.595 10.135L6.39901 10.595C7.02421 10.8614 7.63593 11 8.225 11V10.5ZM6.595 10.135L6.79099 9.67501C6.25431 9.44634 5.71203 9.13593 5.1693 8.74079L4.875 9.145L4.5807 9.54921C5.17797 9.98407 5.78569 10.3337 6.39901 10.595L6.595 10.135ZM4.875 9.145L5.16992 8.74124C4.61553 8.33629 4.0895 7.88757 3.58684 7.38974L3.235 7.745L2.88316 8.10026C3.4205 8.63243 3.98447 9.11371 4.58008 9.54876L4.875 9.145ZM3.235 7.745L3.59026 7.39316C3.09233 6.8904 2.64382 6.36456 2.24421 5.8157L1.84 6.11L1.43579 6.4043C1.86618 6.99544 2.34767 7.5596 2.87974 8.09684L3.235 7.745ZM1.84 6.11L2.2459 5.81804C1.8535 5.2725 1.54326 4.73464 1.3202 4.20952L0.86 4.405L0.399798 4.60048C0.656735 5.20536 1.0065 5.8075 1.4341 6.40196L1.84 6.11ZM0.86 4.405L1.32082 4.21097C1.10187 3.69097 1 3.212 1 2.77H0.5H0C0 3.368 0.13813 3.97903 0.399182 4.59903L0.86 4.405ZM0.5 2.77H1C1 2.48926 1.04943 2.22772 1.14424 1.9907L0.68 1.805L0.215762 1.6193C0.0705726 1.98228 0 2.37074 0 2.77H0.5ZM0.68 1.805L1.14528 1.98806C1.2367 1.7557 1.38327 1.53637 1.59811 1.3337L1.255 0.97L0.91189 0.606303C0.596728 0.903625 0.363295 1.2443 0.214717 1.62194L0.68 1.805ZM1.255 0.97L1.60576 1.32633C1.85029 1.08562 2.07958 1 2.295 1V0.5V0C1.77042 0 1.29971 0.224383 0.904241 0.613674L1.255 0.97ZM2.295 0.5V1C2.36498 1 2.43043 1.01522 2.48363 1.04076L2.7 0.59L2.91637 0.139239C2.71957 0.0447782 2.50502 0 2.295 0V0.5ZM2.7 0.59L2.49047 1.04398C2.54619 1.0697 2.58888 1.10401 2.6239 1.1546L3.035 0.87L3.4461 0.585395C3.30112 0.375991 3.11381 0.230303 2.90953 0.13602L2.7 0.59ZM3.035 0.87L2.62721 1.15932L3.78721 2.79432L4.195 2.505L4.60279 2.21568L3.44279 0.58068L3.035 0.87ZM4.195 2.505L3.78923 2.79715C3.86112 2.89699 3.90497 2.97769 3.93223 3.04432L4.395 2.855L4.85777 2.66568C4.79503 2.51231 4.70888 2.36301 4.60077 2.21285L4.195 2.505ZM4.395 2.855L3.93543 3.05196C3.96094 3.11148 3.965 3.14884 3.965 3.16H4.465H4.965C4.965 2.98116 4.91906 2.80852 4.85457 2.65804L4.395 2.855ZM4.465 3.16H3.965C3.965 3.17935 3.96009 3.21035 3.9329 3.25503L4.36 3.515L4.7871 3.77497C4.89991 3.58965 4.965 3.38065 4.965 3.16H4.465ZM4.36 3.515L3.92472 3.26897C3.88764 3.33457 3.82379 3.4191 3.72645 3.51645L4.08 3.87L4.43355 4.22355C4.57621 4.0809 4.70236 3.92543 4.79528 3.76103L4.36 3.515ZM4.08 3.87L3.71967 3.52335L3.33967 3.91835L3.7 4.265L4.06033 4.61165L4.44033 4.21665L4.08 3.87ZM3.7 4.265L3.34645 3.91145C3.18994 4.06795 3.12 4.26375 3.12 4.465H3.62H4.12C4.12 4.47789 4.11779 4.50554 4.10422 4.53981C4.09026 4.57503 4.07046 4.60165 4.05355 4.61855L3.7 4.265ZM3.62 4.465H3.12C3.12 4.55237 3.13172 4.62844 3.14993 4.70127L3.635 4.58L4.12007 4.45873C4.11869 4.45319 4.11893 4.45314 4.11936 4.45642C4.11985 4.4601 4.12 4.46343 4.12 4.465H3.62ZM3.635 4.58L3.16684 4.75556C3.17871 4.78723 3.19066 4.81501 3.19639 4.82857C3.20383 4.84614 3.20269 4.84422 3.20066 4.83811L3.675 4.68L4.14934 4.52189C4.13731 4.48578 4.12367 4.45386 4.11736 4.43893C4.10934 4.41999 4.10629 4.41277 4.10316 4.40444L3.635 4.58ZM3.675 4.68L3.23605 4.91943C3.34968 5.12774 3.52946 5.37252 3.75831 5.64297L4.14 5.32L4.52169 4.99703C4.31054 4.74748 4.18032 4.56226 4.11395 4.44057L3.675 4.68ZM4.14 5.32L3.76192 5.64719C3.992 5.91307 4.23915 6.18606 4.5081 6.46017L4.865 6.11L5.2219 5.75983C4.97085 5.50394 4.738 5.24693 4.51808 4.99281L4.14 5.32ZM4.865 6.11L4.51477 6.46684C4.78878 6.73579 5.05839 6.99011 5.33638 7.22615L5.66 6.845L5.98361 6.46385C5.73161 6.24989 5.48121 6.01421 5.21523 5.75316L4.865 6.11ZM5.66 6.845L5.33703 7.22669C5.61182 7.45921 5.85742 7.63379 6.07106 7.74689L6.305 7.305L6.53894 6.86311C6.41258 6.79621 6.22818 6.67079 5.98297 6.46331L5.66 6.845ZM6.305 7.305L6.1193 7.76924C6.11855 7.76894 6.12131 7.77004 6.13792 7.77766C6.15114 7.78371 6.17362 7.7941 6.19804 7.80457L6.395 7.345L6.59196 6.88543C6.58138 6.88089 6.57136 6.87629 6.55458 6.86859C6.54119 6.86246 6.51645 6.85106 6.49069 6.84076L6.305 7.305ZM6.395 7.345L6.21944 7.81316C6.33251 7.85557 6.43627 7.865 6.52 7.865V7.365V6.865C6.51576 6.865 6.52043 6.86474 6.53053 6.86627C6.54148 6.86793 6.55547 6.87118 6.57056 6.87683L6.395 7.345ZM6.52 7.365V7.865C6.7447 7.865 6.93492 7.77718 7.07855 7.63355L6.725 7.28L6.37145 6.92645C6.38226 6.91563 6.40431 6.89738 6.43782 6.88311C6.47183 6.86863 6.50178 6.865 6.52 6.865V7.365ZM6.725 7.28L7.0762 7.63589L7.4562 7.26089L7.105 6.905L6.7538 6.54911L6.3738 6.92411L6.725 7.28ZM7.105 6.905L7.45855 7.25855C7.56333 7.15377 7.64258 7.09631 7.69628 7.06829L7.465 6.625L7.23372 6.18171C7.05742 6.27369 6.89666 6.40623 6.75145 6.55145L7.105 6.905ZM7.465 6.625L7.72497 7.0521C7.77144 7.02381 7.79754 7.02 7.82 7.02V6.52V6.02C7.59246 6.02 7.38856 6.08619 7.20503 6.1979L7.465 6.625ZM7.82 6.52V7.02C7.84172 7.02 7.87752 7.02398 7.93568 7.04777L8.125 6.585L8.31432 6.12223C8.15248 6.05602 7.98828 6.02 7.82 6.02V6.52ZM8.125 6.585L7.93568 7.04777C8.0037 7.0756 8.08741 7.12109 8.19384 7.19346L8.475 6.78L8.75616 6.36654C8.61259 6.26891 8.4663 6.1844 8.31432 6.12223L8.125 6.585ZM8.475 6.78L8.18555 7.1877L9.84055 8.3627L10.13 7.955L10.4195 7.5473L8.76445 6.3723L8.475 6.78ZM10.13 7.955L9.84539 8.3661C9.91107 8.41156 9.93485 8.44799 9.94734 8.47637L10.405 8.275L10.8627 8.07363C10.7651 7.85201 10.6089 7.67844 10.4146 7.5439L10.13 7.955ZM10.405 8.275L9.94076 8.46069C9.97249 8.54002 9.985 8.60159 9.985 8.665H10.485H10.985C10.985 8.44841 10.9375 8.25998 10.8692 8.0893L10.405 8.275ZM8.75 4H9.25C9.25 3.73679 9.15289 3.46438 9.03343 3.23201C8.90876 2.98953 8.7353 2.74324 8.53053 2.52384L8.165 2.865L7.79947 3.20616C7.9447 3.36176 8.06373 3.53297 8.14407 3.68924C8.22961 3.85562 8.25 3.96321 8.25 4H8.75ZM8.165 2.865L8.53158 2.52498C8.16985 2.13498 7.62141 1.75 7 1.75V2.25V2.75C7.21859 2.75 7.52015 2.90502 7.79841 3.20502L8.165 2.865ZM10.5 4H11C11 1.78886 9.21114 0 7 0V0.5V1C8.65886 1 10 2.34114 10 4H10.5Z" fill="#343333"/>
</svg>
