<svg width="11" height="10" viewBox="0 0 11 10" fill="none" xmlns="http://www.w3.org/2000/svg">
<path d="M10.02 8.798L10.3721 9.153L10.3723 9.15277L10.02 8.798ZM9.2 9.329L9.02697 8.85989L9.02444 8.86084L9.2 9.329ZM4.875 8.2805L4.60034 8.69831L4.60096 8.69871L4.875 8.2805ZM3.235 7.0205L2.89872 7.39055L2.90231 7.39375L3.235 7.0205ZM1.84 5.549L1.44941 5.86117L1.45127 5.86347L1.84 5.549ZM0.86 4.0145L0.407109 4.22638L0.407833 4.22791L0.86 4.0145ZM0.68 1.6745L1.13691 1.87757L1.13814 1.87478L0.68 1.6745ZM1.255 0.923L1.57869 1.30423L1.58656 1.29725L1.255 0.923ZM2.7 0.581L2.50169 1.04005L2.5082 1.04275L2.7 0.581ZM3.035 0.833L2.63866 1.13788L2.64234 1.14254L3.035 0.833ZM4.195 2.3045L3.80233 2.61405L3.80457 2.61685L4.195 2.3045ZM4.395 2.6195L3.93974 2.82643L3.94357 2.83447L4.395 2.6195ZM4.36 3.2135L3.94583 2.93339L3.94108 2.94041L3.93658 2.94758L4.36 3.2135ZM4.08 3.533L3.74546 3.16128L3.73841 3.16787L4.08 3.533ZM3.7 3.8885L4.03454 4.26022L4.04159 4.25363L3.7 3.8885ZM3.635 4.172L3.15324 4.30582L3.16154 4.33569L3.17346 4.36431L3.635 4.172ZM3.675 4.262L3.20613 4.43566L3.22269 4.48037L3.2474 4.52115L3.675 4.262ZM4.14 4.838L3.77569 5.18051L3.77958 5.18455L4.14 4.838ZM4.865 5.549L4.52695 5.91752L4.53398 5.92374L4.865 5.549ZM5.66 6.2105L5.35641 6.60779L5.35707 6.60829L5.66 6.2105ZM6.305 6.6245L6.08993 7.07588L6.11231 7.08654L6.13564 7.09494L6.305 6.6245ZM6.395 6.6605L6.21506 7.127L6.22501 7.13084L6.23511 7.13425L6.395 6.6605ZM6.725 6.602L6.39296 6.22815L6.39052 6.23035L6.725 6.602ZM7.105 6.2645L7.43704 6.63835L7.43948 6.63615L7.105 6.2645ZM7.465 6.0125L7.67752 6.46509L7.69159 6.45848L7.70523 6.45101L7.465 6.0125ZM8.475 6.152L8.74427 5.73059L8.736 5.72553L8.475 6.152ZM10.13 7.2095L9.86076 7.63086L9.86559 7.63386L10.13 7.2095ZM10.405 7.4975L10.8619 7.29443L10.8582 7.28609L10.8542 7.27789L10.405 7.4975ZM8.25 3.65C8.25 3.92614 8.47386 4.15 8.75 4.15C9.02614 4.15 9.25 3.92614 9.25 3.65H8.75H8.25ZM8.165 2.6285L7.81681 2.98734L7.81793 2.98842L8.165 2.6285ZM7 1.575C6.72386 1.575 6.5 1.79886 6.5 2.075C6.5 2.35114 6.72386 2.575 7 2.575V2.075V1.575ZM10 3.65C10 3.92614 10.2239 4.15 10.5 4.15C10.7761 4.15 11 3.92614 11 3.65H10.5H10ZM7 0C6.72386 0 6.5 0.223858 6.5 0.5C6.5 0.776142 6.72386 1 7 1V0.5V0ZM10.485 7.8485H9.985C9.985 7.92654 9.96608 8.01362 9.91724 8.10669L10.36 8.339L10.8028 8.57131C10.9239 8.34038 10.985 8.09446 10.985 7.8485H10.485ZM10.36 8.339L9.91724 8.10669C9.85532 8.2247 9.7755 8.33614 9.66767 8.44323L10.02 8.798L10.3723 9.15277C10.5545 8.97186 10.6947 8.7773 10.8028 8.57131L10.36 8.339ZM10.02 8.798L9.6679 8.443C9.46991 8.63937 9.25993 8.77397 9.02697 8.85989L9.2 9.329L9.37303 9.79811C9.75007 9.65903 10.0801 9.44263 10.3721 9.153L10.02 8.798ZM9.2 9.329L9.02444 8.86084C8.78349 8.95119 8.51823 9 8.225 9V9.5V10C8.63177 10 9.01651 9.93181 9.37556 9.79716L9.2 9.329ZM8.225 9.5V9C7.78594 9 7.30174 8.90702 6.77403 8.70465L6.595 9.1715L6.41597 9.63835C7.03826 9.87698 7.64406 10 8.225 10V9.5ZM6.595 9.1715L6.77403 8.70465C6.23512 8.49799 5.69179 8.21793 5.14904 7.86229L4.875 8.2805L4.60096 8.69871C5.1982 9.09007 5.80487 9.40401 6.41597 9.63835L6.595 9.1715ZM4.875 8.2805L5.14966 7.86269C4.59521 7.4982 4.06959 7.09462 3.56769 6.64725L3.235 7.0205L2.90231 7.39375C3.44041 7.87338 4.00479 8.3068 4.60034 8.69831L4.875 8.2805ZM3.235 7.0205L3.57126 6.65046C3.07412 6.19869 2.62684 5.72665 2.22873 5.23453L1.84 5.549L1.45127 5.86347C1.88316 6.39735 2.36588 6.90631 2.89873 7.39053L3.235 7.0205ZM1.84 5.549L2.23058 5.23684C1.83981 4.74789 1.53241 4.26772 1.31217 3.80109L0.86 4.0145L0.407833 4.22791C0.667594 4.77828 1.02019 5.32411 1.44942 5.86116L1.84 5.549ZM0.86 4.0145L1.31289 3.80262C1.09751 3.34225 1 2.92403 1 2.543H0.5H0C0 3.09797 0.142492 3.66075 0.407112 4.22638L0.86 4.0145ZM0.5 2.543H1C1 2.30333 1.04676 2.0804 1.13691 1.87757L0.68 1.6745L0.223094 1.47143C0.0732418 1.8086 0 2.17067 0 2.543H0.5ZM0.68 1.6745L1.13814 1.87478C1.22448 1.67727 1.36529 1.48527 1.57862 1.30415L1.255 0.923L0.931385 0.541853C0.614707 0.81073 0.37552 1.12273 0.221864 1.47422L0.68 1.6745ZM1.255 0.923L1.58656 1.29725C1.82722 1.08405 2.06243 1 2.295 1V0.5V0C1.78757 0 1.32278 0.194952 0.923436 0.548747L1.255 0.923ZM2.295 0.5V1C2.37254 1 2.44438 1.01523 2.50171 1.04L2.7 0.581L2.89829 0.121999C2.70562 0.0387667 2.49746 0 2.295 0V0.5ZM2.7 0.581L2.5082 1.04275C2.56889 1.06796 2.60903 1.0993 2.63869 1.13786L3.035 0.833L3.43131 0.528145C3.28097 0.332703 3.09111 0.202042 2.8918 0.119252L2.7 0.581ZM3.035 0.833L2.64234 1.14254L3.80234 2.61404L4.195 2.3045L4.58766 1.99496L3.42766 0.523459L3.035 0.833ZM4.195 2.3045L3.80457 2.61685C3.87481 2.70465 3.91557 2.77307 3.93982 2.8264L4.395 2.6195L4.85018 2.4126C4.78443 2.26793 4.69519 2.12934 4.58543 1.99215L4.195 2.3045ZM4.395 2.6195L3.94357 2.83447C3.95391 2.85618 3.95969 2.87323 3.96266 2.88479C3.9657 2.89656 3.965 2.89941 3.965 2.894H4.465H4.965C4.965 2.71512 4.91408 2.54661 4.84643 2.40453L4.395 2.6195ZM4.465 2.894H3.965C3.965 2.89326 3.96523 2.8948 3.96358 2.89983C3.96182 2.90519 3.95724 2.91651 3.94583 2.93339L4.36 3.2135L4.77417 3.49361C4.89239 3.31881 4.965 3.11478 4.965 2.894H4.465ZM4.36 3.2135L3.93658 2.94758C3.90305 3.00097 3.84224 3.0743 3.74552 3.16135L4.08 3.533L4.41448 3.90465C4.55776 3.7757 4.68695 3.63303 4.78342 3.47942L4.36 3.2135ZM4.08 3.533L3.73841 3.16787L3.35841 3.52337L3.7 3.8885L4.04159 4.25363L4.42159 3.89813L4.08 3.533ZM3.7 3.8885L3.36552 3.51685C3.20285 3.66325 3.12 3.85789 3.12 4.0685H3.62H4.12C4.12 4.09181 4.1156 4.12925 4.09699 4.17153C4.07827 4.21406 4.05313 4.24336 4.03448 4.26015L3.7 3.8885ZM3.62 4.0685H3.12C3.12 4.15721 3.13332 4.23409 3.15324 4.30582L3.635 4.172L4.11676 4.03818C4.11613 4.0359 4.11725 4.03954 4.11835 4.04697C4.11952 4.05489 4.12 4.06252 4.12 4.0685H3.62ZM3.635 4.172L3.17346 4.36431C3.18613 4.3947 3.19885 4.42134 3.20438 4.43309C3.20773 4.44021 3.20885 4.44268 3.20935 4.44381C3.20969 4.44459 3.20825 4.4414 3.20613 4.43566L3.675 4.262L4.14387 4.08834C4.13052 4.05229 4.11555 4.0208 4.10937 4.00766C4.10115 3.99016 4.09887 3.9853 4.09654 3.97969L3.635 4.172ZM3.675 4.262L3.2474 4.52115C3.36409 4.71369 3.54661 4.9368 3.77572 5.18049L4.14 4.838L4.50428 4.49551C4.29339 4.2712 4.16591 4.10731 4.1026 4.00285L3.675 4.262ZM4.14 4.838L3.77958 5.18455C4.01004 5.42423 4.25762 5.67034 4.52701 5.91746L4.865 5.549L5.20299 5.18054C4.95238 4.95066 4.71996 4.71977 4.50042 4.49145L4.14 4.838ZM4.865 5.549L4.53398 5.92374C4.80822 6.16598 5.07812 6.39512 5.35641 6.60778L5.66 6.2105L5.96359 5.81321C5.71188 5.62087 5.46178 5.40902 5.19602 5.17426L4.865 5.549ZM5.66 6.2105L5.35707 6.60829C5.63248 6.81802 5.87775 6.97478 6.08993 7.07588L6.305 6.6245L6.52007 6.17312C6.39225 6.11222 6.20752 5.99898 5.96293 5.81271L5.66 6.2105ZM6.305 6.6245L6.13564 7.09494C6.13472 7.09461 6.13562 7.09492 6.13945 7.09644C6.14334 7.098 6.14814 7.09996 6.15559 7.10303C6.1689 7.10853 6.19104 7.11773 6.21506 7.127L6.395 6.6605L6.57494 6.194C6.56396 6.18977 6.5536 6.18547 6.53691 6.17859C6.52341 6.17302 6.4993 6.16304 6.47436 6.15406L6.305 6.6245ZM6.395 6.6605L6.23511 7.13425C6.3426 7.17052 6.44054 7.1785 6.52 7.1785V6.6785V6.1785C6.5139 6.1785 6.51602 6.17817 6.52318 6.17915C6.53109 6.18022 6.54225 6.18249 6.55489 6.18675L6.395 6.6605ZM6.52 6.6785V7.1785C6.72827 7.1785 6.91248 7.10595 7.05948 6.97365L6.725 6.602L6.39052 6.23035C6.40336 6.2188 6.42508 6.20332 6.45478 6.19194C6.48431 6.18062 6.50827 6.1785 6.52 6.1785V6.6785ZM6.725 6.602L7.05703 6.97584L7.43703 6.63834L7.105 6.2645L6.77297 5.89066L6.39297 6.22816L6.725 6.602ZM7.105 6.2645L7.43948 6.63615C7.54272 6.54323 7.62185 6.49123 7.67752 6.46509L7.465 6.0125L7.25248 5.55991C7.07816 5.64177 6.91728 5.76077 6.77052 5.89285L7.105 6.2645ZM7.465 6.0125L7.70523 6.45101C7.75358 6.42452 7.7866 6.418 7.82 6.418V5.918V5.418C7.6034 5.418 7.40642 5.47448 7.22477 5.57399L7.465 6.0125ZM7.82 5.918V6.418C7.84928 6.418 7.89083 6.4231 7.95225 6.44571L8.125 5.9765L8.29775 5.50729C8.13917 5.4489 7.98072 5.418 7.82 5.418V5.918ZM8.125 5.9765L7.95225 6.44571C8.02266 6.47163 8.10756 6.51333 8.214 6.57847L8.475 6.152L8.736 5.72553C8.59243 5.63767 8.44734 5.56237 8.29775 5.50729L8.125 5.9765ZM8.475 6.152L8.20578 6.57333L9.86078 7.63083L10.13 7.2095L10.3992 6.78817L8.74422 5.73067L8.475 6.152ZM10.13 7.2095L9.86559 7.63386C9.9332 7.67599 9.95005 7.70534 9.95581 7.7171L10.405 7.4975L10.8542 7.27789C10.7499 7.06466 10.5868 6.90501 10.3944 6.78513L10.13 7.2095ZM10.405 7.4975L9.94809 7.70057C9.97667 7.76486 9.985 7.80783 9.985 7.8485H10.485H10.985C10.985 7.63717 10.9333 7.45514 10.8619 7.29443L10.405 7.4975ZM8.75 3.65H9.25C9.25 3.38928 9.14409 3.12869 9.02291 2.91656C8.89498 2.6926 8.71845 2.46759 8.51207 2.26858L8.165 2.6285L7.81793 2.98842C7.96155 3.12691 8.07752 3.27765 8.15459 3.41257C8.19292 3.47967 8.2185 3.53739 8.23373 3.58283C8.24963 3.63026 8.25 3.6516 8.25 3.65H8.75ZM8.165 2.6285L8.51319 2.26966C8.14475 1.91216 7.60137 1.575 7 1.575V2.075V2.575C7.23863 2.575 7.54525 2.72384 7.81681 2.98734L8.165 2.6285ZM10.5 3.65H11C11 1.58411 9.16029 0 7 0V0.5V1C8.70971 1 10 2.23289 10 3.65H10.5Z" fill="#972823"/>
</svg>
