<svg width="121" height="50" viewBox="0 0 121 50" fill="none" xmlns="http://www.w3.org/2000/svg">
<path fill-rule="evenodd" clip-rule="evenodd" d="M46.8126 26.934C46.7951 26.9075 46.7739 26.8763 46.7587 26.8559C46.7439 26.8359 46.7237 26.8039 46.7055 26.7804L46.6011 26.6496C46.3874 26.4159 46.1524 26.3692 45.8465 26.3585C45.4201 26.3432 45.0867 26.4439 44.7996 26.6506C44.6447 26.7622 44.2288 27.141 44.0697 27.3213C43.4322 28.0432 44.4577 30.5321 46.0758 28.4829C46.6993 27.6933 46.4608 28.1158 46.7372 27.8107C46.8556 27.5518 47.0184 27.1527 46.8126 26.934ZM41.9568 23.7044C41.9061 23.3993 41.8362 23.0997 41.6644 22.8302C41.3051 22.2654 41.2449 22.3433 41.0461 22.3084C40.7692 22.7688 40.8224 22.9945 40.7757 23.5484C40.7303 24.087 40.5627 24.3894 40.5225 24.7354C40.8221 24.5934 40.906 24.4241 41.2291 24.1958C41.4734 24.0233 41.7123 23.866 41.9568 23.7044ZM41.7305 21.4751C41.573 21.5972 41.7887 22.2939 41.946 22.2902C41.9488 22.2902 41.9645 22.2754 41.9673 22.2749C41.9697 22.2742 41.9842 22.2572 41.9867 22.2567L42.1143 22.3606C42.2072 22.5189 42.2849 22.7179 42.2999 22.8462C42.5987 22.7071 42.811 22.7466 43.2117 22.7488C43.4572 22.7503 43.8612 22.7808 43.991 22.7646C44.5069 22.633 45.2058 21.2165 45.7537 21.4387C45.9584 21.5218 46.2897 22.3194 46.0301 22.9239L45.9357 23.0567L45.9314 22.0405C45.5894 22.1251 45.1394 22.5628 44.9828 22.8884C45.1649 23.0068 45.7904 23.3878 45.9112 23.418L45.9324 23.0782C45.9984 23.1778 46.0218 23.1564 46.0543 23.3566C46.0613 23.3998 46.0126 23.7094 46.0273 23.7531L46.2548 23.5466C46.2723 23.8395 47.1897 24.4733 47.4156 24.7055C47.6464 24.9422 48.3358 25.6466 48.4219 26.0476L48.4022 26.716L47.0993 26.6544C47.0636 27.0232 47.0523 26.9083 47.311 27.1612L49.8055 29.7159C49.4741 30.4173 50.1021 30.7509 50.2657 31.1689C50.1009 31.7971 49.5131 31.8683 48.7358 31.9731C47.5317 32.1359 47.6404 31.9447 46.7437 31.7741C47.2523 31.9392 47.2551 32.1215 48.0092 32.1617C48.5298 32.1894 49.161 32.1856 49.5785 32.0493L49.6055 32.4041C49.5887 32.674 49.5505 32.6418 49.1166 32.7709C48.8419 32.8528 48.6646 32.8898 48.3932 32.913C48.2319 32.9267 46.8371 32.9782 46.9737 32.8179C46.7719 32.5971 47.0416 32.735 46.5954 32.5594C46.0173 32.3322 41.7707 32.46 40.8546 32.4291C40.1417 32.4051 40.0666 32.3941 39.7807 31.858C39.5387 31.4048 39.4623 31.1926 39.2925 30.7494C38.9547 29.8679 38.8361 29.2602 38.655 28.2944C38.1943 28.7253 37.022 28.8285 36.2489 28.8514C33.7188 28.9268 34.6344 28.4644 34.0149 28.1615C34.0421 29.2235 33.9313 30.2273 33.8721 31.2662C33.767 33.1133 33.7075 32.5447 33.1854 33.6461C32.5247 35.0389 31.7362 36.38 31.0058 37.6827C29.7136 39.9869 29.6752 39.9527 29.4662 42.3635C29.3154 44.1036 29.1983 46.3874 28.8357 48.0763C29.5803 48.0888 30.6652 48.5418 31.6366 48.561C31.8585 48.5652 33.6823 48.2191 33.6226 49.544C32.8643 49.5523 33.104 49.4364 32.6718 49.0204L32.6371 49.343C32.6376 49.348 32.6768 49.4854 32.6838 49.5338C32.1871 49.6437 30.5124 49.537 29.849 49.544C29.3473 49.5493 28.8272 49.5178 28.3363 49.5316C27.1825 49.564 28.0162 49.2878 27.2836 49.2284C27.1193 49.1573 27.2808 49.2496 27.1305 49.122C26.5969 48.6691 26.2496 48.0166 26.0908 47.3255L24.7065 41.0836C24.6635 40.7337 24.7896 40.1267 24.6371 39.8436C24.7602 39.6353 24.7671 39.1799 24.7896 38.9017L25.3407 32.0176L15.9816 34.6766C15.9469 34.5268 15.3124 33.3879 15.1948 33.2556C15.0275 35.412 15.5523 38.6073 14.9898 40.6014C14.436 41.7847 13.9348 43.014 13.3817 44.1516C13.0721 44.7888 12.8074 45.3456 12.545 45.9442C12.3215 46.4538 11.8751 47.2958 11.7477 47.7707L11.136 48.304C11.7282 48.4921 12.9837 48.4616 13.7433 48.5295C14.163 48.5672 14.0479 48.6356 14.374 48.8077L14.7938 49.6624L15.5017 49.5643C15.1616 49.8701 11.0783 49.6959 10.6538 49.6961C10.0995 49.6966 8.67795 49.772 8.22425 49.6751C7.82848 49.5905 7.25742 48.8629 6.92008 48.545C6.58349 48.2279 6.46863 48.2094 6.46564 47.6399L6.76128 44.2467C6.8252 43.5598 6.97452 42.6664 6.9463 41.9907C6.9041 40.973 3.82734 35.9658 5.29106 29.5895C5.6264 28.1283 7.29663 26.0503 8.23524 25.1722C8.96685 24.4872 13.3373 21.9498 14.615 21.6529C15.7024 21.4002 22.2307 22.1608 23.8268 22.3191C27.5965 22.6932 28.1688 21.1775 31.6123 20.4054C33.2299 20.0426 36.2887 22.1438 39.7662 21.9044C39.9769 21.5246 40.0708 21.1977 40.5912 21.1048C41.1325 21.0085 41.4656 21.2217 41.7305 21.4751Z" fill="#D94540"/>
<path fill-rule="evenodd" clip-rule="evenodd" d="M17.5023 7.93486C17.3942 8.30441 16.8139 11.0838 16.8347 11.4194C16.8679 11.9605 17.3595 11.717 17.3226 12.9108C17.3018 13.5845 17.2884 14.2285 17.2821 14.8894C17.5011 14.6649 17.5366 14.5081 17.7226 14.3381C17.9608 14.1206 17.986 14.1908 18.2277 13.9046L19.6333 12.3947C20.024 11.9959 20.5744 11.2284 20.9509 10.9385L17.5023 7.93486ZM44.1742 7.9868L40.7863 10.6563C40.8362 10.9667 41.3194 11.4276 41.5766 11.6339C41.9931 11.968 42.038 12.2134 42.4081 12.5872C42.5821 12.7632 42.695 12.9018 42.8713 13.0651C43.0585 13.2389 43.1799 13.2669 43.3489 13.4349L43.9887 14.2097C44.1073 14.3211 44.0516 14.2984 44.2041 14.385L44.1742 7.9868ZM48.0128 13.0417L47.9111 13.0087C47.9114 13.5423 48.3009 14.211 48.4293 14.7209L47.5381 14.2914C47.5393 14.2879 47.6165 14.0252 47.6322 13.9878C47.816 13.824 47.9241 14.2981 47.6877 13.5271C47.5751 13.1598 47.2637 12.529 47.2844 12.119C47.6445 12.1792 48.1117 12.3592 48.3841 12.4961C48.5544 12.6466 50.3999 13.5388 50.5724 13.5935L48.7396 11.8107C48.5803 11.6211 48.5946 11.6301 48.4125 11.4746L45.8332 9.07073C45.5023 8.68869 45.1071 8.45822 44.8164 8.13786L44.8514 14.1401C44.8656 14.3551 44.8823 14.8729 44.9353 15.0512C45.0244 15.3511 45.1413 15.3151 45.2786 15.6842C45.0671 15.83 45.0494 15.5586 45.3003 15.9723C45.3577 16.0672 45.4389 16.1474 45.5268 16.241C45.6906 16.4156 45.8274 16.5312 46.0015 16.7092C46.1211 16.8316 46.1445 16.8762 46.2989 16.9804C46.7361 17.2755 46.4494 16.9731 47.0003 17.6798C47.39 18.1799 48.7898 19.3762 48.7319 19.7293C48.3556 19.8182 48.6113 19.8089 48.3858 19.6022C47.9623 19.2139 47.7656 18.8459 47.233 18.4825C46.7366 18.1437 46.377 17.4143 45.9068 16.9904C45.789 16.8842 45.8704 16.9664 45.7505 16.8723L44.6851 15.673C44.0538 14.8599 44.2281 15.5756 43.7375 14.7366C43.5065 14.3411 42.9215 13.8949 42.5349 13.4159C41.7334 12.4232 40.6138 12.1705 39.4267 11.3215C40.1518 11.4718 40.2013 11.9133 40.4347 11.7048C40.7146 11.6538 40.5321 11.8094 40.6535 11.6084C40.2832 11.3914 40.2959 11.346 40.028 11.0119L38.8629 9.73268C38.6834 9.52842 38.5173 9.22055 38.3355 9.03552C38.1413 8.83776 38.1545 8.9294 37.9765 8.73838L37.4104 8.08243C37.3595 8.03299 37.3497 8.03274 37.2766 7.93286C36.5472 6.94032 37.0064 7.6522 36.5477 7.15805C36.3607 6.9568 36.2216 6.69487 36.0213 6.4589C35.7487 6.13704 35.6268 6.176 35.3651 5.89109L34.4815 4.8938C34.3796 4.78768 34.3219 4.70778 34.222 4.58867L32.7518 2.95266C32.5913 2.78686 32.6015 2.83406 32.4474 2.69048C32.1758 2.43779 32.2222 2.32393 31.9011 2.0153C31.5605 1.68795 31.6819 1.66648 31.343 1.38607C31.3707 2.95466 31.3533 4.56845 31.347 6.13979C31.3393 8.15984 31.2064 7.52561 31.9161 8.58682C32.2711 9.11817 32.3526 8.99857 32.6964 9.49621C32.9401 9.77887 32.9084 9.72668 33.3274 9.75939L32.979 10.0942L32.7516 13.2824C32.4846 13.2309 32.6777 13.3161 32.4839 13.1021C31.5655 12.0871 33.0485 10.2263 31.8921 9.16362C31.5588 8.85724 31.7173 8.78133 31.2689 8.40004C30.7702 7.97606 31.2604 8.646 31.1468 8.30341C30.8888 8.4365 30.4236 9.12641 30.1607 9.45801C30.0306 9.62206 29.942 9.68973 29.8141 9.79385C30.4062 8.91816 30.4696 8.94288 30.6184 8.1451C30.6911 7.75383 30.8699 7.5733 30.924 7.2462C30.985 6.87989 30.9552 6.43044 30.9632 6.04565C30.981 5.19594 31.0194 1.86199 30.8833 1.24624C30.951 1.32714 30.9939 1.23675 30.7787 1.34711C30.6279 1.22202 30.6079 1.45748 30.3907 1.69244L29.1107 3.14343C28.3946 4.00938 26.1975 6.20596 25.611 6.98127C25.0949 7.66369 23.6117 9.0947 22.9762 9.89972C22.7909 10.1344 22.7465 10.1781 22.5227 10.3851C22.2985 10.5921 22.312 10.6114 22.1297 10.8408L18.9781 14.1803C18.6916 14.4305 18.2639 15.1181 17.6849 15.6168C17.3253 15.9264 17.0948 16.284 16.7672 16.4877C16.2723 16.5357 16.5315 16.5626 16.2426 16.9035C16.1505 17.0121 14.7996 18.2501 14.091 19.0881C13.8585 19.3632 13.5526 19.7767 13.1077 19.7747C13.1272 19.2723 13.649 19.0166 13.7512 18.9327C14.4775 18.3367 14.3137 18.306 14.6308 17.9265L15.0086 17.5572C15.1227 17.4201 15.0443 17.4853 15.1634 17.3399C15.4041 17.047 15.6551 17.0148 15.927 16.684C16.2042 16.3461 16.2349 16.1654 16.6014 15.8557C17.0274 15.4962 16.8981 15.4582 16.8978 14.9094C16.8978 14.5396 16.9183 13.9451 16.9215 13.4786C16.9253 12.9113 17.0506 12.6342 16.6566 12.4444C17.0092 12.5957 16.7892 12.3842 16.9405 12.7151L16.9071 13.4869C16.8359 13.7161 16.8124 13.6969 16.7735 13.761L16.8139 12.7263C16.6956 12.6209 16.9847 12.4841 16.6371 12.6778L16.3425 12.3917C16.9385 11.8963 16.537 12.0511 16.4566 11.5023C16.4249 11.285 16.5962 10.6348 16.6469 10.3582C16.7208 9.95341 17.1428 8.50941 16.8634 8.30341C17.0516 8.0682 16.8831 8.27619 16.8327 8.28668C16.7091 8.3124 16.7812 8.29467 16.7058 8.33213L14.5654 10.3422C14.043 10.9772 14.093 10.7285 13.8063 11.0855C13.6917 11.2281 13.6598 11.313 13.5629 11.4086C13.4525 11.5178 13.5951 11.3874 13.4048 11.5327C13.3831 11.5495 13.3174 11.5922 13.2962 11.6091L11.4462 13.4217C10.8739 14.209 10.6984 14.0384 9.65288 15.2065L5.25897 19.575C5.1943 19.6421 5.21702 19.6227 5.11564 19.7078C4.42423 20.2896 4.01323 20.8075 3.46615 21.3461C2.55326 22.2447 1.74124 22.8862 0.831599 23.9062C0.755691 23.9914 0.68278 24.099 0.589144 24.1354C0.00235671 24.3646 0.47678 24.2338 0.281767 24.0758C0.175147 23.9035 0.631592 23.5978 0.631842 23.5976C0.938469 23.3431 0.964188 23.1227 1.31027 22.8557L4.003 20.2861C4.81276 19.536 5.08468 19.0404 5.94264 18.3674C6.30195 18.0855 6.17461 18.0693 6.76764 17.4975C6.86452 17.4041 6.78387 17.4838 6.86127 17.4034L7.57441 16.6972C7.66729 16.5923 7.60162 16.6987 7.64332 16.5661L7.6226 16.4662L14.928 9.28397C15.5347 8.67446 16.7657 7.27241 17.4274 6.94681C17.7313 7.09438 17.4394 6.94032 17.7303 7.15031C18.4812 7.69215 21.1457 10.2463 21.4735 10.3829L23.2896 8.43001C23.5006 8.1928 23.6192 7.97057 23.8446 7.75807L26.1776 5.19694C26.3856 4.95098 26.6038 4.7747 26.818 4.5255L29.713 1.30317C30.0566 0.87269 30.5832 0.407505 30.8294 0C31.5051 0.219483 31.8227 0.909145 32.162 1.28644L32.787 1.88271C33.0075 2.13915 33.1266 2.28273 33.3413 2.55315C33.5798 2.85303 33.7484 2.88175 33.9534 3.16291C34.1841 3.47902 34.1946 3.57166 34.5054 3.83759L35.7125 5.07558C35.9222 5.28358 36.0628 5.52329 36.2561 5.75551C36.4765 6.01994 36.6763 6.11282 36.8713 6.36077L40.3334 10.1314C40.9918 9.55215 41.7197 9.02778 42.4311 8.46322C42.8803 8.10665 44.0691 7.0412 44.5265 6.90636L45.7046 7.97131C46.0444 8.34636 46.5176 8.58282 46.8772 8.96386C47.5671 9.69597 47.0172 9.23678 48.0168 10.0825L59.2319 20.793C59.6928 21.1753 59.8626 21.4944 60.2879 21.9006C60.7935 22.3838 62.3229 23.4585 62.4717 24.1699C62.1201 24.3539 62.3536 24.3414 61.8862 24.4198C60.9818 23.47 59.2971 22.1154 58.6261 21.3064L58.0021 20.7053C57.9155 20.6192 57.9018 20.5922 57.8211 20.5108C57.297 19.9822 57.2036 20.0761 56.5419 19.3415L55.3479 18.1834C54.207 17.1599 54.9291 17.8563 54.1308 16.9552L52.8641 15.8677C52.566 15.5883 51.704 14.5034 51.2106 14.3383L48.1923 13.0307C47.9326 12.9523 48.2078 12.8918 48.0128 13.0417Z" fill="#343333"/>
<path fill-rule="evenodd" clip-rule="evenodd" d="M46.9733 32.8178C45.5001 32.7319 43.3412 33.5984 42.5339 33.4905C41.8338 33.3325 41.2058 33.8321 40.5733 33.9075C40.0819 33.9662 39.1173 34.1637 38.7073 34.3957C37.2648 35.2119 38.4292 34.5597 37.0136 35.0591C35.3057 35.6619 35.5554 36.1086 34.3971 37.214C34.1479 37.4517 34.0103 37.5938 33.7893 37.8425C33.5054 38.1618 33.4894 38.2902 33.243 38.5164C33.0904 38.6562 32.2409 39.4815 32.0998 39.7232C31.8142 40.2121 32.0354 41.3849 31.5428 41.6137C31.6744 41.8281 31.5955 41.7827 31.7812 41.8766C31.605 41.9855 31.6681 41.8766 31.555 42.561C31.396 43.5251 30.5505 47.1592 30.765 47.5629C31.0966 48.1869 32.4282 47.7869 33.3074 48.0294C33.826 48.1722 34.436 49.111 34.5736 49.7348L27.644 49.7248L27.2832 49.2284C28.0158 49.2878 27.1821 49.564 28.3359 49.5315C28.8268 49.5178 29.3469 49.5493 29.8486 49.544C30.512 49.537 32.1867 49.6436 32.6834 49.5338C32.6764 49.4853 32.6372 49.348 32.6367 49.343L32.6714 49.0204C33.1036 49.4364 32.8639 49.5523 33.6223 49.544C33.6819 48.2191 31.8581 48.5652 31.6362 48.561C30.6648 48.5417 29.5799 48.0888 28.8353 48.0763C29.1979 46.3874 29.315 44.1036 29.4658 42.3635C29.6748 39.9527 29.7132 39.9869 31.0054 37.6827C31.7358 36.38 32.5243 35.0389 33.185 33.6461C33.7071 32.5447 33.7666 33.1132 33.8717 31.2662C33.9309 30.2272 34.0417 29.2235 34.0145 28.1615C34.634 28.4644 33.7184 28.9268 36.2486 28.8514C37.0216 28.8284 38.1939 28.7253 38.6546 28.2943C38.8357 29.2602 38.9543 29.8679 39.2921 30.7494C39.4619 31.1926 39.5383 31.4048 39.7803 31.858C40.0662 32.3941 40.1413 32.4051 40.8542 32.4291C41.7704 32.46 46.0169 32.3322 46.595 32.5594C47.0412 32.7349 46.7715 32.5971 46.9733 32.8178Z" fill="#972823"/>
<path fill-rule="evenodd" clip-rule="evenodd" d="M24.6375 39.8436C24.052 39.9152 22.8929 40.3599 22.2589 40.5287C21.8806 40.6294 20.0596 41.0299 19.8686 41.1472C19.747 41.0841 19.9143 41.115 19.5931 41.0698C19.103 41.0009 18.9022 41.157 18.6403 41.2244L17.7821 41.3817C17.3963 41.4469 15.3668 40.9962 15.1178 40.9038L14.9902 40.6014C15.5528 38.6073 15.0279 35.412 15.1952 33.2556C15.3128 33.3879 15.9473 34.5268 15.982 34.6766L25.3412 32.0176L24.7901 38.9017C24.7676 39.1799 24.7606 39.6353 24.6375 39.8436Z" fill="#972823"/>
<path fill-rule="evenodd" clip-rule="evenodd" d="M39.3602 41.0121L39.0314 41.0051C38.6513 42.2224 38.0236 43.0137 37.3984 43.8956L36.5769 45.2927C36.5089 45.7876 36.6116 47.1422 36.7429 47.4471C36.9739 47.4421 36.7829 47.0788 37.3122 47.3532C37.2191 47.7747 37.2922 47.5589 36.8643 47.7742C36.9407 48.2334 36.7771 47.9564 36.9996 48.3884C37.2043 48.4019 36.9372 48.4234 37.2817 48.2036C37.4156 48.1183 37.65 48.0054 37.7429 47.9634C37.7334 48.4009 37.7899 48.0051 37.6318 48.2641L37.3681 48.5792C37.0897 48.8851 37.1292 48.7008 37.2822 49.1934L37.7235 49.0182C38.1804 48.773 37.6403 48.9128 38.1482 48.8104C37.8705 49.5505 37.6505 49.1937 37.47 49.5388C37.6083 49.4938 37.655 49.4838 37.7759 49.4337L38.1772 49.2649C38.2488 49.2264 38.1532 49.3086 38.2915 49.1977C38.4873 49.0409 38.5402 48.5907 38.7207 48.532C38.7357 48.527 38.7694 48.5285 38.7842 48.5265L38.931 48.554C38.498 49.3952 38.3996 49.5787 37.3764 49.8294C37.3607 49.8089 37.3429 49.78 37.3334 49.765L36.9224 48.8339C36.7973 48.4496 36.688 48.1642 36.5901 47.7527C36.3976 46.9439 36.4041 46.1476 36.3636 45.2597C35.2377 44.8055 32.7395 42.9061 31.7814 41.8766C31.5957 41.7827 31.6746 41.8281 31.543 41.6137C32.0356 41.3849 31.8144 40.2121 32.1 39.7232C32.2411 39.4815 33.0906 38.6562 33.2432 38.5164C33.4896 38.2902 33.5056 38.1618 33.7895 37.8425C34.0105 37.5938 34.1481 37.4517 34.3972 37.214C35.5556 36.1086 35.3059 35.6619 37.0138 35.0591C38.4294 34.5597 37.265 35.2119 38.7075 34.3957C39.1175 34.1637 40.0821 33.9662 40.5735 33.9075C41.206 33.8321 41.834 33.3325 42.5341 33.4905C42.0794 33.8925 39.4541 34.2002 38.7038 34.5562C38.5292 34.9645 37.6833 37.7494 37.7659 38.1034C37.8645 38.5247 39.1467 40.3462 39.3602 41.0121Z" fill="#D94540"/>
<path fill-rule="evenodd" clip-rule="evenodd" d="M19.8684 41.1473L18.1295 41.4704C17.9275 42.6382 16.5914 46.8846 16.7158 47.5939C17.6114 47.9425 18.7148 47.6788 19.3785 47.9395C19.9079 48.1473 20.5084 48.8969 20.7284 49.5473L15.502 49.5643L14.7941 49.6624L14.3744 48.8077L14.4762 48.763C14.5963 48.8981 14.6842 49.015 14.8118 49.214C15.048 49.5823 14.8935 49.5456 15.4788 49.5381C15.3247 48.8736 14.9227 48.7218 14.6518 48.3013C14.5292 48.0142 14.4608 48.0257 14.055 47.981C13.8105 47.9538 13.5466 47.9445 13.2914 47.9253C12.7471 47.8841 12.2252 47.8461 11.748 47.7707C11.8754 47.2958 12.3218 46.4538 12.5453 45.9442C12.8078 45.3457 13.0724 44.7889 13.3821 44.1516C13.9351 43.014 14.4363 41.7848 14.9901 40.6014L15.1177 40.9038C15.3667 40.9962 17.3962 41.4469 17.782 41.3817L18.6402 41.2244C18.9021 41.157 19.1029 41.001 19.593 41.0699C19.9141 41.1151 19.7468 41.0841 19.8684 41.1473Z" fill="#D94540"/>
<path fill-rule="evenodd" clip-rule="evenodd" d="M40.4364 11.7048C40.3013 11.525 36.3201 9.239 35.8734 9.05897C35.9239 9.76387 36.5866 11.0745 36.8043 11.7954C36.8081 11.9485 36.8363 11.8915 36.6492 11.8915C36.5169 11.677 35.1211 10.8513 34.7603 10.6401C34.2979 10.3696 33.175 9.55038 32.698 9.49619C32.3542 8.99855 32.2728 9.11815 31.9177 8.5868C31.2081 7.52559 31.3409 8.15982 31.3487 6.13977C31.3549 4.56843 31.3724 2.95464 31.3447 1.38605C31.6835 1.66646 31.5622 1.68793 31.9028 2.01528C32.2239 2.32391 32.1774 2.43777 32.4491 2.69046C32.6032 2.83404 32.5929 2.78685 32.7535 2.95264L34.2237 4.58866C34.3236 4.70776 34.3813 4.78766 34.4831 4.89378L35.3668 5.89107C35.6285 6.17598 35.7503 6.13702 36.023 6.45888C36.2233 6.69485 36.3623 6.95678 36.5494 7.15803C37.0081 7.65218 36.5489 6.9403 37.2782 7.93284C37.3514 8.03272 37.3611 8.03297 37.4121 8.08241L37.9781 8.73836C38.1562 8.92938 38.1429 8.83774 38.3372 9.0355C38.519 9.22053 38.685 9.5284 38.8646 9.73266L40.0296 11.0119C40.2976 11.3459 40.2848 11.3914 40.6551 11.6084C40.5338 11.8094 40.7163 11.6538 40.4364 11.7048Z" fill="#DED8DA"/>
<path fill-rule="evenodd" clip-rule="evenodd" d="M38.9304 48.554L38.7836 48.5265C38.7688 48.5285 38.7351 48.527 38.7202 48.532C38.5396 48.5907 38.4867 49.0409 38.2909 49.1977C38.1526 49.3086 38.2482 49.2264 38.1766 49.2649L37.7753 49.4337C37.6545 49.4839 37.6078 49.4939 37.4694 49.5388C37.65 49.1937 37.8699 49.5506 38.1476 48.8105C37.6397 48.9128 38.1798 48.773 37.7229 49.0182L37.2817 49.1935C37.1286 48.7008 37.0891 48.8851 37.3676 48.5792L37.6312 48.2641C37.7893 48.0052 37.7329 48.4009 37.7423 47.9635C37.6495 48.0054 37.415 48.1183 37.2812 48.2037C36.9366 48.4234 37.2037 48.4019 36.999 48.3885C36.7765 47.9565 36.9401 48.2334 36.8637 47.7742C37.2916 47.559 37.2185 47.7747 37.3116 47.3532C36.7823 47.0788 36.9733 47.4421 36.7423 47.4471C36.611 47.1422 36.5083 45.7876 36.5763 45.2927L37.3978 43.8957C38.023 43.0137 38.6507 42.2225 39.0308 41.0052L39.3596 41.0122C39.6228 41.1675 40.1097 42.2634 40.2725 42.6694C40.5919 43.4659 40.6241 43.8715 40.3429 44.7639L38.9304 48.554Z" fill="#972823"/>
<path fill-rule="evenodd" clip-rule="evenodd" d="M44.205 14.385C44.0524 14.2984 44.1081 14.3211 43.9895 14.2098L43.3497 13.4349C43.1807 13.2669 43.0593 13.2389 42.8721 13.0651C42.6958 12.9018 42.5829 12.7633 42.4089 12.5872C42.0388 12.2134 41.9939 11.968 41.5774 11.6339C41.3202 11.4276 40.837 10.9667 40.7871 10.6563L44.175 7.98682L44.205 14.385Z" fill="#FCFCFC"/>
<path fill-rule="evenodd" clip-rule="evenodd" d="M48.3843 12.496C48.1119 12.3592 47.6447 12.1792 47.2847 12.119C47.2639 12.529 47.5753 13.1597 47.6879 13.527C47.9244 14.2981 47.8163 13.8239 47.6325 13.9877C47.4817 13.7635 46.4657 13.132 46.1443 13.1061C46.0082 13.4082 46.1118 13.1413 46.0834 13.4379L45.8549 13.5952C45.7977 13.5633 45.5917 13.4382 45.5797 13.4352C44.7997 13.2257 45.4604 13.3021 45.2394 13.5727C44.7515 13.3383 44.9477 13.6481 44.954 12.6361C44.9565 12.2189 44.919 11.7946 44.916 11.3155C44.911 10.469 44.9665 9.40655 44.9043 8.59479C45.3837 8.67544 46.2694 9.74814 46.8727 10.2635L47.793 11.1529C48.0472 11.3549 48.2148 11.5552 48.4283 11.7365C48.7032 11.9699 49.4278 12.6112 49.6086 12.9108C49.1516 12.7949 48.6787 12.5687 48.3848 12.3163L48.3843 12.496Z" fill="#DED8DA"/>
<path fill-rule="evenodd" clip-rule="evenodd" d="M20.7105 10.9033L20.2967 11.3525C19.5319 12.2609 19.5202 12.0854 19.082 12.5907L17.4767 14.411C17.3256 13.2807 17.6759 12.4442 17.3004 11.9023C17.1828 11.7328 17.2594 11.9178 17.0926 11.6511C16.8395 11.2469 17.0517 10.9173 17.184 10.2026L17.2622 9.81062C17.3551 9.35143 17.411 8.64779 17.6417 8.29297L18.8046 9.26753C19.3207 9.75769 19.5626 10.0406 20.1197 10.4161C20.2625 10.5125 20.2166 10.4758 20.332 10.5934C20.518 10.7837 20.4099 10.7782 20.7105 10.9033Z" fill="#D9D5D6"/>
<path fill-rule="evenodd" clip-rule="evenodd" d="M16.638 12.6779C16.1326 13.0766 14.0951 15.0123 13.6729 15.0939L13.7029 13.7496L13.7333 13.7758C13.7373 13.786 13.75 13.8235 13.7533 13.843C13.7645 13.9141 13.7623 14.049 13.7665 14.1306C13.7972 14.7231 13.8337 14.6909 14.0404 14.8899L15.3671 13.4966C15.8428 13.1046 15.7396 13.3803 16.2987 12.6327C16.1169 12.7273 16.0073 12.7728 15.8652 12.8666C15.5034 13.1056 15.7231 13.1645 15.3166 13.4377L14.3296 14.0442C14.3958 14.1563 14.3498 14.1783 14.3813 14.0707C14.5436 13.6929 16.1644 12.5378 16.5631 12.0956C16.3362 11.3238 16.0944 12.4097 16.5202 10.3205C16.6553 9.65805 16.7866 9.02107 16.8922 8.35962L10.6868 14.3593C10.0058 14.9901 9.38585 15.7302 8.68819 16.4068C7.29988 17.7532 6.00271 19.0679 4.61814 20.4292C3.91574 21.1196 3.25205 21.7164 2.5509 22.4068C1.99882 22.9504 0.961082 24.2488 0.397267 24.4239L0 24.1597C0.11536 23.668 1.46097 22.5259 1.83602 22.1636L7.62349 16.4663L7.64421 16.5662C7.60251 16.6987 7.66818 16.5924 7.5753 16.6972L6.86216 17.4034C6.78476 17.4838 6.86541 17.4041 6.76853 17.4975C6.1755 18.0693 6.30284 18.0856 5.94353 18.3675C5.08557 19.0404 4.81365 19.536 4.00389 20.2861L1.31116 22.8558C0.965077 23.1227 0.939359 23.3432 0.632731 23.5976C0.632482 23.5979 0.176036 23.9035 0.282657 24.0758C0.47767 24.2338 0.00324603 24.3647 0.590033 24.1355C0.683669 24.099 0.756581 23.9914 0.832489 23.9062C1.74213 22.8862 2.55415 22.2448 3.46704 21.3461C4.01412 20.8075 4.42512 20.2896 5.11653 19.7078C5.21791 19.6227 5.19519 19.6422 5.25986 19.575L9.65377 15.2066C10.6993 14.0385 10.8748 14.209 11.4471 13.4217L13.2971 11.6092C13.3183 11.5922 13.384 11.5495 13.4057 11.5328C13.596 11.3874 13.4534 11.5178 13.5638 11.4087C13.6607 11.313 13.6926 11.2281 13.8072 11.0856C14.0939 10.7285 14.0439 10.9772 14.5663 10.3422L16.7067 8.33216C16.7821 8.2947 16.7099 8.31243 16.8335 8.28671C16.884 8.27622 17.0525 8.06823 16.8643 8.30344C17.1437 8.50944 16.7217 9.95344 16.6478 10.3582C16.5971 10.6349 16.4258 11.2851 16.4575 11.5023C16.5379 12.0511 16.9394 11.8963 16.3434 12.3917L16.638 12.6779Z" fill="#0C0B0B"/>
<path fill-rule="evenodd" clip-rule="evenodd" d="M32.697 9.49619C33.1739 9.55038 34.2968 10.3696 34.7592 10.6401C35.12 10.8513 36.5158 11.677 36.6482 11.8915C36.4077 12.0264 35.6199 11.3732 35.4027 11.2201C35.1834 11.0658 35.0309 10.9964 34.7709 10.8203C34.548 10.6693 34.4064 10.5599 34.1085 10.443C34.5215 10.8396 35.2758 11.2566 35.8519 11.6089C36.2751 11.8681 37.0494 12.5517 37.5119 12.6721C37.3783 12.2034 37.2464 11.9337 37.0656 11.4396L36.6554 10.4291C36.6364 10.1439 36.4881 10.3002 36.7488 10.1529C37.1281 11.1442 37.5009 12.1083 37.8275 13.0334C37.5178 12.985 36.8204 12.5315 36.5977 12.3769C36.1403 12.0598 35.8611 11.8965 35.3999 11.6001L33.04 10.0483C33.0473 10.3596 32.9676 13.398 32.7654 13.798L32.0228 12.7078C31.9631 12.4858 32.0927 11.2688 32.1259 10.9604C32.2006 10.2698 32.3297 9.84477 31.9211 9.42977C31.613 9.11665 31.4367 8.76758 31.1086 8.43198L29.5241 10.5204C29.0549 10.9599 29.1156 11.0413 28.8379 11.12C28.9667 10.5701 29.5905 9.81356 29.9331 9.33039C31.0667 7.73233 30.7765 6.22292 30.7738 4.35194C30.7723 3.35166 30.7645 2.34588 30.7793 1.34709C30.9945 1.23673 30.9516 1.32712 30.8839 1.24622C31.02 1.86197 30.9815 5.19592 30.9638 6.04563C30.9558 6.43042 30.9855 6.87987 30.9246 7.24618C30.8704 7.57328 30.6916 7.75381 30.619 8.14508C30.4702 8.94286 30.4067 8.91814 29.8147 9.79383C29.9426 9.68971 30.0312 9.62204 30.1613 9.45799C30.4242 9.12639 30.8894 8.43648 31.1473 8.30339C31.2609 8.64597 30.7708 7.97604 31.2694 8.40002C31.7179 8.78131 31.5593 8.85722 31.8927 9.1636C33.049 10.2263 31.5661 12.087 32.4845 13.1021C32.6782 13.316 32.4852 13.2309 32.7521 13.2823L32.9796 10.0942L33.3279 9.75937C32.9089 9.72666 32.9407 9.77885 32.697 9.49619Z" fill="#0C0B0B"/>
<path fill-rule="evenodd" clip-rule="evenodd" d="M40.4358 11.7048C40.2023 11.9133 40.1529 11.4718 39.4277 11.3215C40.6148 12.1705 41.7344 12.4232 42.536 13.416C42.9225 13.8949 43.5075 14.3411 43.7385 14.7366C44.2291 15.5756 44.0549 14.86 44.6861 15.673L45.7515 16.8723C45.8714 16.9664 45.79 16.8843 45.9079 16.9904C46.378 17.4144 46.7376 18.1437 47.234 18.4826C47.7666 18.8459 47.9634 19.2139 48.3868 19.6022C48.6123 19.809 48.3566 19.8182 48.7329 19.7293C48.7909 19.3762 47.3911 18.1799 47.0013 17.6798C46.4504 16.9732 46.7371 17.2755 46.2999 16.9804C46.1456 16.8763 46.1221 16.8316 46.0025 16.7092C45.8285 16.5312 45.6916 16.4156 45.5278 16.241C45.4399 16.1474 45.3588 16.0673 45.3013 15.9724C45.0504 15.5586 45.0681 15.83 45.2796 15.6842C45.6966 15.9826 48.8428 19.3288 49.0568 19.6894C48.7247 20.0766 48.6021 20.0597 48.24 19.7463C47.9726 19.5148 47.7559 19.3008 47.5261 19.0426C47.0902 18.5525 46.6732 17.9889 46.184 17.5612C45.779 17.2071 45.8065 17.2204 45.4936 16.8403L42.7302 13.9588C41.5963 12.589 42.0523 13.1026 40.3296 12.1328C40.0175 11.9572 39.7389 11.761 39.4455 11.6012L36.8042 10.0211L37.0012 9.81286L36.1033 9.36665L36.7462 11.2032C36.8941 11.6411 36.9238 11.6027 36.8037 11.7954C36.5859 11.0746 35.9232 9.76391 35.8728 9.05902C36.3195 9.23905 40.3007 11.525 40.4358 11.7048Z" fill="#120C0D"/>
<path fill-rule="evenodd" clip-rule="evenodd" d="M46.8134 26.934C46.5203 27.0321 46.6654 27.0771 46.6431 27.32C46.6414 27.3385 46.6257 27.4147 46.6242 27.4009C46.6224 27.3859 46.6114 27.4604 46.5987 27.4876C46.5343 27.2022 46.5702 27.144 46.4007 26.8483C46.3482 26.7567 45.1889 26.2056 45.6024 27.5792C46.0718 27.7959 46.0451 27.7448 46.5046 27.537L46.738 27.8107C46.4616 28.1158 46.7001 27.6933 46.0766 28.4829C44.4585 30.5321 43.433 28.0431 44.0705 27.3213C44.2296 27.141 44.6456 26.7622 44.8004 26.6506C45.0875 26.4438 45.4209 26.3432 45.8474 26.3584C46.1532 26.3692 46.3882 26.4159 46.6019 26.6496L46.7063 26.7804C46.7245 26.8039 46.7448 26.8359 46.7595 26.8558C46.7747 26.8763 46.796 26.9075 46.8134 26.934Z" fill="#972823"/>
<path fill-rule="evenodd" clip-rule="evenodd" d="M51.6649 29.6083C51.203 29.3443 50.2292 29.5159 49.8052 29.7159L47.3107 27.1612C47.052 26.9083 47.0633 27.0231 47.099 26.6543L48.4019 26.716L48.4216 26.0476C48.7295 26.7612 48.2214 26.55 48.9752 27.1859L51.6649 29.6083Z" fill="#E78788"/>
<path fill-rule="evenodd" clip-rule="evenodd" d="M51.6657 29.6083C51.8377 30.3201 50.4881 31.8333 50.3513 31.9137C50.1353 32.0408 50.0798 31.9961 49.8961 32.118C49.7737 32.1991 49.7373 32.2808 49.6059 32.4041L49.5789 32.0493C49.1615 32.1856 48.5302 32.1894 48.0096 32.1617C47.2555 32.1215 47.2528 31.9392 46.7441 31.7741C47.6408 31.9447 47.5322 32.1359 48.7362 31.9731C49.5135 31.8683 50.1013 31.7971 50.2661 31.1689C50.1026 30.7509 49.4746 30.4173 49.8059 29.7159C50.2299 29.5159 51.2037 29.3443 51.6657 29.6083Z" fill="#D94540"/>
<path fill-rule="evenodd" clip-rule="evenodd" d="M20.7115 10.9033C20.4109 10.7782 20.519 10.7837 20.333 10.5934C20.2176 10.4758 20.2636 10.5125 20.1207 10.4161C19.5637 10.0406 19.3217 9.75766 18.8056 9.26751L17.6427 8.29294C17.412 8.64776 17.3561 9.3514 17.2632 9.8106L17.1851 10.2026C17.0527 10.9173 16.8405 11.2469 17.0937 11.6511C17.2605 11.9178 17.1838 11.7328 17.3014 11.9023C17.677 12.4441 17.3266 13.2806 17.4777 14.411L19.083 12.5907C19.5212 12.0853 19.533 12.2609 20.2978 11.3525L20.7115 10.9033ZM20.9527 10.9385C20.5762 11.2284 20.0259 11.9959 19.6351 12.3947L18.2295 13.9046C17.9878 14.1908 17.9626 14.1206 17.7244 14.3381C17.5384 14.5081 17.5029 14.6649 17.2839 14.8894C17.2902 14.2285 17.3037 13.5845 17.3244 12.9108C17.3613 11.717 16.8697 11.9605 16.8365 11.4194C16.8158 11.0838 17.396 8.30443 17.5042 7.93488L20.9527 10.9385Z" fill="#F5F2F2"/>
<path fill-rule="evenodd" clip-rule="evenodd" d="M13.7022 13.7495C13.2315 13.9433 13.2257 14.0951 12.8757 14.3852C12.4437 14.7431 12.3678 14.8534 11.9238 14.9611C12.1521 14.2726 12.9021 13.742 13.463 13.1815C13.6859 12.9585 13.816 12.8087 14.1324 12.6968L14.1736 13.8005C14.2969 14.1283 14.08 13.8536 14.3806 14.0706C14.3491 14.1783 14.3951 14.1563 14.3289 14.0442L15.316 13.4377C15.7225 13.1645 15.5027 13.1056 15.8645 12.8666C16.0066 12.7727 16.1162 12.7273 16.298 12.6326C15.7389 13.3802 15.8421 13.1046 15.3664 13.4966L14.0398 14.8899C13.833 14.6909 13.7966 14.7231 13.7658 14.1306C13.7616 14.0489 13.7638 13.9141 13.7526 13.8429C13.7494 13.8234 13.7366 13.786 13.7326 13.7757L13.7022 13.7495Z" fill="#2B2B2B"/>
<path fill-rule="evenodd" clip-rule="evenodd" d="M25.1373 10.2803C25.1323 10.5669 25.0576 10.5115 25.3313 10.479C25.2264 10.6688 25.3757 10.696 25.2144 10.5942C25.5775 10.5957 25.8369 10.4014 26.1116 10.2119L27.1196 9.68326L27.679 11.347C27.4083 11.105 27.4994 11.1867 27.3593 10.7734C27.1396 10.125 27.188 10.4758 27.0632 10.1709C26.2327 10.3325 25.1443 11.2748 24.3984 11.3145C24.4851 10.9385 24.8122 9.88352 24.6729 9.65055C24.6287 9.59936 24.555 9.48101 24.5318 9.45678C24.5527 9.43656 24.5817 9.41359 24.5989 9.40135L24.73 9.31196C24.7493 9.29973 24.772 9.28824 24.7922 9.27575L25.2372 8.96313C25.1485 9.55716 25.0948 9.87553 24.9907 10.4269C24.9223 10.1869 24.9583 10.4009 25.1373 10.2803Z" fill="#2B2B2B"/>
<path fill-rule="evenodd" clip-rule="evenodd" d="M46.255 23.5466L46.0275 23.7531C46.0128 23.7094 46.0615 23.3998 46.0545 23.3566C46.022 23.1564 45.9985 23.1778 45.9326 23.0782L45.9359 23.0567L46.0302 22.9239C46.2899 22.3194 45.9586 21.5219 45.7538 21.4387C45.206 21.2165 44.5071 22.633 43.9912 22.7646C43.8614 22.7808 43.4574 22.7504 43.2119 22.7489C42.8112 22.7466 42.5989 22.7072 42.3 22.8462C42.285 22.7179 42.2074 22.5189 42.1145 22.3606L41.9869 22.2567C41.9844 22.2572 41.9699 22.2742 41.9674 22.2749C41.9647 22.2754 41.949 22.2902 41.9462 22.2902C41.7889 22.2939 41.5732 21.5973 41.7307 21.4752C42.1048 21.7279 42.1804 21.9773 42.4573 22.5107L43.9633 22.5321C44.2239 22.2307 45.1466 21.2047 45.6572 21.2157C46.5641 21.2355 46.3551 22.855 46.255 23.5466Z" fill="#E78788"/>
<path fill-rule="evenodd" clip-rule="evenodd" d="M14.6502 48.3013L14.3324 48.4646C14.4742 48.6698 14.3853 48.543 14.4747 48.763L14.3728 48.8077C14.0467 48.6356 14.1618 48.5672 13.7421 48.5295C12.9825 48.4616 11.727 48.4921 11.1348 48.304L11.7465 47.7707C12.2237 47.8461 12.7456 47.8841 13.2899 47.9253C13.5451 47.9445 13.809 47.9537 14.0535 47.9809C14.4592 48.0256 14.5276 48.0141 14.6502 48.3013Z" fill="#D94540"/>
<path fill-rule="evenodd" clip-rule="evenodd" d="M41.9577 23.7045C41.7132 23.866 41.4743 24.0233 41.2301 24.1959C40.907 24.4241 40.8231 24.5934 40.5234 24.7355C40.5636 24.3894 40.7312 24.087 40.7766 23.5484C40.8233 22.9946 40.7701 22.7689 41.0471 22.3084C41.2458 22.3434 41.306 22.2655 41.6653 22.8303C41.8371 23.0997 41.907 23.3993 41.9577 23.7045Z" fill="#D94540"/>
<path fill-rule="evenodd" clip-rule="evenodd" d="M16.7679 16.4877L13.5251 19.8412C13.1046 20.1763 13.1738 19.9423 12.7913 19.8127C12.9189 19.4796 13.642 18.747 13.9591 18.4781L16.4403 15.8785C17.0041 15.3244 16.6563 15.1019 16.7742 13.761C16.8131 13.6969 16.8366 13.7161 16.9078 13.4869L16.9412 12.7151C16.7899 12.3842 17.0099 12.5957 16.6573 12.4444C17.0513 12.6342 16.926 12.9113 16.9222 13.4786C16.919 13.9451 16.8985 14.5396 16.8985 14.9094C16.8988 15.4582 17.0281 15.4962 16.6021 15.8558C16.2356 16.1654 16.2049 16.3462 15.9277 16.684C15.6558 17.0148 15.4048 17.0471 15.1641 17.3399C15.045 17.4853 15.1234 17.4201 15.0093 17.5572L14.6315 17.9265C14.3144 18.306 14.4782 18.3367 13.7518 18.9328C13.6497 19.0167 13.1279 19.2724 13.1084 19.7747C13.5533 19.7767 13.8592 19.3632 14.0917 19.0881C14.8003 18.2501 16.1512 17.0121 16.2433 16.9035C16.5322 16.5626 16.273 16.5357 16.7679 16.4877Z" fill="#0C0B0B"/>
<path fill-rule="evenodd" clip-rule="evenodd" d="M36.8046 10.021C36.7102 10.06 36.687 9.86997 36.7497 10.1529C36.489 10.3002 36.6373 10.1439 36.6563 10.429L37.0665 11.4396C37.2473 11.9337 37.3792 12.2034 37.5127 12.6721C37.0503 12.5517 36.276 11.868 35.8528 11.6089C35.2767 11.2565 34.5224 10.8395 34.1094 10.443C34.4073 10.5599 34.5488 10.6692 34.7718 10.8203C35.0318 10.9963 35.1843 11.0658 35.4036 11.2201C35.6208 11.3731 36.4086 12.0263 36.649 11.8915C36.8361 11.8915 36.8078 11.9484 36.8041 11.7954C36.9242 11.6026 36.8945 11.6411 36.7467 11.2031L36.1037 9.36658L37.0016 9.81278L36.8046 10.021Z" fill="#3A3939"/>
<path fill-rule="evenodd" clip-rule="evenodd" d="M27.0636 10.1709C27.1884 10.4758 27.14 10.125 27.3597 10.7734C27.4998 11.1867 27.4087 11.105 27.6793 11.347L27.12 9.68326L26.112 10.2119C25.8373 10.4014 25.5779 10.5957 25.2148 10.5942C25.3761 10.696 25.2268 10.6688 25.3317 10.479L27.1989 9.43481C27.37 9.82809 27.539 10.3375 27.6649 10.7687C27.7338 11.0057 27.7847 11.1892 27.8414 11.4436C28.006 12.1817 27.8444 12.0217 27.7787 12.0956C27.4204 11.7967 27.0456 10.554 27.0636 10.1709Z" fill="#0C0B0B"/>
<path fill-rule="evenodd" clip-rule="evenodd" d="M48.0136 13.0416L48.7435 15.0876C48.0793 15.0032 47.1599 13.9835 46.5217 13.7031C46.6602 13.5258 46.5951 13.6589 46.6515 13.383C46.5828 13.3585 46.4293 13.2898 46.3649 13.2868C46.3336 13.2853 46.1241 13.2501 46.0527 13.6099L46.0839 13.4379C46.1124 13.1413 46.0088 13.4082 46.1449 13.106C46.4662 13.132 47.4822 13.7635 47.6331 13.9877C47.6173 14.0252 47.5402 14.2879 47.5389 14.2914L48.4301 14.7208C48.3018 14.211 47.9122 13.5423 47.912 13.0087L48.0136 13.0416Z" fill="#141313"/>
<path fill-rule="evenodd" clip-rule="evenodd" d="M46.2931 27.3919C46.2813 26.9862 46.1712 26.8965 45.7555 26.9502C45.6923 27.4486 45.8112 27.5035 46.2931 27.3919ZM46.8117 26.934C47.0175 27.1527 46.8546 27.5517 46.7363 27.8107L46.5028 27.537C46.0434 27.7448 46.0701 27.7959 45.6007 27.5792C45.1872 26.2056 46.3465 26.7567 46.399 26.8483C46.5685 27.144 46.5325 27.2022 46.597 27.4876C46.6097 27.4603 46.6207 27.3859 46.6224 27.4009C46.6239 27.4146 46.6397 27.3385 46.6414 27.32C46.6636 27.0771 46.5186 27.0321 46.8117 26.934Z" fill="#D94540"/>
<path fill-rule="evenodd" clip-rule="evenodd" d="M45.9355 23.0568L45.9323 23.0782L45.911 23.4181C45.7902 23.3879 45.1647 23.0068 44.9827 22.8885C45.1392 22.5629 45.5892 22.1251 45.9313 22.0405L45.9355 23.0568Z" fill="#972823"/>
<path fill-rule="evenodd" clip-rule="evenodd" d="M25.1373 10.2803C24.9583 10.4009 24.9223 10.1869 24.9908 10.4269C25.0949 9.87553 25.1486 9.55716 25.2372 8.96313L24.7922 9.27575C24.772 9.28824 24.7493 9.29972 24.7301 9.31196L24.599 9.40135C24.5818 9.41359 24.5528 9.43656 24.5318 9.45678C24.555 9.481 24.6287 9.59936 24.6729 9.65055C24.4954 9.87353 24.0369 10.1856 23.6287 10.2978C23.8744 9.73619 25.0519 8.73191 25.3998 8.61206L25.1373 10.2803Z" fill="#0C0B0B"/>
<path fill-rule="evenodd" clip-rule="evenodd" d="M46.522 13.7031C46.3837 13.9363 46.543 13.7528 46.3592 14.2033C46.3502 14.2252 46.3315 14.2562 46.3155 14.2814C45.7222 13.999 45.5434 13.6766 45.2403 13.5728C45.4613 13.3021 44.8006 13.2257 45.5806 13.4352C45.5926 13.4382 45.7986 13.5633 45.8558 13.5952L46.0843 13.4379L46.0531 13.61C46.1245 13.2502 46.334 13.2854 46.3652 13.2869C46.4296 13.2899 46.5832 13.3585 46.6518 13.383C46.5954 13.6589 46.6606 13.5258 46.522 13.7031Z" fill="#32302E"/>
<path fill-rule="evenodd" clip-rule="evenodd" d="M14.4763 48.763C14.3869 48.543 14.4758 48.6699 14.334 48.4646L14.6518 48.3013C14.9228 48.7218 15.3248 48.8736 15.4788 49.5381C14.8936 49.5456 15.0481 49.5823 14.8119 49.214C14.6843 49.015 14.5964 48.8981 14.4763 48.763Z" fill="#D94540"/>
<path fill-rule="evenodd" clip-rule="evenodd" d="M46.2937 27.4633C45.7044 27.5924 45.5591 27.5288 45.6362 26.9522C46.1446 26.8903 46.2792 26.9939 46.2937 27.4633Z" fill="#F1F1F1"/>
<path d="M54.4186 37.6585V48.9747H55.6953V49.7486H50.0469V48.9747H51.575V37.6585H50.0469V36.8847H62.8526V37.6585H61.3244V48.9747H62.8526V49.7486H57.2234V48.9747H58.4809V37.6585H54.4186ZM68.6363 37.407H67.2243V36.6332H72.9308V37.407H71.4993L74.8652 48.9747H76.1419V49.7486H70.6289V48.9747H72.0217L70.6481 44.216C70.3387 45.6313 69.8164 46.8953 69.0812 48.0139C68.2043 49.339 67.2759 50 66.2959 50C65.7026 50 65.2254 49.8322 64.8644 49.4969C64.4386 49.0973 64.2259 48.5265 64.2259 47.7784C64.2259 46.8016 64.5033 45.6992 65.0576 44.4772C65.4834 43.5486 66.1476 42.3977 67.0502 41.0179C67.4243 40.4666 67.7981 39.912 68.1721 39.3574C68.5074 38.7901 68.675 38.2775 68.675 37.8133C68.675 37.7229 68.6623 37.5876 68.6363 37.407ZM65.9089 46.502C65.9089 46.9015 66.0055 47.2014 66.199 47.4079C66.3925 47.6141 66.6312 47.7173 66.9149 47.7173C67.263 47.7173 67.5466 47.5819 67.7658 47.311C68.1786 46.7857 68.6106 46.1344 69.062 45.3639C69.681 44.3064 70.0291 43.4777 70.1065 42.8749L69.2748 39.5542C68.862 40.1215 68.4495 40.6793 68.0368 41.2339C67.6884 41.7206 67.4113 42.1593 67.205 42.5461C66.9471 43.007 66.6762 43.639 66.3925 44.4353C66.0702 45.3509 65.9089 46.0376 65.9089 46.502ZM81.3648 44.835V48.9747H82.893V49.7486H76.9737V48.9747H78.5018L78.5213 42.2429V38.1227C78.5213 37.5811 79.0242 37.1813 80.0299 36.9234C80.8038 36.7299 81.7903 36.6332 82.9896 36.6332C84.4341 36.6332 85.5817 36.9878 86.4329 37.6972C87.2324 38.3676 87.6322 39.2383 87.6322 40.3085C87.6322 41.3273 87.3388 42.1753 86.7553 42.8524C86.1685 43.5294 85.4334 43.8679 84.5467 43.8679C84.1859 43.8679 83.86 43.8035 83.5636 43.6744C83.3314 43.5456 83.1574 43.4487 83.0413 43.3843L82.6383 43.1908L81.3648 44.835ZM81.3648 43.7324L82.5384 42.2429C82.7671 42.4492 82.9928 42.5525 83.2088 42.5525C83.6086 42.5525 83.9052 42.3428 84.1052 41.9238C84.3018 41.5046 84.4019 40.9535 84.4019 40.2698C84.4019 39.3672 84.3115 38.703 84.1342 38.2775C83.8893 37.6972 83.4668 37.407 82.864 37.407C82.1708 37.407 81.7226 37.8325 81.5196 38.6837C81.4163 39.1092 81.3648 39.9669 81.3648 41.2564V43.7324ZM96.2542 48.9747L94.2424 39.6508C93.5333 40.747 93.0049 41.7533 92.6564 42.6687C92.3088 43.581 92.134 44.5351 92.134 45.5282C92.134 45.8892 92.1922 46.5342 92.308 47.4626C92.3725 47.9782 92.4049 48.346 92.4049 48.5652C92.4049 48.6813 92.4049 48.7975 92.4049 48.9133C92.4049 49.0294 92.4049 49.1455 92.4049 49.2616C92.4049 49.3518 92.3982 49.4422 92.3854 49.5323C92.3724 49.6227 92.353 49.6874 92.3275 49.7323C92.3018 49.7773 92.2309 49.8235 92.1178 49.8677C92.0021 49.9134 91.8663 49.9386 91.7118 49.9386C91.6084 49.9386 91.4923 49.9288 91.3569 49.9096C91.2218 49.8904 91.115 49.8789 91.0378 49.8741C90.9637 49.8697 90.87 49.8612 90.7607 49.8549C90.651 49.8484 90.5769 49.8452 90.5382 49.8452C90.3092 49.8452 90.1152 49.8597 89.9611 49.8904C89.8093 49.9206 89.6935 49.9386 89.6161 49.9386C89.3968 49.9386 89.2388 49.8449 89.1356 49.6647C89.0328 49.4844 88.9808 49.1358 88.9808 48.6167C88.9808 47.714 89.1097 46.8723 89.3679 46.0957C89.5863 45.438 89.9364 44.7389 90.4123 44C90.6196 43.6784 91.1017 43.0062 91.8631 41.985C92.5198 41.1046 92.9757 40.4229 93.2367 39.9475C93.6072 39.2723 93.7975 38.661 93.7975 38.1035C93.7975 38.0388 93.8082 37.9671 93.7975 37.8905C93.7827 37.7853 93.7588 37.7102 93.7588 37.6585H92.4049V36.8847H97.6663V37.6585H96.6218L98.9624 48.4524L100.993 37.6585H100.2V36.8847H105.133V37.6585H103.953L106.41 48.9747H107.667V49.7486H102.754V48.9747H103.566L101.474 39.2898L99.6718 48.9747H100.645V49.7486H95.2677V48.9747H96.2542ZM113.161 37.407H111.749V36.6332H117.455V37.407H116.024L119.39 48.9747H120.666V49.7486H115.153V48.9747H116.546L115.173 44.216C114.863 45.6313 114.343 46.8968 113.606 48.0139C112.731 49.34 111.8 50 110.82 50C110.227 50 109.749 49.8332 109.389 49.4969C108.962 49.0986 108.751 48.5265 108.751 47.7784C108.751 46.8016 109.026 45.698 109.582 44.4772C110.006 43.5481 110.665 42.3932 111.575 41.0179C111.942 40.4623 112.339 39.9227 112.697 39.3574C113.049 38.8006 113.2 38.2775 113.2 37.8133C113.2 37.7229 113.187 37.5876 113.161 37.407ZM110.433 46.502C110.433 46.9015 110.53 47.2016 110.724 47.4079C110.917 47.6139 111.156 47.7173 111.439 47.7173C111.788 47.7173 112.074 47.5839 112.291 47.311C112.705 46.7879 113.135 46.1342 113.586 45.3639C114.205 44.3064 114.554 43.4777 114.631 42.8749L113.799 39.5542C113.387 40.1215 112.969 40.6758 112.561 41.2339C112.208 41.7171 111.94 42.1615 111.729 42.5461C111.476 43.0092 111.199 43.6385 110.917 44.4353C110.593 45.3501 110.433 46.0376 110.433 46.502Z" fill="#343333"/>
<path d="M59.8652 27.4009H67.4126V28.6327H62.1215V34.6901H59.8652V27.4009ZM68.5771 34.6901V27.4009H72.1848C73.5516 27.4009 74.441 27.4366 74.8563 27.5096C75.4942 27.6199 76.0283 27.8574 76.4591 28.2239C76.8896 28.5905 77.1048 29.0639 77.1048 29.644C77.1048 30.0919 76.9802 30.467 76.734 30.7723C76.485 31.0777 76.1712 31.3169 75.7899 31.4917C75.4086 31.6648 75.0196 31.7801 74.6253 31.8363C74.0884 31.9057 73.3129 31.9414 72.2961 31.9414H70.8334V34.6901H68.5771ZM70.8334 28.6327V30.7097H72.0602C72.9446 30.7097 73.5334 30.6705 73.8318 30.5943C74.1299 30.5179 74.3634 30.399 74.5319 30.2345C74.7005 30.0717 74.7861 29.8832 74.7861 29.6662C74.7861 29.3998 74.6668 29.1808 74.4308 29.0077C74.1921 28.8347 73.8939 28.7261 73.5281 28.6821C73.261 28.6497 72.7241 28.6327 71.9148 28.6327H70.8334ZM87.627 34.6901H85.197L84.2346 33.0309H79.7658L78.8399 34.6901H76.4538L80.7801 27.4009H83.1634L87.627 34.6901ZM83.5033 31.7988L81.9549 29.1011L80.4507 31.7988H83.5033ZM88.828 34.6901V27.4009H91.0843V30.272H95.4727V27.4009H97.7292V34.6901H95.4727V31.5037H91.0843V34.6901H88.828ZM100.097 27.4009H102.198V32.2535L106.711 27.4009H108.952V34.6901H106.851V29.9156L102.338 34.6901H100.097V27.4009ZM113.758 34.6901V28.6327H110.459V27.4009H119.298V28.6327H116.014V34.6901H113.758Z" fill="#808080"/>
</svg>
