<svg width="25" height="25" viewBox="0 0 25 25" fill="none" xmlns="http://www.w3.org/2000/svg">
<path fill-rule="evenodd" clip-rule="evenodd" d="M12.7054 21.958C10.8302 21.958 9.95879 21.6843 8.44405 20.5893C7.48594 21.8211 4.4519 22.7838 4.31959 21.1368C4.31959 19.9003 4.04584 18.8555 3.73559 17.7149C3.36604 16.3097 2.94629 14.7448 2.94629 12.4772C2.94629 7.06158 7.39012 2.9873 12.6552 2.9873C17.9248 2.9873 22.0539 7.26233 22.0539 12.5274C22.0716 17.7111 17.889 21.9304 12.7054 21.958ZM12.783 7.66839C10.2188 7.53608 8.22049 9.31088 7.77793 12.094C7.41294 14.398 8.06081 17.2039 8.61286 17.3499C8.87749 17.4138 9.54361 16.8754 9.95879 16.4603C10.6453 16.9345 11.4448 17.2194 12.2765 17.2861C14.9334 17.4139 17.2035 15.3912 17.3819 12.7373C17.4858 10.0778 15.4402 7.82515 12.783 7.67295L12.783 7.66839Z" fill="black"/>
</svg>
