<svg width="60" height="60" viewBox="0 0 60 60" fill="none" xmlns="http://www.w3.org/2000/svg">
<path fill-rule="evenodd" clip-rule="evenodd" d="M20.4 10C19.078 10.0004 17.7796 10.3503 16.6364 11.0141C15.4932 11.6779 14.5457 12.6321 13.89 13.78L8.9075 22.5H6C5.73479 22.5 5.48043 22.6054 5.29289 22.7929C5.10536 22.9804 5 23.2348 5 23.5V24.6875C4.99951 25.1339 5.14839 25.5677 5.42294 25.9197C5.69748 26.2717 6.08191 26.5217 6.515 26.63L6.575 26.6425C5.53109 28.8092 5.1344 31.231 5.4325 33.6175L7.245 48.12C7.39614 49.3295 7.98389 50.4421 8.89774 51.2487C9.81159 52.0553 10.9886 52.5003 12.2075 52.5H12.5C13.8261 52.5 15.0979 51.9732 16.0355 51.0355C16.9732 50.0979 17.5 48.8261 17.5 47.5H42.5C42.5 48.8261 43.0268 50.0979 43.9645 51.0355C44.9022 51.9732 46.1739 52.5 47.5 52.5H47.7925C49.0114 52.5003 50.1884 52.0553 51.1023 51.2487C52.0161 50.4421 52.6039 49.3295 52.755 48.12L54.5675 33.62C54.8656 31.2335 54.4689 28.8117 53.425 26.645L53.485 26.63C53.9181 26.5217 54.3025 26.2717 54.5771 25.9197C54.8516 25.5677 55.0005 25.1339 55 24.6875V23.5C55 23.2348 54.8946 22.9804 54.7071 22.7929C54.5196 22.6054 54.2652 22.5 54 22.5H51.0925L46.11 13.78C45.4543 12.6321 44.5068 11.6779 43.3636 11.0141C42.2204 10.3503 40.922 10.0004 39.6 10H20.4ZM46.055 23.76L41.77 16.26C41.5512 15.877 41.235 15.5587 40.8535 15.3374C40.4719 15.1161 40.0386 14.9997 39.5975 15H20.4025C19.9614 14.9997 19.5281 15.1161 19.1466 15.3374C18.765 15.5587 18.4488 15.877 18.23 16.26L13.945 23.76C13.7279 24.1401 13.6143 24.5707 13.6158 25.0084C13.6173 25.4462 13.7337 25.876 13.9534 26.2546C14.1731 26.6333 14.4884 26.9476 14.8678 27.1662C15.2471 27.3848 15.6772 27.4999 16.115 27.5H43.885C44.3228 27.4999 44.7529 27.3848 45.1322 27.1662C45.5116 26.9476 45.8269 26.6333 46.0466 26.2546C46.2663 25.876 46.3827 25.4462 46.3842 25.0084C46.3857 24.5707 46.2722 24.1401 46.055 23.76ZM12.5 37.5975V35.8475C12.4999 35.6309 12.556 35.4181 12.6629 35.2297C12.7699 35.0414 12.9239 34.8841 13.1099 34.7731C13.2959 34.6622 13.5075 34.6016 13.7241 34.5971C13.9406 34.5926 14.1545 34.6444 14.345 34.7475L21.2 38.4475C22.1325 38.9525 21.745 40.37 20.685 40.3275L14.9 40.095C14.2553 40.0692 13.6456 39.7951 13.1983 39.3301C12.751 38.8651 12.5008 38.2452 12.5 37.6V37.5975ZM47.5 35.8475V37.5975C47.5005 38.2436 47.2509 38.8648 46.8035 39.3308C46.356 39.7969 45.7456 40.0717 45.1 40.0975L39.315 40.3275C38.255 40.37 37.865 38.9525 38.8 38.4475L45.655 34.7475C45.8455 34.6444 46.0594 34.5926 46.276 34.5971C46.4925 34.6016 46.7041 34.6622 46.8901 34.7731C47.0761 34.8841 47.2302 35.0414 47.3371 35.2297C47.444 35.4181 47.5001 35.6309 47.5 35.8475Z" fill="#D94540"/>
</svg>
