<svg width="60" height="60" viewBox="0 0 60 60" fill="none" xmlns="http://www.w3.org/2000/svg">
<path d="M48.75 7.5H11.25C10.2554 7.5 9.30161 7.89509 8.59835 8.59835C7.89509 9.30161 7.5 10.2554 7.5 11.25V48.75C7.5 49.7446 7.89509 50.6984 8.59835 51.4016C9.30161 52.1049 10.2554 52.5 11.25 52.5H48.75C49.7446 52.5 50.6984 52.1049 51.4016 51.4016C52.1049 50.6984 52.5 49.7446 52.5 48.75V11.25C52.5 10.2554 52.1049 9.30161 51.4016 8.59835C50.6984 7.89509 49.7446 7.5 48.75 7.5ZM15.9375 44.0625C15.3812 44.0625 14.8375 43.8975 14.375 43.5885C13.9124 43.2795 13.552 42.8402 13.3391 42.3263C13.1262 41.8124 13.0705 41.2469 13.179 40.7013C13.2876 40.1557 13.5554 39.6546 13.9488 39.2613C14.3421 38.8679 14.8432 38.6001 15.3888 38.4915C15.9344 38.383 16.4999 38.4387 17.0138 38.6516C17.5277 38.8645 17.967 39.2249 18.276 39.6875C18.5851 40.15 18.75 40.6937 18.75 41.25C18.75 41.9959 18.4537 42.7113 17.9262 43.2387C17.3988 43.7662 16.6834 44.0625 15.9375 44.0625ZM15.9375 32.8125C15.3812 32.8125 14.8375 32.6475 14.375 32.3385C13.9124 32.0295 13.552 31.5902 13.3391 31.0763C13.1262 30.5624 13.0705 29.9969 13.179 29.4513C13.2876 28.9057 13.5554 28.4046 13.9488 28.0113C14.3421 27.6179 14.8432 27.3501 15.3888 27.2415C15.9344 27.133 16.4999 27.1887 17.0138 27.4016C17.5277 27.6145 17.967 27.9749 18.276 28.4375C18.5851 28.9 18.75 29.4437 18.75 30C18.75 30.7459 18.4537 31.4613 17.9262 31.9887C17.3988 32.5162 16.6834 32.8125 15.9375 32.8125ZM15.9375 21.5625C15.3812 21.5625 14.8375 21.3976 14.375 21.0885C13.9124 20.7795 13.552 20.3402 13.3391 19.8263C13.1262 19.3124 13.0705 18.7469 13.179 18.2013C13.2876 17.6557 13.5554 17.1546 13.9488 16.7613C14.3421 16.3679 14.8432 16.1001 15.3888 15.9915C15.9344 15.883 16.4999 15.9387 17.0138 16.1516C17.5277 16.3645 17.967 16.7249 18.276 17.1875C18.5851 17.65 18.75 18.1937 18.75 18.75C18.75 19.4959 18.4537 20.2113 17.9262 20.7387C17.3988 21.2662 16.6834 21.5625 15.9375 21.5625ZM45 43.125H24.375C23.8777 43.125 23.4008 42.9275 23.0492 42.5758C22.6975 42.2242 22.5 41.7473 22.5 41.25C22.5 40.7527 22.6975 40.2758 23.0492 39.9242C23.4008 39.5725 23.8777 39.375 24.375 39.375H45C45.4973 39.375 45.9742 39.5725 46.3258 39.9242C46.6775 40.2758 46.875 40.7527 46.875 41.25C46.875 41.7473 46.6775 42.2242 46.3258 42.5758C45.9742 42.9275 45.4973 43.125 45 43.125ZM45 31.875H24.375C23.8777 31.875 23.4008 31.6775 23.0492 31.3258C22.6975 30.9742 22.5 30.4973 22.5 30C22.5 29.5027 22.6975 29.0258 23.0492 28.6742C23.4008 28.3225 23.8777 28.125 24.375 28.125H45C45.4973 28.125 45.9742 28.3225 46.3258 28.6742C46.6775 29.0258 46.875 29.5027 46.875 30C46.875 30.4973 46.6775 30.9742 46.3258 31.3258C45.9742 31.6775 45.4973 31.875 45 31.875ZM45 20.625H24.375C23.8777 20.625 23.4008 20.4275 23.0492 20.0758C22.6975 19.7242 22.5 19.2473 22.5 18.75C22.5 18.2527 22.6975 17.7758 23.0492 17.4242C23.4008 17.0725 23.8777 16.875 24.375 16.875H45C45.4973 16.875 45.9742 17.0725 46.3258 17.4242C46.6775 17.7758 46.875 18.2527 46.875 18.75C46.875 19.2473 46.6775 19.7242 46.3258 20.0758C45.9742 20.4275 45.4973 20.625 45 20.625Z" fill="#D94540"/>
</svg>
