<svg width="25" height="25" viewBox="0 0 25 25" fill="none" xmlns="http://www.w3.org/2000/svg">
<path fill-rule="evenodd" clip-rule="evenodd" d="M8.33321 7.29167C8.33321 6.1866 8.77219 5.12679 9.55359 4.34539C10.335 3.56399 11.3948 3.125 12.4999 3.125C13.6049 3.125 14.6647 3.56399 15.4461 4.34539C16.2276 5.12679 16.6665 6.1866 16.6665 7.29167C16.6665 8.39674 16.2276 9.45654 15.4461 10.2379C14.6647 11.0193 13.6049 11.4583 12.4999 11.4583C11.3948 11.4583 10.335 11.0193 9.55359 10.2379C8.77219 9.45654 8.33321 8.39674 8.33321 7.29167ZM8.33321 13.5417C6.95187 13.5417 5.62711 14.0904 4.65036 15.0672C3.67361 16.0439 3.12487 17.3687 3.12487 18.75C3.12487 19.5788 2.98533 20.8425 3.57138 21.4286C4.15743 22.0146 5.42107 21.875 6.24987 21.875H18.7499C19.5787 21.875 20.8425 22.0146 21.4285 21.4286C22.0146 20.8425 21.8749 19.5788 21.8749 18.75C21.8749 17.3687 21.3261 16.0439 20.3494 15.0672C19.3726 14.0904 18.0479 13.5417 16.6665 13.5417H8.33321Z" fill="black"/>
<rect x="3.10693" y="18.75" width="18.7768" height="1.33929" fill="white"/>
</svg>
