<svg width="60" height="60" viewBox="0 0 60 60" fill="none" xmlns="http://www.w3.org/2000/svg">
<path d="M39.7606 44.8343V54.0919L44.196 55.9379V42.4083C42.8028 43.3639 41.3168 44.1766 39.7606 44.8343ZM15.8035 42.4083V55.8456L20.239 53.9995V44.8343C18.6828 44.1767 17.1968 43.3639 15.8035 42.4083ZM29.9997 46.8038C27.9053 46.8049 25.8189 46.5443 23.7892 46.0279V60L29.9997 57.4152L36.2103 59.9999V46.0279C34.1805 46.5442 32.0942 46.8049 29.9997 46.8038ZM29.9997 0C18.0747 0 8.37305 9.7017 8.37305 21.6268C8.37305 33.5519 18.0747 43.2535 29.9997 43.2535C41.9247 43.2535 51.6265 33.5518 51.6265 21.6267C51.6265 9.70158 41.9248 0 29.9997 0ZM29.9997 38.6835C20.5459 38.6835 12.8545 30.9922 12.8545 21.5383C12.8545 12.0844 20.5459 4.393 29.9997 4.393C39.4536 4.393 47.1449 12.0844 47.1449 21.5383C47.1449 30.9923 39.4537 38.6835 29.9997 38.6835ZM29.9997 7.94319C22.5035 7.94319 16.4047 14.0418 16.4047 21.5383C16.4047 29.0348 22.5035 35.1332 29.9997 35.1332C37.496 35.1332 43.5947 29.0346 43.5947 21.5382C43.5947 14.0418 37.4961 7.94319 29.9997 7.94319ZM35.5873 29.4726L29.9997 26.5351L24.4122 29.4726L25.4793 23.2509L20.959 18.8447L27.2061 17.9368L29.9997 12.276L32.7935 17.9368L39.0406 18.8447L34.5202 23.2509L35.5873 29.4726Z" fill="#D94540"/>
</svg>
