<svg width="12" height="12" viewBox="0 0 12 12" fill="none" xmlns="http://www.w3.org/2000/svg">
<g clip-path="url(#clip0_154_2712)">
<path d="M4.26166 10.4184C4.5232 10.4184 4.73523 10.2064 4.73523 9.94482C4.73523 9.68328 4.5232 9.47125 4.26166 9.47125C4.00011 9.47125 3.78809 9.68328 3.78809 9.94482C3.78809 10.2064 4.00011 10.4184 4.26166 10.4184Z" stroke="#D94540" stroke-width="0.866667" stroke-linecap="round" stroke-linejoin="round"/>
<path d="M9.47162 10.4184C9.73316 10.4184 9.94519 10.2064 9.94519 9.94482C9.94519 9.68328 9.73316 9.47125 9.47162 9.47125C9.21007 9.47125 8.99805 9.68328 8.99805 9.94482C8.99805 10.2064 9.21007 10.4184 9.47162 10.4184Z" stroke="#D94540" stroke-width="0.866667" stroke-linecap="round" stroke-linejoin="round"/>
<path d="M0.473633 0.473633H2.36792L3.63709 6.81475C3.6804 7.03278 3.79901 7.22864 3.97216 7.36803C4.14532 7.50742 4.36198 7.58146 4.58423 7.5772H9.18735C9.40959 7.58146 9.62626 7.50742 9.79942 7.36803C9.97257 7.22864 10.0912 7.03278 10.1345 6.81475L10.8922 2.84149H2.84149" stroke="#D94540" stroke-width="0.866667" stroke-linecap="round" stroke-linejoin="round"/>
</g>
<defs>
<clipPath id="clip0_154_2712">
<rect width="11.3657" height="11.3657" fill="white"/>
</clipPath>
</defs>
</svg>
