<svg width="60" height="60" viewBox="0 0 60 60" fill="none" xmlns="http://www.w3.org/2000/svg">
<path d="M22.585 14.9074L16.2275 21.2499C15.06 22.4149 13.9875 23.4824 13.14 24.4499C12.5665 25.0878 12.0487 25.7736 11.5925 26.4999L11.5325 26.4374L11.295 26.2024C10.1874 25.1325 8.88804 24.2809 7.46495 23.6924L7.15745 23.5674L6.20995 23.1924C5.91488 23.0761 5.65342 22.8881 5.44918 22.6455C5.24494 22.4028 5.10434 22.1131 5.04009 21.8025C4.97584 21.4919 4.98995 21.1702 5.08114 20.8664C5.17234 20.5626 5.33775 20.2863 5.56245 20.0624C8.36245 17.2674 11.725 13.9149 13.35 13.2424C14.7613 12.6529 16.3056 12.4551 17.82 12.6699C19.185 12.8724 20.475 13.5749 22.585 14.9074ZM33.4425 48.2824C33.955 48.8024 34.2924 49.1699 34.6025 49.5625C35.0075 50.0808 35.3691 50.6291 35.6875 51.2074C36.0424 51.8574 36.32 52.5499 36.8725 53.9375C36.9809 54.1999 37.1524 54.4314 37.3718 54.6116C37.5912 54.7919 37.8517 54.9151 38.1301 54.9705C38.4086 55.0259 38.6964 55.0117 38.9681 54.9292C39.2398 54.8467 39.4869 54.6984 39.6875 54.4974L39.8974 54.2899C42.6975 51.4974 46.06 48.1449 46.735 46.5275C47.3279 45.1223 47.5258 43.5819 47.3075 42.0724C47.105 40.7099 46.4025 39.4224 45.065 37.3174L38.685 43.6775C37.49 44.8699 36.395 45.9624 35.4025 46.8174C34.81 47.3324 34.16 47.8424 33.4425 48.2824Z" fill="#D94540"/>
<path fill-rule="evenodd" clip-rule="evenodd" d="M36.1175 40.9425L50.735 26.3675C52.84 24.27 53.8925 23.22 54.445 21.8875C54.9975 20.555 55 19.0675 55 16.1V14.6825C55 10.1175 55 7.835 53.5775 6.4175C52.155 5 49.8675 5 45.29 5H43.865C40.89 5 39.4025 5 38.065 5.5525C36.725 6.105 35.6725 7.155 33.565 9.2525L18.95 23.8275C16.49 26.2775 14.965 27.8 14.375 29.2675C14.1922 29.7135 14.0971 30.1905 14.095 30.6725C14.095 32.6775 15.7125 34.2925 18.95 37.52L19.385 37.9525L24.48 32.78C24.6528 32.6045 24.8585 32.4648 25.0854 32.3688C25.3122 32.2729 25.5558 32.2225 25.8021 32.2206C26.0484 32.2188 26.2926 32.2655 26.5209 32.358C26.7492 32.4506 26.957 32.5871 27.1325 32.76C27.3079 32.9329 27.4477 33.1386 27.5436 33.3654C27.6396 33.5923 27.69 33.8358 27.6918 34.0821C27.6937 34.3284 27.647 34.5727 27.5545 34.8009C27.4619 35.0292 27.3253 35.237 27.1525 35.4125L22.04 40.6L22.3825 40.9425C25.62 44.1675 27.24 45.7825 29.25 45.7825C29.695 45.7825 30.12 45.705 30.5475 45.5475C32.055 44.9925 33.595 43.4575 36.1175 40.9425ZM42.985 23.8275C42.0731 24.736 40.8384 25.2461 39.5512 25.2461C38.264 25.2461 37.0293 24.736 36.1175 23.8275C35.6662 23.3791 35.3081 22.8458 35.0637 22.2585C34.8193 21.6711 34.6935 21.0412 34.6935 20.405C34.6935 19.7688 34.8193 19.1389 35.0637 18.5515C35.3081 17.9642 35.6662 17.4309 36.1175 16.9825C37.0293 16.074 38.264 15.5639 39.5512 15.5639C40.8384 15.5639 42.0731 16.074 42.985 16.9825C43.4362 17.4309 43.7944 17.9642 44.0387 18.5515C44.2831 19.1389 44.4089 19.7688 44.4089 20.405C44.4089 21.0412 44.2831 21.6711 44.0387 22.2585C43.7944 22.8458 43.4362 23.3791 42.985 23.8275Z" fill="#D94540"/>
</svg>
