<svg width="15" height="15" viewBox="0 0 15 15" fill="none" xmlns="http://www.w3.org/2000/svg">
<path d="M12.1878 7.85749L7.50031 12.5L2.81281 7.85749C2.50363 7.55662 2.26009 7.195 2.09753 6.79539C1.93497 6.39577 1.85691 5.96683 1.86827 5.53557C1.87963 5.10431 1.98016 4.68007 2.16353 4.28957C2.34691 3.89907 2.60914 3.55077 2.93374 3.2666C3.25833 2.98243 3.63825 2.76854 4.04957 2.63841C4.46088 2.50828 4.89469 2.46473 5.32367 2.51049C5.75264 2.55625 6.1675 2.69034 6.54211 2.9043C6.91672 3.11827 7.24297 3.40749 7.50031 3.75374C7.75877 3.41 8.0854 3.12331 8.45975 2.91162C8.8341 2.69992 9.24812 2.56777 9.67589 2.52344C10.1037 2.47911 10.536 2.52355 10.9458 2.65398C11.3556 2.78442 11.7341 2.99803 12.0575 3.28147C12.381 3.5649 12.6425 3.91204 12.8256 4.30117C13.0087 4.6903 13.1095 5.11304 13.1218 5.54293C13.134 5.97282 13.0573 6.40061 12.8966 6.79952C12.7359 7.19843 12.4946 7.55988 12.1878 7.86124" stroke="#343333" stroke-linecap="round" stroke-linejoin="round"/>
</svg>
