<svg width="403" height="167" viewBox="0 0 403 167" fill="none" xmlns="http://www.w3.org/2000/svg">
<path fill-rule="evenodd" clip-rule="evenodd" d="M156.344 89.9596C156.286 89.8712 156.215 89.7669 156.164 89.6985C156.115 89.6318 156.047 89.5251 155.986 89.4467L155.638 89.0097C154.924 88.2291 154.139 88.0731 153.118 88.0372C151.693 87.9864 150.58 88.3225 149.621 89.013C149.104 89.3858 147.715 90.6509 147.183 91.2531C145.054 93.6641 148.479 101.977 153.883 95.1328C155.965 92.4957 155.169 93.9068 156.092 92.8877C156.488 92.0228 157.031 90.6901 156.344 89.9596ZM140.127 79.1728C139.957 78.1537 139.724 77.1529 139.15 76.253C137.95 74.3666 137.749 74.6268 137.085 74.51C136.16 76.0479 136.338 76.8018 136.182 78.6516C136.03 80.4505 135.471 81.4604 135.336 82.6163C136.337 82.1418 136.617 81.5764 137.696 80.8141C138.512 80.2378 139.31 79.7124 140.127 79.1728ZM139.371 71.727C138.845 72.1348 139.565 74.4616 140.091 74.4491C140.1 74.4491 140.152 74.3999 140.162 74.3983C140.17 74.3958 140.218 74.339 140.227 74.3374L140.653 74.6843C140.963 75.2131 141.222 75.8777 141.272 76.3064C142.271 75.8419 142.979 75.9737 144.318 75.9812C145.138 75.9862 146.487 76.0879 146.921 76.0337C148.644 75.5942 150.978 70.863 152.807 71.6052C153.491 71.883 154.598 74.5467 153.731 76.5658L153.415 77.0095L153.401 73.6151C152.259 73.8979 150.756 75.3598 150.233 76.4474C150.841 76.8427 152.93 78.1153 153.334 78.2162L153.404 77.0812C153.625 77.4139 153.703 77.3422 153.811 78.0111C153.835 78.1554 153.672 79.1895 153.721 79.3354L154.481 78.6457C154.539 79.624 157.603 81.7407 158.358 82.5163C159.129 83.3069 161.431 85.6595 161.719 86.9989L161.653 89.2315L157.301 89.0255C157.182 90.2573 157.145 89.8737 158.009 90.7185L166.34 99.251C165.233 101.594 167.33 102.708 167.877 104.104C167.326 106.202 165.363 106.44 162.767 106.79C158.746 107.334 159.109 106.695 156.114 106.126C157.813 106.677 157.822 107.286 160.34 107.42C162.079 107.512 164.187 107.5 165.582 107.045L165.672 108.23C165.616 109.131 165.488 109.024 164.039 109.455C163.121 109.728 162.529 109.852 161.623 109.929C161.084 109.975 156.426 110.147 156.882 109.612C156.208 108.874 157.109 109.335 155.619 108.748C153.688 107.989 139.505 108.416 136.446 108.313C134.065 108.233 133.814 108.196 132.859 106.406C132.051 104.892 131.796 104.183 131.228 102.703C130.1 99.7589 129.704 97.729 129.099 94.5031C127.561 95.9426 123.646 96.287 121.064 96.3637C112.613 96.6156 115.671 95.0711 113.602 94.0594C113.693 97.6064 113.323 100.959 113.125 104.429C112.774 110.598 112.576 108.699 110.832 112.378C108.626 117.03 105.992 121.509 103.553 125.86C99.2371 133.556 99.1087 133.442 98.4107 141.494C97.907 147.306 97.5159 154.934 96.305 160.575C98.7918 160.616 102.415 162.129 105.659 162.193C106.401 162.208 112.492 161.052 112.292 165.477C109.76 165.504 110.56 165.117 109.117 163.728L109.001 164.805C109.002 164.822 109.133 165.281 109.157 165.443C107.498 165.81 101.905 165.454 99.6891 165.477C98.0137 165.494 96.2766 165.389 94.6371 165.435C90.7835 165.544 93.568 164.621 91.1213 164.423C90.5725 164.185 91.1121 164.494 90.61 164.067C88.8279 162.555 87.6679 160.375 87.1375 158.067L82.5142 137.219C82.3708 136.051 82.7919 134.023 82.2824 133.077C82.6935 132.382 82.7169 130.861 82.7919 129.932L84.6324 106.939L53.3749 115.82C53.259 115.319 51.1399 111.516 50.7472 111.074C50.1884 118.276 51.9414 128.948 50.0625 135.609C48.2128 139.561 46.5391 143.667 44.692 147.466C43.6579 149.594 42.7739 151.454 41.8975 153.453C41.1511 155.155 39.66 157.968 39.2347 159.554L37.1916 161.335C39.1697 161.963 43.3627 161.862 45.8995 162.088C47.3013 162.214 46.9169 162.443 48.006 163.017L49.4079 165.872L51.7721 165.544C50.6362 166.566 36.9989 165.984 35.5812 165.985C33.7299 165.986 28.9823 166.238 27.4671 165.915C26.1453 165.632 24.2381 163.202 23.1114 162.14C21.9873 161.081 21.6037 161.019 21.5937 159.117L22.581 147.784C22.7945 145.49 23.2932 142.506 23.199 140.249C23.058 136.85 12.7823 120.126 17.6708 98.829C18.7908 93.9485 24.369 87.0081 27.5038 84.075C29.9472 81.7874 44.5435 73.3124 48.8108 72.3208C52.4426 71.4768 74.2458 74.0171 79.5763 74.5459C92.1662 75.7952 94.0776 70.7329 105.578 68.1542C110.981 66.9424 121.196 73.9604 132.81 73.1606C133.514 71.8921 133.828 70.8004 135.566 70.4902C137.374 70.1683 138.486 70.8805 139.371 71.727Z" fill="#D94540"/>
<path fill-rule="evenodd" clip-rule="evenodd" d="M58.4542 26.5024C58.0931 27.7367 56.1551 37.0197 56.2243 38.1406C56.3352 39.9479 57.9772 39.1347 57.8538 43.122C57.7846 45.3721 57.7395 47.5229 57.7187 49.7305C58.45 48.9807 58.5685 48.457 59.1897 47.8891C59.9853 47.1627 60.0695 47.397 60.8768 46.4413L65.571 41.3982C66.8761 40.0663 68.7141 37.5026 69.9717 36.5344L58.4542 26.5024ZM147.533 26.6758L136.218 35.592C136.385 36.6286 137.998 38.1681 138.857 38.857C140.248 39.9729 140.398 40.7927 141.634 42.0412C142.215 42.6291 142.592 43.092 143.181 43.6374C143.807 44.2179 144.212 44.3113 144.776 44.8725L146.913 47.4604C147.309 47.8323 147.123 47.7565 147.633 48.0458L147.533 26.6758ZM160.353 43.559L160.013 43.4489C160.014 45.2311 161.315 47.4646 161.744 49.1676L158.767 47.7331C158.771 47.7214 159.029 46.8441 159.082 46.719C159.695 46.1719 160.057 47.7556 159.267 45.1803C158.891 43.9535 157.851 41.8468 157.92 40.4774C159.123 40.6784 160.683 41.2797 161.593 41.7368C162.161 42.2396 168.325 45.2195 168.901 45.4021L162.78 39.4475C162.248 38.8145 162.296 38.8445 161.688 38.3249L153.073 30.2962C151.968 29.0202 150.648 28.2504 149.677 27.1804L149.794 47.2277C149.842 47.9458 149.898 49.6754 150.074 50.2709C150.372 51.2725 150.762 51.1524 151.221 52.3851C150.515 52.8721 150.456 51.9656 151.294 53.3475C151.485 53.6644 151.756 53.9321 152.05 54.2449C152.597 54.8278 153.054 55.2139 153.635 55.8086C154.035 56.2172 154.113 56.3665 154.629 56.7143C156.089 57.7 155.131 56.6901 156.971 59.0503C158.273 60.7207 162.948 64.7164 162.754 65.8956C161.498 66.1925 162.352 66.1617 161.599 65.4711C160.184 64.1743 159.527 62.945 157.748 61.7315C156.09 60.5998 154.89 58.1637 153.319 56.7476C152.926 56.3932 153.197 56.6676 152.797 56.3532L149.239 52.3475C147.131 49.6321 147.713 52.0223 146.074 49.2201C145.303 47.8991 143.349 46.4087 142.058 44.8092C139.381 41.4932 135.641 40.6492 131.677 37.8137C134.099 38.3158 134.264 39.7902 135.044 39.0939C135.978 38.9237 135.369 39.4433 135.774 38.7719C134.537 38.0472 134.58 37.8954 133.685 36.7795L129.794 32.507C129.194 31.8248 128.64 30.7965 128.033 30.1786C127.384 29.518 127.428 29.8241 126.833 29.1861L124.943 26.9952C124.773 26.8301 124.74 26.8293 124.496 26.4957C122.06 23.1806 123.594 25.5583 122.062 23.9078C121.437 23.2356 120.973 22.3608 120.304 21.5727C119.393 20.4977 118.986 20.6278 118.112 19.6762L115.161 16.3453C114.821 15.9908 114.628 15.7239 114.294 15.3261L109.384 9.86187C108.848 9.3081 108.882 9.46572 108.368 8.98618C107.46 8.14219 107.615 7.76189 106.543 6.73109C105.406 5.63773 105.811 5.56601 104.679 4.62945C104.772 9.86854 104.713 15.2586 104.693 20.5068C104.667 27.2538 104.223 25.1355 106.593 28.6799C107.779 30.4546 108.051 30.0551 109.199 31.7173C110.013 32.6613 109.907 32.487 111.306 32.5963L110.143 33.7147L109.383 44.363C108.492 44.1912 109.137 44.4756 108.489 43.7608C105.422 40.3707 110.375 34.1558 106.513 30.6064C105.4 29.5831 105.929 29.3296 104.432 28.0561C102.766 26.64 104.403 28.8775 104.024 27.7333C103.162 28.1778 101.609 30.4821 100.731 31.5897C100.296 32.1376 100 32.3636 99.573 32.7114C101.55 29.7866 101.762 29.8692 102.259 27.2046C102.502 25.8977 103.099 25.2947 103.28 24.2022C103.483 22.9788 103.384 21.4776 103.411 20.1924C103.47 17.3544 103.598 6.21902 103.144 4.16242C103.37 4.43263 103.513 4.13072 102.794 4.49935C102.291 4.08152 102.224 4.86797 101.499 5.65275L97.2238 10.499C94.8321 13.3913 87.4943 20.7278 85.5354 23.3174C83.8117 25.5967 78.8581 30.3762 76.7357 33.065C76.1169 33.8489 75.9685 33.9949 75.2213 34.6862C74.4724 35.3776 74.5175 35.4418 73.9087 36.2083L63.3828 47.362C62.4262 48.1976 60.9977 50.4944 59.0638 52.1599C57.863 53.194 57.0932 54.3883 55.9991 55.0688C54.3463 55.229 55.2119 55.319 54.247 56.4574C53.9393 56.8202 49.4277 60.9551 47.061 63.7539C46.2846 64.673 45.263 66.0541 43.777 66.0474C43.842 64.3694 45.5849 63.5154 45.926 63.2352C48.3519 61.2445 47.8049 61.1419 48.864 59.8742L50.1257 58.6408C50.5068 58.1829 50.245 58.4006 50.6428 57.9152C51.4467 56.937 52.2848 56.8294 53.1929 55.7243C54.1186 54.596 54.2212 53.9922 55.4454 52.958C56.8681 51.7571 56.4361 51.6303 56.4353 49.7972C56.4353 48.5621 56.5036 46.5764 56.5145 45.0185C56.527 43.1237 56.9456 42.1979 55.6297 41.5641C56.8072 42.0695 56.0725 41.3631 56.5779 42.4682L56.4661 45.046C56.2285 45.8116 56.1501 45.7474 56.02 45.9617L56.1551 42.5057C55.7598 42.1537 56.7255 41.6967 55.5646 42.3439L54.5806 41.3881C56.5712 39.7335 55.2302 40.2506 54.9617 38.4175C54.8558 37.6919 55.4279 35.5202 55.5972 34.5962C55.844 33.2443 57.2534 28.4214 56.3202 27.7333C56.949 26.9477 56.3861 27.6424 56.2176 27.6774C55.8048 27.7633 56.0458 27.7041 55.794 27.8292L48.6455 34.5428C46.9009 36.6636 47.0677 35.833 46.1103 37.0256C45.7275 37.5018 45.6208 37.7853 45.2972 38.1047C44.9286 38.4692 45.4048 38.0339 44.7694 38.5192C44.6968 38.5751 44.4775 38.7177 44.4066 38.7744L38.228 44.8283C36.3166 47.4579 35.7303 46.8883 32.2387 50.7897L17.5639 65.3802C17.3479 65.6046 17.4238 65.5395 17.0852 65.8239C14.7761 67.7671 13.4034 69.4968 11.5763 71.2957C8.52742 74.2972 5.81546 76.4397 2.77744 79.8465C2.52393 80.1309 2.28042 80.4903 1.96769 80.6121C0.00794631 81.3777 1.59242 80.9407 0.941119 80.4128C0.585029 79.8373 2.10946 78.8165 2.11029 78.8157C3.13437 77.9659 3.22026 77.2295 4.37609 76.3379L13.3692 67.7554C16.0737 65.2501 16.9818 63.5947 19.8472 61.3471C21.0473 60.4055 20.622 60.3513 22.6026 58.4415C22.9261 58.1296 22.6568 58.3956 22.9153 58.127L25.297 55.7685C25.6072 55.4183 25.3879 55.7735 25.5272 55.3307L25.4579 54.9971L49.8564 31.0084C51.8828 28.9726 55.9941 24.2898 58.204 23.2023C59.2189 23.6952 58.2441 23.1806 59.2156 23.882C61.7232 25.6917 70.6222 34.2226 71.7171 34.6787L77.7823 28.1561C78.487 27.3639 78.8831 26.6216 79.6361 25.9119L87.4276 17.3577C88.1223 16.5362 88.8511 15.9474 89.5666 15.1151L99.2353 4.35256C100.383 2.91478 102.142 1.36106 102.964 0C105.22 0.733072 106.281 3.03654 107.414 4.29669L109.502 6.28824C110.238 7.14474 110.636 7.62429 111.353 8.52749C112.15 9.52911 112.712 9.62502 113.397 10.5641C114.168 11.6199 114.203 11.9293 115.241 12.8175L119.272 16.9524C119.973 17.6471 120.442 18.4477 121.088 19.2233C121.824 20.1065 122.491 20.4168 123.142 21.2449L134.705 33.8389C136.904 31.9041 139.335 30.1527 141.711 28.2671C143.211 27.0761 147.181 23.5175 148.709 23.0672L152.644 26.6241C153.779 27.8768 155.359 28.6665 156.56 29.9392C158.864 32.3844 157.028 30.8508 160.366 33.6755L197.822 69.4484C199.362 70.7252 199.929 71.791 201.349 73.1479C203.038 74.7617 208.145 78.3512 208.642 80.7272C207.468 81.3418 208.248 81.3001 206.687 81.562C203.666 78.3895 198.04 73.8652 195.799 71.1631L193.715 69.1557C193.426 68.8679 193.38 68.7779 193.11 68.506C191.36 66.7404 191.048 67.054 188.838 64.6004L184.85 60.7324C181.04 57.3139 183.452 59.6399 180.786 56.63L176.555 52.998C175.559 52.0648 172.681 48.4412 171.033 47.8899L160.952 43.5223C160.085 43.2604 161.004 43.0586 160.353 43.559Z" fill="#343333"/>
<path fill-rule="evenodd" clip-rule="evenodd" d="M156.881 109.611C151.961 109.324 144.75 112.218 142.054 111.858C139.716 111.33 137.619 112.999 135.506 113.251C133.865 113.447 130.644 114.106 129.274 114.881C124.457 117.607 128.345 115.429 123.618 117.097C117.914 119.11 118.748 120.602 114.879 124.294C114.047 125.088 113.587 125.563 112.849 126.393C111.901 127.46 111.848 127.889 111.024 128.644C110.515 129.111 107.678 131.868 107.207 132.675C106.253 134.308 106.992 138.225 105.346 138.989C105.786 139.706 105.522 139.554 106.143 139.867C105.554 140.231 105.765 139.867 105.387 142.153C104.856 145.373 102.032 157.511 102.748 158.86C103.856 160.944 108.303 159.608 111.24 160.418C112.972 160.895 115.009 164.03 115.468 166.114L92.3251 166.08L91.1201 164.422C93.5669 164.621 90.7824 165.543 94.636 165.435C96.2755 165.389 98.0126 165.494 99.688 165.477C101.904 165.453 107.497 165.809 109.156 165.442C109.132 165.281 109.001 164.822 109 164.805L109.116 163.728C110.559 165.117 109.759 165.504 112.291 165.477C112.491 161.051 106.399 162.207 105.658 162.193C102.414 162.129 98.7906 160.616 96.3038 160.574C97.5147 154.933 97.9058 147.306 98.4095 141.494C99.1075 133.441 99.236 133.556 103.552 125.86C105.991 121.509 108.624 117.03 110.831 112.378C112.575 108.699 112.773 110.598 113.124 104.429C113.322 100.959 113.692 97.606 113.601 94.0591C115.67 95.0707 112.612 96.6152 121.063 96.3634C123.644 96.2867 127.56 95.9422 129.098 94.5028C129.703 97.7286 130.099 99.7585 131.227 102.702C131.794 104.183 132.05 104.892 132.858 106.405C133.813 108.196 134.064 108.233 136.444 108.313C139.504 108.416 153.687 107.989 155.617 108.748C157.108 109.334 156.207 108.874 156.881 109.611Z" fill="#972823"/>
<path fill-rule="evenodd" clip-rule="evenodd" d="M82.2843 133.077C80.3288 133.317 76.4576 134.802 74.3403 135.366C73.0769 135.702 66.995 137.039 66.357 137.431C65.9509 137.22 66.5096 137.324 65.4372 137.173C63.8002 136.943 63.1297 137.464 62.2549 137.689L59.3887 138.215C58.1002 138.432 51.322 136.927 50.4906 136.618L50.0645 135.608C51.9433 128.948 50.1904 118.276 50.7491 111.073C51.1419 111.515 53.2609 115.319 53.3768 115.82L84.6344 106.938L82.7939 129.931C82.7188 130.86 82.6955 132.382 82.2843 133.077Z" fill="#972823"/>
<path fill-rule="evenodd" clip-rule="evenodd" d="M131.455 136.981L130.357 136.958C129.088 141.023 126.991 143.666 124.903 146.612L122.159 151.278C121.932 152.931 122.275 157.455 122.714 158.474C123.485 158.457 122.847 157.244 124.615 158.16C124.304 159.568 124.549 158.847 123.119 159.566C123.374 161.1 122.828 160.175 123.571 161.618C124.255 161.663 123.363 161.735 124.513 161.001C124.96 160.715 125.744 160.338 126.054 160.198C126.022 161.659 126.211 160.338 125.683 161.202L124.802 162.255C123.872 163.277 124.004 162.661 124.515 164.307L125.989 163.721C127.515 162.902 125.711 163.369 127.407 163.027C126.48 165.499 125.745 164.307 125.142 165.46C125.604 165.31 125.76 165.276 126.164 165.109L127.504 164.545C127.743 164.417 127.424 164.691 127.886 164.321C128.54 163.797 128.717 162.293 129.319 162.097C129.369 162.081 129.482 162.086 129.531 162.079L130.022 162.171C128.576 164.98 128.247 165.593 124.83 166.431C124.777 166.362 124.718 166.266 124.686 166.216L123.313 163.106C122.896 161.822 122.53 160.869 122.203 159.494C121.561 156.793 121.582 154.134 121.447 151.168C117.687 149.651 109.343 143.307 106.144 139.868C105.523 139.555 105.787 139.707 105.347 138.99C106.993 138.226 106.254 134.309 107.208 132.676C107.679 131.869 110.516 129.112 111.025 128.645C111.849 127.89 111.902 127.461 112.85 126.394C113.588 125.564 114.048 125.089 114.88 124.295C118.748 120.603 117.915 119.111 123.619 117.098C128.346 115.43 124.458 117.608 129.275 114.882C130.645 114.107 133.866 113.448 135.507 113.252C137.62 113 139.717 111.331 142.055 111.859C140.537 113.202 131.769 114.229 129.263 115.418C128.68 116.782 125.854 126.083 126.13 127.266C126.46 128.673 130.742 134.757 131.455 136.981Z" fill="#D94540"/>
<path fill-rule="evenodd" clip-rule="evenodd" d="M66.3562 137.432L60.5487 138.511C59.874 142.412 55.4117 156.594 55.827 158.964C58.8183 160.128 62.5034 159.247 64.72 160.118C66.488 160.812 68.4936 163.316 69.2283 165.488L51.7732 165.545L49.409 165.873L48.0072 163.018L48.3474 162.868C48.7485 163.32 49.0421 163.71 49.4682 164.375C50.2571 165.605 49.7409 165.482 51.6957 165.457C51.1811 163.238 49.8385 162.731 48.9337 161.326C48.5242 160.367 48.2957 160.406 46.9406 160.256C46.1241 160.166 45.2427 160.135 44.3904 160.07C42.5724 159.933 40.8295 159.806 39.2358 159.554C39.6611 157.968 41.1522 155.156 41.8986 153.454C42.7751 151.455 43.659 149.595 44.6931 147.466C46.5403 143.667 48.214 139.561 50.0636 135.609L50.4898 136.619C51.3212 136.927 58.0994 138.433 59.3879 138.215L62.2541 137.69C63.1289 137.465 63.7994 136.943 65.4364 137.173C66.5088 137.324 65.9501 137.221 66.3562 137.432Z" fill="#D94540"/>
<path fill-rule="evenodd" clip-rule="evenodd" d="M135.049 39.0943C134.598 38.4938 121.302 30.8587 119.81 30.2574C119.978 32.6117 122.191 36.9893 122.919 39.397C122.931 39.9083 123.025 39.7181 122.401 39.7181C121.959 39.0017 117.297 36.2437 116.092 35.5382C114.548 34.635 110.797 31.8987 109.205 31.7177C108.056 30.0556 107.784 30.455 106.599 28.6803C104.229 25.1359 104.672 27.2542 104.698 20.5073C104.719 15.259 104.777 9.86897 104.685 4.62988C105.816 5.56645 105.411 5.63817 106.549 6.73152C107.621 7.76233 107.466 8.14262 108.373 8.98662C108.888 9.46616 108.854 9.30854 109.39 9.8623L114.3 15.3266C114.634 15.7244 114.826 15.9913 115.166 16.3457L118.118 19.6766C118.992 20.6282 119.399 20.4981 120.309 21.5731C120.978 22.3612 121.443 23.2361 122.067 23.9083C123.599 25.5587 122.066 23.181 124.501 26.4961C124.746 26.8297 124.778 26.8305 124.948 26.9957L126.839 29.1866C127.434 29.8246 127.389 29.5185 128.038 30.179C128.645 30.797 129.2 31.8253 129.799 32.5075L133.691 36.78C134.585 37.8959 134.543 38.0476 135.78 38.7724C135.374 39.4437 135.984 38.9242 135.049 39.0943Z" fill="#DED8DA"/>
<path fill-rule="evenodd" clip-rule="evenodd" d="M130.019 162.171L129.529 162.079C129.48 162.085 129.367 162.08 129.317 162.097C128.714 162.293 128.537 163.797 127.884 164.321C127.422 164.691 127.741 164.416 127.502 164.545L126.162 165.109C125.758 165.276 125.602 165.31 125.14 165.46C125.743 164.307 126.478 165.499 127.405 163.027C125.709 163.369 127.513 162.902 125.986 163.721L124.513 164.306C124.002 162.661 123.87 163.276 124.8 162.255L125.68 161.202C126.208 160.337 126.02 161.659 126.051 160.198C125.741 160.338 124.958 160.715 124.511 161C123.36 161.734 124.253 161.663 123.569 161.618C122.826 160.175 123.372 161.1 123.117 159.566C124.546 158.847 124.302 159.568 124.613 158.16C122.845 157.243 123.483 158.457 122.712 158.473C122.273 157.455 121.93 152.931 122.157 151.278L124.901 146.612C126.989 143.666 129.085 141.023 130.355 136.958L131.453 136.981C132.332 137.5 133.958 141.16 134.502 142.516C135.568 145.176 135.676 146.531 134.737 149.511L130.019 162.171Z" fill="#972823"/>
<path fill-rule="evenodd" clip-rule="evenodd" d="M147.635 48.0458C147.126 47.7564 147.312 47.8323 146.915 47.4603L144.779 44.8725C144.214 44.3112 143.809 44.2178 143.184 43.6374C142.595 43.0919 142.218 42.6291 141.637 42.0411C140.401 40.7926 140.251 39.9728 138.86 38.857C138.001 38.1681 136.387 36.6286 136.22 35.5919L147.535 26.6758L147.635 48.0458Z" fill="#FCFCFC"/>
<path fill-rule="evenodd" clip-rule="evenodd" d="M161.593 41.7362C160.683 41.2792 159.123 40.6779 157.921 40.4769C157.851 41.8463 158.891 43.953 159.267 45.1798C160.057 47.7551 159.696 46.1714 159.082 46.7185C158.579 45.9695 155.185 43.8604 154.112 43.7737C153.658 44.7828 154.004 43.8912 153.909 44.882L153.145 45.4074C152.955 45.3007 152.267 44.8829 152.226 44.8728C149.621 44.1731 151.828 44.4283 151.09 45.3324C149.46 44.5493 150.116 45.5842 150.137 42.2041C150.145 40.8105 150.02 39.3936 150.01 37.7931C149.993 34.9659 150.178 31.4173 149.971 28.7061C151.572 28.9754 154.53 32.5582 156.545 34.2796L159.618 37.2502C160.467 37.9249 161.027 38.5938 161.74 39.1992C162.658 39.979 165.078 42.1207 165.682 43.1215C164.156 42.7345 162.576 41.9789 161.595 41.1358L161.593 41.7362Z" fill="#DED8DA"/>
<path fill-rule="evenodd" clip-rule="evenodd" d="M69.1688 36.4167L67.787 37.9171C65.2326 40.9511 65.1934 40.3648 63.7299 42.0528L58.3685 48.1325C57.864 44.3571 59.034 41.5632 57.7798 39.7535C57.387 39.1872 57.643 39.8052 57.0859 38.9145C56.2403 37.5643 56.9492 36.4634 57.3912 34.0766L57.6522 32.7672C57.9624 31.2335 58.1492 28.8833 58.9198 27.6982L62.8034 30.9533C64.5271 32.5904 65.3352 33.5353 67.1957 34.7896C67.6727 35.1115 67.5193 34.9889 67.9046 35.3817C68.5259 36.0172 68.1648 35.9989 69.1688 36.4167Z" fill="#D9D5D6"/>
<path fill-rule="evenodd" clip-rule="evenodd" d="M55.5675 42.3442C53.8797 43.6761 47.0748 50.1411 45.6646 50.4138L45.7646 45.9236L45.8664 46.0112C45.8797 46.0454 45.9223 46.1705 45.9331 46.2356C45.9706 46.4732 45.9631 46.9236 45.9773 47.1963C46.0799 49.1753 46.2016 49.0678 46.8921 49.7324L51.3228 45.0788C52.9115 43.7695 52.567 44.6902 54.4342 42.1932C53.8271 42.5093 53.461 42.6611 52.9865 42.9747C51.7781 43.7728 52.512 43.9696 51.1544 44.882L47.8578 46.9077C48.0788 47.2822 47.9254 47.3556 48.0304 46.9961C48.5725 45.7343 53.9856 41.8763 55.3174 40.3993C54.5593 37.8215 53.7521 41.4485 55.1739 34.4705C55.6251 32.258 56.0637 30.1305 56.4165 27.9213L35.6915 47.9602C33.4174 50.0669 31.3468 52.5388 29.0167 54.7989C24.3801 59.2957 20.0478 63.6867 15.4236 68.2336C13.0778 70.5395 10.8612 72.5327 8.51947 74.8387C6.67564 76.6543 3.20981 80.991 1.32679 81.5756L0 80.6933C0.385278 79.0512 4.87935 75.2365 6.13192 74.0264L25.4608 54.9974L25.5301 55.331C25.3908 55.7738 25.6101 55.4186 25.2999 55.7688L22.9182 58.1273C22.6597 58.3959 22.929 58.1298 22.6055 58.4417C20.6249 60.3516 21.0502 60.4058 19.8501 61.3473C16.9847 63.5949 16.0766 65.2504 13.3721 67.7557L4.37899 76.3382C3.22316 77.2297 3.13726 77.9662 2.11319 78.816C2.11236 78.8168 0.587924 79.8376 0.944013 80.4131C1.59532 80.941 0.0108411 81.378 1.97059 80.6124C2.28331 80.4906 2.52682 80.1312 2.78034 79.8468C5.81836 76.44 8.53031 74.2975 11.5792 71.2959C13.4063 69.497 14.779 67.7674 17.0881 65.8242C17.4267 65.5398 17.3508 65.6048 17.5668 65.3805L32.2416 50.7899C35.7332 46.8886 36.3195 47.4582 38.2309 44.8286L44.4095 38.7747C44.4804 38.718 44.6997 38.5754 44.7723 38.5195C45.4077 38.0341 44.9315 38.4695 45.3001 38.105C45.6237 37.7856 45.7304 37.5021 46.1132 37.0259C47.0706 35.8333 46.9038 36.6639 48.6484 34.5431L55.7969 27.8295C56.0487 27.7044 55.8077 27.7636 56.2205 27.6777C56.389 27.6427 56.9519 26.948 56.3231 27.7336C57.2563 28.4216 55.8469 33.2446 55.6001 34.5965C55.4308 35.5205 54.8587 37.6922 54.9646 38.4178C55.2331 40.2509 56.5741 39.7338 54.5835 41.3884L55.5675 42.3442Z" fill="#0C0B0B"/>
<path fill-rule="evenodd" clip-rule="evenodd" d="M109.201 31.7165C110.794 31.8974 114.544 34.6337 116.088 35.5369C117.293 36.2425 121.955 39.0005 122.397 39.7169C121.594 40.1672 118.963 37.9855 118.237 37.4743C117.505 36.9589 116.996 36.727 116.128 36.1391C115.383 35.6345 114.91 35.2692 113.915 34.8789C115.295 36.2033 117.814 37.5961 119.738 38.7728C121.151 39.6385 123.737 41.9219 125.282 42.3239C124.836 40.7585 124.395 39.8578 123.791 38.2074L122.421 34.8322C122.358 33.8798 121.863 34.4019 122.733 33.9098C124 37.2208 125.245 40.4408 126.336 43.5307C125.302 43.3689 122.973 41.8544 122.229 41.3381C120.701 40.279 119.769 39.7336 118.228 38.7436L110.347 33.5604C110.371 34.6004 110.105 44.7483 109.429 46.0843L106.949 42.4432C106.75 41.7018 107.183 37.6369 107.294 36.6069C107.543 34.3001 107.974 32.8807 106.61 31.4946C105.581 30.4488 104.992 29.2829 103.896 28.162L98.6042 35.1375C97.0372 36.6053 97.2398 36.8772 96.3125 37.1399C96.7428 35.3034 98.826 32.7765 99.9701 31.1627C103.756 25.8252 102.787 20.7838 102.778 14.5347C102.773 11.1938 102.747 7.83449 102.796 4.49855C103.515 4.12993 103.372 4.43183 103.146 4.16162C103.6 6.21823 103.472 17.3536 103.413 20.1916C103.386 21.4768 103.485 22.978 103.282 24.2014C103.101 25.294 102.504 25.8969 102.261 27.2038C101.764 29.8684 101.552 29.7858 99.5749 32.7106C100.002 32.3628 100.298 32.1368 100.732 31.5889C101.61 30.4813 103.164 28.177 104.026 27.7325C104.405 28.8767 102.768 26.6392 104.433 28.0553C105.931 29.3288 105.402 29.5823 106.515 30.6056C110.377 34.155 105.424 40.3699 108.491 43.76C109.138 44.4748 108.494 44.1904 109.385 44.3622L110.145 33.7139L111.308 32.5955C109.909 32.4862 110.015 32.6605 109.201 31.7165Z" fill="#0C0B0B"/>
<path fill-rule="evenodd" clip-rule="evenodd" d="M135.047 39.0942C134.267 39.7906 134.102 38.3161 131.68 37.8141C135.645 40.6496 139.384 41.4936 142.061 44.8095C143.352 46.4091 145.306 47.8994 146.077 49.2205C147.716 52.0227 147.134 49.6325 149.242 52.3479L152.801 56.3535C153.201 56.6679 152.929 56.3936 153.323 56.748C154.893 58.1641 156.094 60.6002 157.752 61.7319C159.53 62.9453 160.188 64.1746 161.602 65.4715C162.355 66.162 161.501 66.1929 162.758 65.896C162.951 64.7167 158.276 60.7211 156.974 59.0506C155.135 56.6905 156.092 57.7004 154.632 56.7146C154.116 56.3669 154.038 56.2176 153.639 55.8089C153.057 55.2143 152.6 54.8282 152.053 54.2452C151.76 53.9325 151.489 53.6648 151.297 53.3479C150.459 51.9659 150.518 52.8725 151.224 52.3854C152.617 53.382 163.125 64.5583 163.839 65.7625C162.73 67.0561 162.321 66.9993 161.112 65.9527C160.218 65.1796 159.495 64.4649 158.727 63.6025C157.271 61.9654 155.879 60.0831 154.245 58.6545C152.892 57.4719 152.984 57.5161 151.939 56.2468L142.71 46.6226C138.923 42.0474 140.446 43.7629 134.693 40.5237C133.65 39.9374 132.719 39.2819 131.74 38.7481L122.918 33.4707L123.576 32.7751L120.577 31.2848L122.725 37.4187C123.218 38.8816 123.318 38.7531 122.917 39.397C122.189 36.9892 119.976 32.6117 119.808 30.2573C121.3 30.8586 134.596 38.4938 135.047 39.0942Z" fill="#120C0D"/>
<path fill-rule="evenodd" clip-rule="evenodd" d="M156.347 89.9591C155.368 90.2869 155.853 90.437 155.778 91.2484C155.773 91.3102 155.72 91.5645 155.715 91.5186C155.709 91.4686 155.672 91.7171 155.63 91.808C155.415 90.8548 155.535 90.6605 154.969 89.6731C154.793 89.367 150.922 87.5264 152.303 92.1141C153.87 92.838 153.781 92.6671 155.316 91.9732L156.095 92.8872C155.172 93.9063 155.968 92.4953 153.886 95.1323C148.482 101.977 145.057 93.6637 147.186 91.2526C147.718 90.6505 149.107 89.3853 149.624 89.0125C150.583 88.322 151.696 87.9859 153.121 88.0368C154.142 88.0726 154.927 88.2286 155.641 89.0092L155.989 89.4462C156.05 89.5246 156.118 89.6313 156.167 89.6981C156.218 89.7665 156.289 89.8707 156.347 89.9591Z" fill="#972823"/>
<path fill-rule="evenodd" clip-rule="evenodd" d="M172.55 98.8907C171.007 98.0091 167.755 98.5821 166.339 99.2501L158.008 90.7176C157.144 89.8728 157.182 90.2564 157.301 89.0246L161.652 89.2306L161.718 86.998C162.747 89.3816 161.049 88.676 163.567 90.8002L172.55 98.8907Z" fill="#E78788"/>
<path fill-rule="evenodd" clip-rule="evenodd" d="M172.552 98.8915C173.127 101.269 168.619 106.323 168.162 106.592C167.441 107.016 167.256 106.867 166.642 107.274C166.233 107.545 166.112 107.818 165.673 108.23L165.583 107.044C164.189 107.5 162.08 107.512 160.342 107.42C157.823 107.286 157.814 106.677 156.115 106.125C159.11 106.695 158.747 107.334 162.768 106.79C165.364 106.44 167.327 106.202 167.878 104.104C167.332 102.708 165.234 101.594 166.341 99.2509C167.757 98.5829 171.009 98.0099 172.552 98.8915Z" fill="#D94540"/>
<path fill-rule="evenodd" clip-rule="evenodd" d="M69.1721 36.4173C68.1681 35.9995 68.5292 36.0179 67.9079 35.3824C67.5226 34.9896 67.6761 35.1122 67.1991 34.7902C65.3386 33.5359 64.5305 32.591 62.8067 30.9539L58.9231 27.6989C58.1525 28.884 57.9657 31.2341 57.6555 32.7678L57.3945 34.0772C56.9525 36.464 56.2437 37.5649 57.0893 38.9151C57.6463 39.8058 57.3903 39.1878 57.7831 39.7541C59.0373 41.5639 57.8673 44.3577 58.3719 48.1332L63.7332 42.0534C65.1968 40.3654 65.236 40.9517 67.7903 37.9177L69.1721 36.4173ZM69.9777 36.5349C68.7202 37.5032 66.8822 40.0669 65.5771 41.3987L60.8828 46.4418C60.0756 47.3976 59.9914 47.1632 59.1958 47.8896C58.5745 48.4576 58.4561 48.9813 57.7247 49.7311C57.7456 47.5235 57.7906 45.3727 57.8598 43.1226C57.9833 39.1353 56.3412 39.9484 56.2303 38.1412C56.1611 37.0203 58.0992 27.7372 58.4603 26.5029L69.9777 36.5349Z" fill="#F5F2F2"/>
<path fill-rule="evenodd" clip-rule="evenodd" d="M45.7625 45.9238C44.1906 46.5709 44.1714 47.078 43.0022 48.0471C41.5595 49.2422 41.306 49.6108 39.8232 49.9703C40.5855 47.671 43.0906 45.8988 44.9636 44.0265C45.7083 43.2817 46.1428 42.7813 47.1994 42.4077L47.337 46.0939C47.749 47.1889 47.0243 46.2715 48.0283 46.9963C47.9232 47.3557 48.0767 47.2823 47.8557 46.9079L51.1522 44.8821C52.5099 43.9697 51.776 43.7729 52.9844 42.9748C53.4589 42.6612 53.825 42.5094 54.4321 42.1934C52.5649 44.6903 52.9093 43.7696 51.3207 45.0789L46.89 49.7326C46.1995 49.0679 46.0777 49.1755 45.9752 47.1964C45.961 46.9237 45.9685 46.4734 45.931 46.2357C45.9201 46.1706 45.8776 46.0455 45.8643 46.0113L45.7625 45.9238Z" fill="#2B2B2B"/>
<path fill-rule="evenodd" clip-rule="evenodd" d="M83.9534 34.3353C83.9368 35.2927 83.6874 35.1076 84.6014 34.9992C84.2512 35.633 84.7499 35.7239 84.2111 35.3836C85.4237 35.3886 86.2901 34.7398 87.2075 34.1068L90.5741 32.3412L92.4421 37.8981C91.5381 37.09 91.8425 37.3627 91.3746 35.9824C90.6408 33.8166 90.8025 34.9883 90.3856 33.97C87.6119 34.5096 83.9768 37.6571 81.4858 37.7897C81.7752 36.5337 82.8677 33.0101 82.4023 32.232C82.2547 32.061 82.0087 31.6657 81.9312 31.5848C82.0012 31.5173 82.0979 31.4405 82.1555 31.3997L82.5933 31.1011C82.6575 31.0602 82.7334 31.0219 82.801 30.9802L84.287 29.936C83.991 31.9201 83.8117 32.9834 83.4639 34.8249C83.2354 34.0234 83.3555 34.7381 83.9534 34.3353Z" fill="#2B2B2B"/>
<path fill-rule="evenodd" clip-rule="evenodd" d="M154.482 78.6464L153.722 79.3361C153.673 79.1901 153.835 78.156 153.812 78.0117C153.703 77.3429 153.625 77.4146 153.405 77.0818L153.416 77.0101L153.731 76.5664C154.598 74.5473 153.492 71.8836 152.808 71.6059C150.978 70.8636 148.644 75.5948 146.921 76.0343C146.487 76.0885 145.138 75.9868 144.318 75.9818C142.98 75.9743 142.271 75.8425 141.273 76.3071C141.223 75.8784 140.963 75.2137 140.653 74.685L140.227 74.338C140.219 74.3397 140.17 74.3964 140.162 74.3989C140.153 74.4006 140.1 74.4498 140.091 74.4498C139.566 74.4623 138.845 72.1355 139.371 71.7276C140.621 72.5716 140.873 73.4048 141.798 75.1862L146.828 75.2579C147.698 74.2513 150.78 70.8244 152.485 70.8611C155.514 70.927 154.816 76.3362 154.482 78.6464Z" fill="#E78788"/>
<path fill-rule="evenodd" clip-rule="evenodd" d="M48.9289 161.325L47.8673 161.871C48.341 162.556 48.0441 162.133 48.3427 162.867L48.0024 163.017C46.9133 162.442 47.2978 162.214 45.8959 162.088C43.3591 161.861 39.1661 161.963 37.188 161.335L39.2311 159.553C40.8248 159.805 42.5677 159.932 44.3857 160.069C45.238 160.134 46.1194 160.165 46.9358 160.255C48.291 160.405 48.5195 160.366 48.9289 161.325Z" fill="#D94540"/>
<path fill-rule="evenodd" clip-rule="evenodd" d="M140.13 79.1736C139.314 79.7131 138.515 80.2385 137.7 80.8148C136.621 81.5771 136.341 82.1425 135.34 82.6171C135.474 81.4612 136.034 80.4512 136.185 78.6523C136.341 76.8025 136.164 76.0486 137.089 74.5107C137.752 74.6275 137.953 74.3673 139.153 76.2538C139.727 77.1536 139.961 78.1544 140.13 79.1736Z" fill="#D94540"/>
<path fill-rule="evenodd" clip-rule="evenodd" d="M56.0014 55.0687L45.1711 66.2691C43.7668 67.3883 43.9978 66.6068 42.7202 66.174C43.1464 65.0615 45.5614 62.6146 46.6205 61.7164L54.9073 53.0338C56.7903 51.1831 55.6287 50.4401 56.0223 45.9616C56.1524 45.7472 56.2308 45.8114 56.4685 45.0459L56.5802 42.468C56.0748 41.363 56.8095 42.0694 55.632 41.564C56.948 42.1978 56.5293 43.1235 56.5168 45.0183C56.506 46.5762 56.4376 48.5619 56.4376 49.7971C56.4384 51.6302 56.8704 51.7569 55.4477 52.9579C54.2235 53.992 54.1209 54.5958 53.1953 55.7242C52.2871 56.8292 51.449 56.9368 50.6451 57.9151C50.2473 58.4004 50.5092 58.1828 50.1281 58.6406L48.8663 59.8741C47.8072 61.1417 48.3543 61.2443 45.9284 63.235C45.5873 63.5153 43.8444 64.3693 43.7793 66.0472C45.2654 66.0539 46.2869 64.6728 47.0633 63.7538C49.43 60.9549 53.9416 56.82 54.2494 56.4573C55.2142 55.3189 54.3486 55.2288 56.0014 55.0687Z" fill="#0C0B0B"/>
<path fill-rule="evenodd" clip-rule="evenodd" d="M122.919 33.4705C122.604 33.6006 122.527 32.966 122.736 33.9109C121.865 34.4029 122.361 33.8809 122.424 34.8333L123.794 38.2084C124.398 39.8589 124.838 40.7596 125.284 42.325C123.74 41.923 121.154 39.6395 119.74 38.7738C117.817 37.5971 115.297 36.2043 113.918 34.88C114.913 35.2703 115.386 35.6356 116.13 36.1401C116.999 36.7281 117.508 36.9599 118.24 37.4753C118.966 37.9866 121.597 40.1683 122.4 39.7179C123.025 39.7179 122.93 39.9081 122.918 39.3968C123.319 38.753 123.22 38.8814 122.726 37.4186L120.579 31.2847L123.577 32.775L122.919 33.4705Z" fill="#3A3939"/>
<path fill-rule="evenodd" clip-rule="evenodd" d="M90.3868 33.9698C90.8038 34.9881 90.642 33.8164 91.3759 35.9822C91.8437 37.3625 91.5393 37.0898 92.4433 37.8979L90.5753 32.341L87.2087 34.1066C86.2914 34.7396 85.4249 35.3884 84.2124 35.3834C84.7511 35.7237 84.2524 35.6328 84.6027 34.999L90.8388 31.5112C91.4101 32.8248 91.9747 34.5261 92.395 35.9664C92.6251 36.7578 92.7953 37.3708 92.9846 38.2206C93.5341 40.6859 92.9946 40.1513 92.7752 40.3982C91.5785 39.3999 90.3268 35.2491 90.3868 33.9698Z" fill="#0C0B0B"/>
<path fill-rule="evenodd" clip-rule="evenodd" d="M160.356 43.5593L162.793 50.393C160.575 50.1111 157.504 46.7051 155.373 45.7685C155.836 45.1764 155.618 45.6209 155.806 44.6994C155.577 44.6176 155.064 44.3883 154.849 44.3783C154.745 44.3733 154.045 44.2557 153.807 45.4575L153.911 44.8828C154.006 43.8921 153.66 44.7836 154.114 43.7745C155.188 43.8612 158.581 45.9704 159.085 46.7193C159.032 46.8444 158.774 47.7217 158.77 47.7334L161.747 49.1679C161.318 47.4649 160.017 45.2314 160.016 43.4492L160.356 43.5593Z" fill="#141313"/>
<path fill-rule="evenodd" clip-rule="evenodd" d="M154.61 91.4887C154.57 90.1334 154.203 89.834 152.814 90.0133C152.603 91.678 153 91.8614 154.61 91.4887ZM156.342 89.9591C157.029 90.6897 156.485 92.0224 156.09 92.8872L155.31 91.9732C153.776 92.6671 153.865 92.838 152.297 92.1141C150.916 87.5264 154.788 89.367 154.963 89.6731C155.529 90.6605 155.409 90.8548 155.624 91.8081C155.667 91.7172 155.704 91.4686 155.71 91.5187C155.715 91.5645 155.767 91.3102 155.773 91.2485C155.847 90.437 155.363 90.2869 156.342 89.9591Z" fill="#D94540"/>
<path fill-rule="evenodd" clip-rule="evenodd" d="M153.415 77.0096L153.404 77.0813L153.333 78.2163C152.93 78.1154 150.841 76.8428 150.233 76.4474C150.756 75.3599 152.259 73.898 153.401 73.6152L153.415 77.0096Z" fill="#972823"/>
<path fill-rule="evenodd" clip-rule="evenodd" d="M83.9532 34.337C83.3552 34.7398 83.2352 34.0251 83.4637 34.8265C83.8114 32.9851 83.9907 31.9218 84.2868 29.9377L82.8007 30.9819C82.7331 31.0236 82.6572 31.0619 82.593 31.1028L82.1552 31.4014C82.0977 31.4422 82.0009 31.519 81.9309 31.5865C82.0084 31.6674 82.2545 32.0627 82.4021 32.2337C81.8091 32.9784 80.278 34.0209 78.9146 34.3954C79.7351 32.5197 83.668 29.1654 84.8296 28.7651L83.9532 34.337Z" fill="#0C0B0B"/>
<path fill-rule="evenodd" clip-rule="evenodd" d="M155.374 45.7676C154.912 46.5466 155.444 45.9336 154.83 47.4381C154.8 47.5115 154.738 47.6149 154.684 47.6991C152.703 46.7559 152.106 45.6792 151.093 45.3323C151.831 44.4282 149.625 44.173 152.23 44.8728C152.27 44.8828 152.958 45.3006 153.149 45.4073L153.912 44.8819L153.808 45.4565C154.046 44.2548 154.746 44.3724 154.85 44.3774C155.065 44.3874 155.578 44.6167 155.808 44.6985C155.619 45.62 155.837 45.1755 155.374 45.7676Z" fill="#32302E"/>
<path fill-rule="evenodd" clip-rule="evenodd" d="M48.3479 162.868C48.0494 162.133 48.3462 162.557 47.8726 161.871L48.9342 161.326C49.839 162.73 51.1816 163.237 51.6961 165.456C49.7414 165.481 50.2576 165.604 49.4687 164.374C49.0426 163.709 48.749 163.319 48.3479 162.868Z" fill="#D94540"/>
<path fill-rule="evenodd" clip-rule="evenodd" d="M154.611 91.7277C152.643 92.1589 152.157 91.9462 152.415 90.0206C154.113 89.8137 154.563 90.1598 154.611 91.7277Z" fill="#F1F1F1"/>
<path d="M181.747 125.779V163.575H186.01V166.16H167.146V163.575H172.25V125.779H167.146V123.195H209.914V125.779H204.811V163.575H209.914V166.16H191.114V163.575H195.314V125.779H181.747ZM229.231 124.939H224.515V122.355H243.574V124.939H238.793L250.034 163.575H254.298V166.16H235.886V163.575H240.537L235.95 147.681C234.916 152.408 233.172 156.63 230.717 160.366C227.788 164.792 224.687 167 221.414 167C219.433 167 217.839 166.439 216.633 165.319C215.211 163.985 214.501 162.078 214.501 159.58C214.501 156.317 215.427 152.635 217.279 148.554C218.701 145.452 220.919 141.608 223.934 137C225.183 135.158 226.431 133.306 227.68 131.454C228.8 129.559 229.36 127.847 229.36 126.296C229.36 125.994 229.317 125.542 229.231 124.939ZM220.122 155.317C220.122 156.651 220.444 157.653 221.091 158.342C221.737 159.031 222.534 159.376 223.482 159.376C224.644 159.376 225.591 158.924 226.324 158.019C227.702 156.264 229.145 154.089 230.653 151.515C232.72 147.983 233.882 145.215 234.141 143.202L231.363 132.111C229.985 134.006 228.607 135.869 227.228 137.721C226.065 139.347 225.139 140.812 224.451 142.104C223.589 143.643 222.684 145.754 221.737 148.414C220.66 151.472 220.122 153.765 220.122 155.317ZM271.741 149.749V163.575H276.845V166.16H257.076V163.575H262.179L262.245 141.091V127.33C262.245 125.521 263.924 124.186 267.283 123.324C269.868 122.678 273.162 122.355 277.168 122.355C281.992 122.355 285.825 123.539 288.668 125.909C291.338 128.148 292.673 131.056 292.673 134.63C292.673 138.033 291.693 140.865 289.744 143.127C287.785 145.388 285.329 146.519 282.368 146.519C281.163 146.519 280.075 146.304 279.085 145.873C278.309 145.442 277.728 145.119 277.34 144.903L275.994 144.257L271.741 149.749ZM271.741 146.066L275.661 141.091C276.425 141.78 277.179 142.125 277.9 142.125C279.235 142.125 280.226 141.425 280.894 140.025C281.55 138.625 281.884 136.785 281.884 134.501C281.884 131.486 281.583 129.268 280.991 127.847C280.172 125.909 278.761 124.939 276.748 124.939C274.433 124.939 272.936 126.361 272.258 129.204C271.913 130.625 271.741 133.489 271.741 137.796V146.066ZM321.469 163.575L314.75 132.434C312.381 136.095 310.617 139.456 309.453 142.513C308.292 145.561 307.708 148.747 307.708 152.064C307.708 153.27 307.902 155.424 308.289 158.525C308.505 160.247 308.613 161.476 308.613 162.208C308.613 162.596 308.613 162.983 308.613 163.37C308.613 163.758 308.613 164.146 308.613 164.534C308.613 164.835 308.59 165.137 308.548 165.438C308.505 165.74 308.439 165.956 308.354 166.106C308.269 166.256 308.032 166.41 307.654 166.558C307.268 166.71 306.814 166.795 306.298 166.795C305.953 166.795 305.565 166.762 305.113 166.698C304.662 166.634 304.305 166.595 304.047 166.579C303.799 166.564 303.487 166.536 303.121 166.515C302.755 166.494 302.508 166.483 302.378 166.483C301.614 166.483 300.966 166.531 300.451 166.634C299.944 166.735 299.557 166.795 299.299 166.795C298.567 166.795 298.039 166.482 297.694 165.88C297.351 165.278 297.177 164.113 297.177 162.38C297.177 159.365 297.607 156.553 298.47 153.96C299.199 151.763 300.369 149.428 301.958 146.96C302.65 145.886 304.261 143.641 306.803 140.23C308.997 137.289 310.519 135.012 311.391 133.424C312.628 131.169 313.264 129.128 313.264 127.265C313.264 127.049 313.3 126.81 313.264 126.554C313.215 126.203 313.134 125.952 313.134 125.779H308.613V123.195H326.185V125.779H322.696L330.514 161.831L337.297 125.779H334.648V123.195H351.123V125.779H347.182L355.387 163.575H359.585V166.16H343.176V163.575H345.89L338.901 131.228L332.883 163.575H336.134V166.16H318.174V163.575H321.469ZM377.934 124.939H373.218V122.355H392.276V124.939H387.495L398.736 163.575H403V166.16H384.588V163.575H389.239L384.653 147.681C383.619 152.408 381.881 156.635 379.42 160.366C376.498 164.796 373.39 167 370.116 167C368.135 167 366.537 166.443 365.335 165.319C363.911 163.989 363.204 162.078 363.204 159.58C363.204 156.317 364.124 152.631 365.982 148.554C367.395 145.451 369.599 141.593 372.636 137C373.862 135.144 375.19 133.342 376.383 131.454C377.558 129.594 378.063 127.847 378.063 126.296C378.063 125.994 378.02 125.542 377.934 124.939ZM368.824 155.317C368.824 156.651 369.148 157.653 369.794 158.342C370.439 159.03 371.236 159.376 372.184 159.376C373.347 159.376 374.304 158.93 375.027 158.019C376.413 156.271 377.849 154.088 379.355 151.515C381.422 147.983 382.585 145.215 382.843 143.202L380.065 132.111C378.688 134.006 377.292 135.857 375.931 137.721C374.752 139.335 373.856 140.819 373.153 142.104C372.306 143.651 371.381 145.752 370.439 148.414C369.357 151.469 368.824 153.765 368.824 155.317Z" fill="#343333"/>
<path d="M199.937 91.5186H225.144V95.6326H207.472V115.864H199.937V91.5186ZM229.033 115.864V91.5186H241.082C245.647 91.5186 248.617 91.6378 250.004 91.8813C252.135 92.25 253.918 93.0431 255.357 94.2674C256.795 95.4917 257.513 97.0729 257.513 99.0102C257.513 100.506 257.097 101.759 256.275 102.779C255.444 103.799 254.395 104.598 253.122 105.182C251.849 105.76 250.549 106.145 249.233 106.333C247.44 106.564 244.849 106.684 241.454 106.684H236.568V115.864H229.033ZM236.568 95.6326V102.57H240.666C243.619 102.57 245.586 102.439 246.582 102.184C247.578 101.929 248.358 101.532 248.921 100.983C249.484 100.439 249.77 99.8092 249.77 99.0845C249.77 98.1946 249.371 97.4632 248.583 96.8853C247.786 96.3073 246.79 95.9445 245.568 95.7977C244.676 95.6893 242.883 95.6326 240.18 95.6326H236.568ZM292.655 115.864H284.54L281.326 110.322H266.401L263.308 115.864H255.339L269.788 91.5186H277.748L292.655 115.864ZM278.883 106.208L273.712 97.1972L268.688 106.208H278.883ZM296.667 115.864V91.5186H304.202V101.108H318.859V91.5186H326.395V115.864H318.859V105.222H304.202V115.864H296.667ZM334.303 91.5186H341.32V107.726L356.391 91.5186H363.876V115.864H356.859V99.9176L341.788 115.864H334.303V91.5186ZM379.927 115.864V95.6326H368.909V91.5186H398.429V95.6326H387.462V115.864H379.927Z" fill="#808080"/>
</svg>
