<svg width="25" height="25" viewBox="0 0 25 25" fill="none" xmlns="http://www.w3.org/2000/svg">
<path d="M20.0899 10.5286C20.1147 7.51615 17.5488 4.75469 14.3707 4.3724C14.302 4.36383 14.2336 4.35341 14.1655 4.34115C14.0057 4.31056 13.8437 4.29314 13.6811 4.28906C13.029 4.28906 12.8551 4.7474 12.8093 5.01927C12.7645 5.2849 12.8072 5.50885 12.9354 5.68281C13.151 5.97552 13.5312 6.0276 13.8364 6.06927C13.925 6.08177 14.0093 6.09323 14.0802 6.10885C16.9365 6.7474 17.898 7.75052 18.368 10.5828C18.3795 10.6516 18.3847 10.737 18.3909 10.8276C18.4118 11.1661 18.4535 11.8703 19.2108 11.8703C19.2733 11.8703 19.342 11.8651 19.4129 11.8547C20.117 11.7474 20.0951 11.1036 20.0847 10.7943C20.0815 10.7068 20.0784 10.6245 20.0867 10.5693C20.0884 10.5554 20.0891 10.5415 20.0888 10.5276L20.0899 10.5286Z" fill="black"/>
<path d="M13.4983 3.26715C13.5837 3.2734 13.6628 3.27965 13.7295 3.28903C18.4202 4.0109 20.5776 6.23278 21.1748 10.9599C21.1852 11.0401 21.1873 11.138 21.1884 11.2411C21.1947 11.6109 21.2072 12.3797 22.0322 12.3953H22.0572C22.3166 12.3953 22.5218 12.3172 22.6697 12.163C22.9259 11.8953 22.9092 11.4963 22.8936 11.1755C22.8905 11.0963 22.8873 11.0224 22.8873 10.9567C22.9474 6.1234 18.7617 1.73903 13.9325 1.57653C13.9117 1.57653 13.8929 1.57653 13.8742 1.57965C13.8552 1.58205 13.836 1.5831 13.8169 1.58278C13.7679 1.58278 13.7096 1.57861 13.6461 1.57445C13.5711 1.56924 13.4846 1.56299 13.3961 1.56299C12.6273 1.56299 12.4815 2.10986 12.4628 2.4359C12.4201 3.18903 13.1483 3.24215 13.4983 3.26715ZM20.9492 17.0692C20.8486 16.9927 20.7489 16.9149 20.6502 16.8359C20.1377 16.4234 19.5929 16.0442 19.0668 15.6765L18.7387 15.4474C18.0636 14.9734 17.4574 14.7432 16.8845 14.7432C16.1115 14.7432 15.4387 15.1703 14.8825 16.0109C14.6367 16.3838 14.3377 16.5651 13.97 16.5651C13.7146 16.5561 13.464 16.4933 13.2346 16.3807C11.0574 15.3932 9.50106 13.8786 8.61134 11.8797C8.18107 10.913 8.32061 10.2817 9.07682 9.76715C9.50701 9.47549 10.3059 8.93278 10.2507 7.89215C10.186 6.71195 7.58054 3.15882 6.48259 2.7557C6.01323 2.58449 5.49874 2.58302 5.02843 2.75153C3.767 3.17549 2.86288 3.92132 2.40982 4.9057C1.97239 5.85778 1.9933 6.97549 2.4663 8.13799C3.83632 11.4994 5.76152 14.4307 8.18981 16.8494C10.566 19.2172 13.487 21.1557 16.8704 22.613C17.1756 22.7442 17.4954 22.8161 17.7298 22.8682C17.809 22.8859 17.8777 22.9015 17.9277 22.9151C17.9552 22.9225 17.9836 22.9263 18.0121 22.9265H18.0392C19.6308 22.9265 21.5422 21.4724 22.1286 19.8151C22.643 18.363 21.7034 17.6453 20.9492 17.0692ZM14.2027 7.10778C13.9308 7.11403 13.3631 7.12861 13.1642 7.7057C13.0705 7.97653 13.0819 8.20986 13.1976 8.40257C13.3663 8.68382 13.6903 8.77132 13.9841 8.81924C15.0518 8.99007 15.6008 9.57965 15.7102 10.6765C15.7613 11.1869 16.1061 11.5442 16.5467 11.5442C16.5802 11.5442 16.6136 11.5421 16.6467 11.538C17.178 11.4755 17.4352 11.0849 17.4123 10.3776C17.4206 9.64007 17.0351 8.80257 16.3778 8.1359C15.7194 7.46715 14.9256 7.09007 14.2027 7.10778Z" fill="black"/>
</svg>
